<?xml version="1.0" encoding="utf-8"?>
<!-- Generator: Adobe Illustrator 19.0.0, SVG Export Plug-In . SVG Version: 6.00 Build 0)  -->
<svg version="1.1" id="Layer_1" xmlns="http://www.w3.org/2000/svg" xmlns:xlink="http://www.w3.org/1999/xlink" x="0px" y="0px"
	 viewBox="0 0 377.8 80.6" style="enable-background:new 0 0 377.8 80.6;" xml:space="preserve">
<style type="text/css">
	.st0{fill:#FFFFFF;}
</style>
<g id="XMLID_2_">
	<path id="XMLID_3_" class="st0" d="M79.1,43.4c0.4,0,0.7,0.1,0.9,0.4c0.2,0.3,0.3,0.6,0.2,1c-0.1,0.4-0.4,0.5-0.8,0.6
		c-0.8,0-1.6,0.1-2.5,0.2c-0.9,0.1-1.9,0.1-2.9,0.2c-1,0.1-1.9,0.1-2.6,0.1c-6.3,7.8-13.6,14.6-22.1,20.2
		c-8.4,5.7-17.5,9.9-27.1,12.7c-10.5,3.1-16.5,2-17.8-3.3c-0.4-1.5-0.3-3.1,0.3-4.7C5.2,69.3,6,67.8,7,66.5c1.1-1.4,2.3-2.7,3.8-4.1
		s2.9-2.5,4.1-3.4c1.3-0.9,2.5-1.7,3.8-2.5c2.2-1.3,4.5-2.5,6.9-3.6c-0.5-11,0.1-21.8,1.8-32.6c0.1-0.4,0.3-0.7,0.6-0.8
		c0.4-0.1,0.7-0.1,1,0.1c0.3,0.2,0.4,0.5,0.4,0.9c-1.6,10.4-2.2,21-1.8,31.6c3.2-1.3,6.5-2.5,10-3.4c3.5-0.9,7.2-1.7,11-2.3
		c3.8-0.6,7.3-1.1,10.5-1.4c3.1-0.3,6.8-0.6,11.1-0.9c0-0.1,0.1-0.2,0.3-0.4s0.3-0.4,0.4-0.5c1.2-1.5,2.2-3,3.1-4.4
		c0.9-1.4,1.8-2.9,2.6-4.6c0.8-1.7,1.4-3.3,1.8-4.9c0.3-1.6,0.5-3.2,0.4-4.8c-0.1-1.6-0.5-3.2-1.3-4.8c-0.8-1.5-2-3-3.5-4.4
		c-1.8-1.6-3.9-2.9-6.2-4c-2.3-1.1-4.6-1.8-7-2.2c-2.3-0.4-4.8-0.7-7.4-0.9c-2.6-0.1-5-0.1-7.3,0c-2.6,0.1-5.2,0.4-7.7,0.7
		c-2.5,0.3-5.1,0.8-7.7,1.4c-2.7,0.6-5.2,1.4-7.5,2.3c-2.4,0.9-4.7,2-6.9,3.3c-2.3,1.3-4.3,2.8-6.1,4.5c-1.8,1.6-3.4,3.6-4.9,5.8
		C3.9,28.5,2.8,31,2,33.6c-0.1,0.4-0.4,0.6-0.8,0.6c-0.4,0-0.7-0.1-1-0.4c-0.3-0.3-0.3-0.6-0.2-1c1.2-3.7,3-7.1,5.5-10.2
		C8,19.6,10.8,17,14.1,15c3.2-2,6.8-3.8,10.6-5.1c3.8-1.4,7.8-2.4,11.8-3c4-0.6,8-0.8,12-0.8c3.9,0,7.7,0.3,11.3,1
		c1.6,0.3,3.2,0.6,4.7,1.1c1.5,0.4,3.1,1,4.6,1.8c1.6,0.7,3,1.5,4.3,2.4c1.3,0.9,2.5,2,3.6,3.2c1.1,1.2,2,2.6,2.7,4.1
		c0.6,1.4,1,2.8,1.3,4.3c0.2,1.5,0.2,2.9-0.1,4.3c-0.3,1.4-0.6,2.8-1.1,4.1c-0.5,1.3-1.1,2.7-1.9,4.1c-0.8,1.4-1.6,2.7-2.3,3.8
		c-0.8,1.1-1.6,2.3-2.6,3.6c0.5,0,1.4-0.1,2.8-0.2C77.2,43.6,78.3,43.5,79.1,43.4z M32,73.3c7.1-3,13.7-6.8,19.9-11.4
		S63.7,52,68.6,46.1c-8.5,0.6-15.9,1.5-22.4,2.6c-6.5,1.1-12.6,2.9-18.4,5.4c0.2,3.6,0.5,7.1,0.9,10.5c0,0.4-0.1,0.7-0.4,0.9
		c-0.3,0.2-0.6,0.3-1,0.1c-0.4-0.1-0.6-0.4-0.6-0.8c-0.4-3.1-0.6-6.4-0.9-9.9c-13,6.2-19.2,12.5-18.8,19c0.1,1.5,0.5,2.6,1.1,3.3
		c0.7,0.6,1.8,1,3.4,1.2c1,0.1,2.2,0.1,3.5,0c1.1-0.1,2.6-0.5,4.7-1.1C23.8,76.4,27.9,75,32,73.3z"/>
	<path id="XMLID_6_" class="st0" d="M94.9,44.7c0.3-0.3,0.6-0.4,1-0.2c0.3,0.1,0.5,0.4,0.6,0.8c0.1,0.3,0,0.7-0.3,1
		c-6.9,7-12.8,9.9-17.8,8.8c-1.8-0.4-3.1-1.2-4-2.3s-1.3-2.4-1.1-3.9c0.2-1.4,0.8-2.8,2-4.1c0.9-1,2.1-1.8,3.5-2.4
		c2.1-0.9,3.2-0.3,3.1,1.6c0,0,0,0.1,0,0.1c0,1.3-0.8,2.5-2.3,3.7c-1.5,1.2-2.9,1.6-4.2,1.1c-0.1,1.5,0.5,2.6,1.9,3.4
		c1.4,0.7,2.9,1,4.6,0.6c2.4-0.4,4.6-1.4,6.6-2.8C90.6,48.7,92.7,46.9,94.9,44.7z M79,44.4c-0.5,0-1,0.3-1.5,0.9
		c-0.5,0.5-1,1.1-1.4,1.8c0.7,0.3,1.5-0.1,2.5-1.2c0.7-0.8,0.8-1.2,0.5-1.4C79.1,44.4,79.1,44.4,79,44.4z"/>
	<path id="XMLID_9_" class="st0" d="M116.8,45.4c0.5-0.5,1-0.5,1.5-0.1c0.5,0.4,0.6,0.8,0.2,1.3c-0.8,0.9-1.6,1.7-2.3,2.4
		s-1.7,1.6-3,2.8s-2.5,2.1-3.6,2.9c-1.1,0.8-2.3,1.6-3.7,2.3c-1.4,0.7-2.6,1.1-3.8,1.3s-2.3,0.1-3.4-0.4c-1.1-0.4-2.1-1.3-2.9-2.5
		c-0.5-0.7-0.8-1.5-1.1-2.5s-0.4-1.9-0.5-2.8c0-0.9,0-2,0.1-3.2c0.1-1.3,0.2-2.3,0.3-3.1c0.1-0.8,0.3-1.8,0.5-3.1
		c0.3-1.3,0.4-2.2,0.5-2.6c0.2-1.4,0.5-2.9,0.8-4.4s0.6-3.1,1-4.7c0.4-1.6,0.7-3,1-4.2c0.3-1.2,0.7-2.8,1.1-4.6
		c0.5-1.9,0.8-3.4,1.1-4.4c0.1-0.5,0.5-0.7,1-0.6c0.5,0.1,0.8,0.4,0.9,0.8c0.2,1.1,0.4,2.1,0.4,3.1c0,1,0,1.9-0.2,2.9
		c-0.2,1-0.4,1.9-0.6,2.7c-0.2,0.8-0.6,1.9-1,3.1c-0.1,0.3-0.3,0.5-0.7,0.6c-0.3,0.1-0.6,0-0.8-0.2c-1.5,6.5-2.5,12-2.9,16.6
		c0,0.2-0.1,0.7-0.2,1.5c-0.1,0.8-0.1,1.4-0.2,2c0,0.5-0.1,1.1-0.1,1.8c0,0.7,0,1.3,0.1,1.9c0.1,0.6,0.3,1,0.5,1.4
		c0.3,0.6,0.6,1,1,1.4c0.4,0.4,0.7,0.7,1,0.9c0.3,0.2,0.8,0.4,1.3,0.4c0.5,0,0.9,0.1,1.2,0.1c0.3,0,0.7-0.1,1.3-0.3
		c0.6-0.2,1-0.4,1.2-0.4c0.3-0.1,0.7-0.3,1.3-0.7c0.6-0.4,0.9-0.6,1.1-0.7c0.2-0.1,0.8-0.5,2-1.4C111.4,50.6,114.2,48.2,116.8,45.4z
		"/>
	<path id="XMLID_11_" class="st0" d="M117.6,43.7c0.2-0.4,0.4-0.6,0.8-0.6c0.4,0,0.7,0.1,0.9,0.3c0.3,0.3,0.3,0.6,0.2,1
		c-1.7,4.3-2.5,8.6-2.4,13c0,0.6-0.3,0.9-0.9,0.9c-0.6,0-1-0.3-1.1-0.8c0-0.1,0-0.2,0-0.3C114.9,52.7,115.8,48.2,117.6,43.7z
		 M120.9,37.9c0.2,0.6,0.1,1-0.5,1.4l-3.5,2.1c-0.2,0.1-0.5,0.1-0.8,0c-0.3-0.1-0.5-0.3-0.5-0.5c-0.2-0.5-0.1-1,0.5-1.4l3.5-2.1
		c0.2-0.1,0.5-0.1,0.8,0C120.6,37.5,120.8,37.7,120.9,37.9z"/>
	<path id="XMLID_14_" class="st0" d="M127.8,59.2c-0.7,0.3-1.4,0.3-2,0c-0.6-0.3-1.1-0.7-1.5-1.3c-0.4-0.6-0.7-1.4-1.1-2.3
		c-0.3-0.9-0.5-1.9-0.7-2.9c-0.2-1-0.3-2.1-0.4-3.1c-0.1-1.1-0.2-2-0.2-3c0-0.9,0-1.8,0-2.5c0-0.7,0-1.2,0-1.6
		c0-0.4,0.2-0.7,0.5-0.8c0.3-0.1,0.7-0.1,1,0.1c0.3,0.2,0.5,0.5,0.5,0.9c0,4.2,0.3,7.7,0.9,10.4c0,0.1,0.1,0.3,0.2,0.6
		c0.1,0.4,0.1,0.6,0.2,0.8c0,0.2,0.1,0.4,0.3,0.8c0.1,0.4,0.2,0.6,0.4,0.8c0.1,0.2,0.3,0.3,0.5,0.5c0.2,0.1,0.4,0.2,0.7,0.2
		s0.5-0.1,0.8-0.3c0.2-0.1,0.3-0.3,0.5-0.6c0.2-0.3,0.3-0.6,0.4-0.9c0.1-0.3,0.2-0.6,0.4-1c0.1-0.4,0.2-0.6,0.3-0.8
		c0.9-2.3,1.9-5.6,3-10c1.1-4.4,2-7.4,2.5-9c0.1-0.4,0.3-0.6,0.7-0.6c0.4,0,0.7,0.1,0.9,0.4c0.3,0.3,0.3,0.6,0.2,1
		c-0.5,1.5-1,3.3-1.5,5.3s-1.1,4-1.6,6c-0.5,2-1,3.8-1.5,5.2c-0.1,0.2-0.2,0.6-0.4,1.2c-0.2,0.6-0.3,1.2-0.5,1.5
		c-0.1,0.4-0.3,0.9-0.5,1.5c-0.3,0.6-0.5,1.1-0.8,1.5c-0.3,0.4-0.6,0.8-0.9,1.1C128.5,58.8,128.2,59.1,127.8,59.2z"/>
	<path id="XMLID_16_" class="st0" d="M157.1,44.7c0.3-0.3,0.6-0.4,1-0.2c0.3,0.1,0.5,0.4,0.6,0.8c0.1,0.3,0,0.7-0.3,1
		c-6.9,7-12.8,9.9-17.8,8.8c-1.8-0.4-3.1-1.2-4-2.3s-1.3-2.4-1.1-3.9c0.2-1.4,0.8-2.8,2-4.1c0.9-1,2.1-1.8,3.5-2.4
		c2.1-0.9,3.2-0.3,3.1,1.6c0,0,0,0.1,0,0.1c0,1.3-0.8,2.5-2.3,3.7c-1.5,1.2-2.9,1.6-4.2,1.1c-0.1,1.5,0.5,2.6,1.9,3.4
		c1.4,0.7,2.9,1,4.6,0.6c2.4-0.4,4.6-1.4,6.6-2.8C152.8,48.7,154.9,46.9,157.1,44.7z M141.3,44.4c-0.5,0-1,0.3-1.5,0.9
		c-0.5,0.5-1,1.1-1.4,1.8c0.7,0.3,1.5-0.1,2.5-1.2c0.7-0.8,0.8-1.2,0.5-1.4C141.4,44.4,141.3,44.4,141.3,44.4z"/>
	<path id="XMLID_19_" class="st0" d="M177.2,45c0.2-0.2,0.4-0.3,0.6-0.3c0.2,0,0.4,0.1,0.6,0.2c0.2,0.1,0.3,0.3,0.4,0.5
		c0.1,0.2,0.1,0.4,0.1,0.6c0,0.2-0.1,0.4-0.3,0.6c-2.4,1.9-5.1,2.8-8.1,2.7c-3-0.1-5.6-1.2-7.8-3.2c-1.2,1.4-2.2,3.1-3,5.1
		c-0.8,2-1.4,4.1-1.9,6.2c-0.1,0.4-0.3,0.7-0.6,0.8c-0.3,0.1-0.6,0.1-1-0.1c-0.3-0.2-0.4-0.5-0.4-1c0.1-4.5,1-9.8,2.6-15.6
		c0.1-0.4,0.3-0.6,0.7-0.6c0.4,0,0.7,0.1,1,0.4c0.3,0.3,0.3,0.6,0.3,1c-0.6,2-1,4-1.5,5.9c0.9-1.7,2-3.1,3.1-4.3
		c0.2-0.2,0.4-0.3,0.7-0.3c0.3,0,0.5,0.1,0.7,0.4c1.8,2,4.1,3.1,6.8,3.3C172.7,47.5,175.1,46.7,177.2,45z"/>
	<path id="XMLID_21_" class="st0" d="M227.9,0.8c1.5,10.1,1.5,22.9-0.1,38.4c0,0.4-0.1,1.3-0.3,2.8c-0.1,1.5-0.3,2.5-0.3,3.1
		c-0.1,0.6-0.2,1.6-0.4,3.1c-0.2,1.5-0.3,2.6-0.5,3.3c-0.1,0.7-0.3,1.8-0.6,3.1c-0.3,1.4-0.5,2.4-0.8,3.3s-0.6,1.8-1,2.9
		c-0.4,1.2-0.8,2.1-1.3,3c-0.4,0.8-0.9,1.6-1.5,2.5c-0.6,0.9-1.2,1.6-1.9,2.3c-1.1,1.2-2.4,1.9-3.7,2.2c-1.3,0.3-2.6,0.3-3.8-0.2
		c-1.2-0.4-2.4-1.1-3.6-2c-1.2-0.9-2.3-1.9-3.2-3c-0.9-1.1-1.7-2.2-2.3-3.5c-1.6-2.8-2.9-5.8-4-9.1c-1.1-3.3-2-6.7-2.6-10.3
		c-0.6-3.6-1.1-6.9-1.4-10c-0.3-3-0.6-6.5-0.7-10.2c-0.2-3.1-0.2-6.1-0.2-8.9c0-0.1,0-0.8-0.1-2.1c-0.1-1.3-0.1-2.3,0-3.1
		c0.1-0.8,0.3-1.4,0.7-1.9c0.8-0.9,1.7-1.2,2.5-0.9c0.8,0.3,1.6,1,2.2,1.9c0.7,1,1,1.8,1.1,2.7c0,0.4-0.1,0.7-0.4,0.9
		c-0.3,0.2-0.6,0.3-1,0.1c-0.3-0.1-0.6-0.4-0.6-0.8c-0.1-0.8-0.3-1.5-0.6-2c-0.4-0.5-0.8-0.5-1.3,0c-0.2,0.2-0.3,0.4-0.4,0.6
		c0,0.2-0.1,0.4-0.1,0.8c0,0.3,0,0.5,0,0.7c0,0.3,0,1.4,0,3.3c0,3,0,6.2,0.3,9.5c0.4,6.4,1.1,12.4,2.1,18.1c0.3,1.4,0.5,2.6,0.7,3.4
		c0.2,0.8,0.4,2,0.8,3.6c0.3,1.5,0.7,2.8,1,3.8c0.3,1,0.7,2.2,1.2,3.7c0.5,1.4,1,2.6,1.5,3.6c0.6,1,1.2,2.1,1.9,3.1
		c0.7,1.1,1.5,2,2.3,2.9c0.9,0.8,1.8,1.5,2.8,2.1c1.1,0.7,2.1,1,3.1,1.1c1,0.1,1.9,0,2.6-0.4c0.8-0.3,1.5-0.9,2.2-1.7
		c0.7-0.8,1.3-1.6,1.7-2.4c0.4-0.8,0.9-1.8,1.3-2.9c0.5-1.2,0.8-2.1,1-3s0.5-1.7,0.8-2.8c2-7.6,3.2-17.5,3.6-29.6
		c0.4-10.5,0.2-18.9-0.8-25c-0.1-0.4,0-0.7,0.4-0.9c0.3-0.2,0.6-0.3,1-0.2C227.6,0.2,227.8,0.4,227.9,0.8z"/>
	<path id="XMLID_23_" class="st0" d="M246.9,44.9c0.3-0.2,0.7-0.3,1-0.1c0.4,0.2,0.6,0.4,0.6,0.8c0.1,0.3-0.1,0.6-0.4,0.9
		c-2.4,1.7-4.6,3.4-6.6,4.9c0.9,0.6,1.6,1.1,2.2,1.7c0.6,0.5,1.1,1.2,1.5,1.9c0.5,0.7,0.6,1.5,0.5,2.3c-0.1,0.8-0.5,1.7-1.3,2.5
		c-0.7,0.8-1.6,1.6-2.8,2.3c-1.1,0.7-2.3,1.3-3.6,1.6c-1.3,0.4-2.4,0.4-3.6-0.1c-1.1-0.4-2-1.3-2.5-2.6c-0.8-2.1,0.4-4.5,3.4-7.3
		c0.7-0.6,1.6-1.4,2.5-2.1c-0.1,0-0.5-0.3-1.3-0.7c-0.8-0.4-1.3-0.7-1.6-0.9c-0.3-0.2-0.7-0.4-1.3-0.9c-0.6-0.4-1-0.8-1.4-1.1
		c-0.3-0.4-0.6-0.8-0.9-1.2c-1-1.8-0.5-3.8,1.7-6.1c1.9-1.9,4-3.2,6.5-3.8c2.7-0.6,4.3,0,5,1.8c0.1,0.3,0.2,0.6,0.3,1
		c0,0.4-0.1,0.7-0.4,0.9s-0.6,0.3-1,0.1c-0.4-0.1-0.6-0.4-0.6-0.8c-0.3-1.8-2-1.8-5,0c-1.4,0.8-2.4,1.5-3.1,2.3
		c-0.6,0.6-1,1.1-1.3,1.5c-0.3,0.4-0.3,0.9-0.2,1.4c0.1,0.5,0.5,1.1,1.1,1.6c0.3,0.3,0.6,0.5,1,0.8c0.4,0.3,0.7,0.5,1,0.7
		c0.3,0.2,0.7,0.4,1.3,0.7c0.6,0.3,0.9,0.5,1.1,0.6c0.1,0,0.2,0.1,0.4,0.2c0.2,0.1,0.3,0.2,0.4,0.2
		C241.9,48.5,244.3,46.7,246.9,44.9z M242.4,59.1c0.4-0.5,0.8-0.9,1-1.4c0.2-0.4,0.3-0.8,0.2-1.2c-0.1-0.4-0.2-0.7-0.4-1.1
		c-0.2-0.3-0.5-0.7-0.9-1c-0.4-0.3-0.8-0.6-1.1-0.9s-0.8-0.5-1.3-0.8c-0.9,0.8-1.8,1.5-2.5,2.1c-0.1,0.1-0.4,0.3-0.7,0.6
		c-0.3,0.3-0.6,0.5-0.8,0.6c-0.2,0.2-0.4,0.4-0.6,0.7c-0.2,0.3-0.4,0.6-0.5,0.8c-0.7,1.6-0.7,2.8,0.2,3.5c0.9,0.7,2.1,0.9,3.6,0.5
		C239.7,61.3,241,60.5,242.4,59.1z"/>
	<path id="XMLID_26_" class="st0" d="M310.5,25.3c0.2,3.9,0.2,8.3,0,13.4c-0.2,5-0.5,9.5-0.8,13.4c-0.3,3.9-0.5,8.3-0.5,13.4
		c0,5,0.2,9.5,0.6,13.3c0,0.4-0.1,0.7-0.4,0.9c-0.3,0.2-0.7,0.3-1,0.1c-0.3-0.1-0.5-0.4-0.6-0.8c-0.5-4.1-0.7-8.6-0.6-13.6
		c0.1-5,0.3-9.6,0.6-13.7c0.3-4.1,0.6-8.7,0.8-13.7c0.2-5,0.1-9.6-0.1-13.6c0,0-0.1-0.4-0.1-1.1c0-0.7,0-1.3-0.1-1.9
		c-0.1-0.5-0.1-1.1-0.2-1.8c-0.1-0.7-0.3-1.2-0.5-1.7c-0.2-0.4-0.4-0.7-0.7-0.8c-0.2-0.1-0.5,0-0.8,0.1c-0.3,0.2-0.6,0.4-0.9,0.8
		c-0.3,0.4-0.6,0.7-0.8,1.1c-0.3,0.4-0.5,0.8-0.8,1.4c-0.3,0.5-0.5,0.9-0.7,1.3c-0.2,0.3-0.4,0.7-0.6,1.1c-0.2,0.4-0.3,0.6-0.3,0.7
		c-0.5,0.9-1.8,3.8-4,8.6c-2.2,4.8-4,8.4-5.6,10.8c-0.5,0.6-1,1.2-1.5,1.8c-0.5,0.5-1.1,1-1.8,1.5c-0.7,0.4-1.3,0.6-2,0.4
		c-0.7-0.1-1.2-0.7-1.7-1.5c-0.2-0.4-0.4-0.9-0.5-1.5c-0.1-0.6-0.2-1.1-0.2-1.7c0-0.6,0-1.1,0-1.7c0-0.6,0-1.1,0-1.6
		c0-0.4,0-4.2,0-11.3c0.1-5.6-0.1-9.9-0.4-12.7c-0.7-5.9-1.7-8.8-3-8.8c-0.4,0-0.9,0.5-1.5,1.4s-1.1,2.2-1.6,3.7
		c-0.5,1.5-1,3-1.4,4.3c-0.4,1.3-0.8,2.7-1.2,4.1c-0.4,1.4-0.5,2.1-0.5,2.2c-3,10.2-5.4,19.5-7.2,27.7c-1.8,8.2-2.8,16.2-3,24
		c0,0.4-0.2,0.7-0.5,0.8c-0.3,0.1-0.7,0.1-1-0.1c-0.3-0.2-0.5-0.5-0.5-0.9c0.1-3.2,0.4-6.8,1-10.6c0.5-3.9,1.1-7.1,1.6-9.8
		c0.5-2.7,1.3-6.1,2.3-10.4c2.7-12,5.4-21.8,8-29.4c0-0.1,0.2-0.7,0.5-1.7c0.3-1,0.6-1.8,0.9-2.5c0.3-0.7,0.6-1.4,1-2.3
		c0.4-0.9,0.9-1.5,1.4-1.9c0.5-0.4,1.1-0.6,1.7-0.6c0.7,0,1.3,0.3,1.8,0.7c0.5,0.5,1,1,1.3,1.6c0.3,0.6,0.7,1.4,0.9,2.4
		c0.3,1,0.5,1.8,0.6,2.6c0.1,0.8,0.3,1.7,0.4,2.8c0.1,1.1,0.2,1.9,0.2,2.4c0,0.5,0,1.2,0.1,2c0,0.3,0,0.6,0,0.7
		c0.1,2.5,0.1,6.9,0,13.1c0,0.5-0.1,1.6-0.2,3.3c-0.1,1.7-0.2,3.2-0.1,4.3c0,1.2,0.2,2.2,0.6,3.2c0.7,2.2,2.1,1.6,4.2-1.8
		c0.1-0.2,0.2-0.4,0.4-0.8l0.2-0.3c0.5-0.9,1-1.9,1.6-3c0.6-1.1,1-2,1.4-2.7c0.3-0.7,0.8-1.8,1.4-3.1c0.6-1.4,1.1-2.3,1.3-2.9
		c0.1-0.3,0.5-1.1,1-2.5c0.6-1.4,1.1-2.5,1.6-3.5c0.5-1,1.1-2.1,1.8-3.3c0.7-1.2,1.5-2.2,2.3-2.8c0.8-0.7,1.7-1,2.5-1.1
		c0.6,0,1.1,0.1,1.5,0.4c0.4,0.3,0.8,0.7,1,1.2c0.3,0.5,0.5,1.1,0.6,1.6s0.3,1.1,0.4,1.9c0.1,0.8,0.1,1.4,0.2,1.9
		c0,0.5,0.1,1.1,0.1,1.8C310.5,24.8,310.5,25.2,310.5,25.3z"/>
	<path id="XMLID_28_" class="st0" d="M340.5,44.8c0.3-0.3,0.6-0.4,0.9-0.2c0.3,0.1,0.6,0.4,0.6,0.8c0.1,0.4,0,0.7-0.3,1
		c-0.6,0.6-1.4,1.3-2.4,2.1c-1,0.8-2.1,1.6-3.4,2.5c-1.3,0.9-2.6,1.6-3.9,2.1c-1.3,0.5-2.5,0.9-3.6,1.1c-1.2,0.2-2.2,0-3-0.5
		c-0.9-0.6-1.4-1.5-1.7-2.9c-0.3,0.2-0.6,0.5-1,0.8c-0.4,0.3-0.7,0.6-1,0.9c-0.3,0.3-0.7,0.5-1.1,0.8c-0.4,0.3-0.8,0.5-1.1,0.8
		c-0.3,0.2-0.7,0.4-1.1,0.6c-0.4,0.2-0.8,0.3-1.2,0.4c-0.4,0.1-0.8,0.1-1.2,0.1c-0.4,0-0.8,0-1.2-0.2c-0.8-0.2-1.4-0.6-1.8-1.2
		c-0.4-0.6-0.6-1.3-0.6-1.9c0-0.7,0.1-1.4,0.3-2.2c0.4-1.4,1.1-2.7,2.2-3.7c1.1-1,2.3-1.8,3.6-2.2c1.3-0.4,2.7-0.6,4.2-0.5
		c1.5,0.1,2.8,0.5,4.1,1.3c0.6,0.3,0.7,0.8,0.3,1.3c-0.4,0.5-0.9,0.6-1.4,0.3c-2.5-1.5-5.1-1.4-7.8,0.1c-0.5,0.3-1,0.7-1.5,1.1
		s-0.9,0.9-1.3,1.4c-0.4,0.6-0.6,1.1-0.6,1.6c0,0.5,0.2,1.1,0.7,1.6c0.5,0.5,1,0.8,1.6,0.8c0.6,0,1.2-0.2,1.9-0.6
		c0.6-0.4,1.2-0.8,1.8-1.3c0.6-0.5,1.2-1,1.9-1.5c0.7-0.6,1.2-1,1.6-1.3c0.3-0.2,0.7-0.2,1,0.1c0.3,0.3,0.5,0.6,0.5,0.9
		c0.1,3.7,2.6,4.1,7.5,1.2c2.7-1.6,5.1-3.4,7.2-5.4C340.4,44.9,340.4,44.9,340.5,44.8z"/>
	<path id="XMLID_30_" class="st0" d="M360.8,45c0.2-0.2,0.4-0.3,0.6-0.3c0.2,0,0.4,0.1,0.6,0.2c0.2,0.1,0.3,0.3,0.4,0.5
		c0.1,0.2,0.1,0.4,0.1,0.6c0,0.2-0.1,0.4-0.3,0.6c-2.4,1.9-5.1,2.8-8.1,2.7c-3-0.1-5.6-1.2-7.8-3.2c-1.2,1.4-2.2,3.1-3,5.1
		c-0.8,2-1.4,4.1-1.9,6.2c-0.1,0.4-0.3,0.7-0.6,0.8c-0.3,0.1-0.6,0.1-1-0.1c-0.3-0.2-0.4-0.5-0.4-1c0.1-4.5,1-9.8,2.6-15.6
		c0.1-0.4,0.3-0.6,0.7-0.6c0.4,0,0.7,0.1,1,0.4c0.3,0.3,0.3,0.6,0.3,1c-0.6,2-1,4-1.5,5.9c0.9-1.7,2-3.1,3.1-4.3
		c0.2-0.2,0.4-0.3,0.7-0.3c0.3,0,0.5,0.1,0.7,0.4c1.8,2,4.1,3.1,6.8,3.3C356.3,47.5,358.7,46.7,360.8,45z"/>
	<path id="XMLID_32_" class="st0" d="M376.1,44.9c0.3-0.2,0.7-0.3,1-0.1c0.4,0.2,0.6,0.4,0.6,0.8c0.1,0.3-0.1,0.6-0.4,0.9
		c-2.4,1.7-4.6,3.4-6.6,4.9c0.9,0.6,1.6,1.1,2.2,1.7c0.6,0.5,1.1,1.2,1.5,1.9c0.5,0.7,0.6,1.5,0.5,2.3c-0.1,0.8-0.5,1.7-1.3,2.5
		c-0.7,0.8-1.6,1.6-2.8,2.3c-1.1,0.7-2.3,1.3-3.6,1.6c-1.3,0.4-2.4,0.4-3.6-0.1c-1.1-0.4-2-1.3-2.5-2.6c-0.8-2.1,0.4-4.5,3.4-7.3
		c0.7-0.6,1.6-1.4,2.5-2.1c-0.1,0-0.5-0.3-1.3-0.7c-0.8-0.4-1.3-0.7-1.6-0.9c-0.3-0.2-0.7-0.4-1.3-0.9c-0.6-0.4-1-0.8-1.4-1.1
		c-0.3-0.4-0.6-0.8-0.9-1.2c-1-1.8-0.5-3.8,1.7-6.1c1.9-1.9,4-3.2,6.5-3.8c2.7-0.6,4.3,0,5,1.8c0.1,0.3,0.2,0.6,0.3,1
		c0,0.4-0.1,0.7-0.4,0.9s-0.6,0.3-1,0.1c-0.4-0.1-0.6-0.4-0.6-0.8c-0.3-1.8-2-1.8-5,0c-1.4,0.8-2.4,1.5-3.1,2.3
		c-0.6,0.6-1,1.1-1.3,1.5c-0.3,0.4-0.3,0.9-0.2,1.4c0.1,0.5,0.5,1.1,1.1,1.6c0.3,0.3,0.6,0.5,1,0.8c0.4,0.3,0.7,0.5,1,0.7
		c0.3,0.2,0.7,0.4,1.3,0.7c0.6,0.3,0.9,0.5,1.1,0.6c0.1,0,0.2,0.1,0.4,0.2c0.2,0.1,0.3,0.2,0.4,0.2
		C371.2,48.5,373.5,46.7,376.1,44.9z M371.6,59.1c0.4-0.5,0.8-0.9,1-1.4c0.2-0.4,0.3-0.8,0.2-1.2c-0.1-0.4-0.2-0.7-0.4-1.1
		c-0.2-0.3-0.5-0.7-0.9-1c-0.4-0.3-0.8-0.6-1.1-0.9s-0.8-0.5-1.3-0.8c-0.9,0.8-1.8,1.5-2.5,2.1c-0.1,0.1-0.4,0.3-0.7,0.6
		c-0.3,0.3-0.6,0.5-0.8,0.6c-0.2,0.2-0.4,0.4-0.6,0.7c-0.2,0.3-0.4,0.6-0.5,0.8c-0.7,1.6-0.7,2.8,0.2,3.5c0.9,0.7,2.1,0.9,3.6,0.5
		C369,61.3,370.3,60.5,371.6,59.1z"/>
</g>
</svg>
