<?xml version="1.0" encoding="utf-8"?>
<!-- Generator: Adobe Illustrator 19.0.0, SVG Export Plug-In . SVG Version: 6.00 Build 0)  -->
<svg version="1.1" id="Layer_1" xmlns="http://www.w3.org/2000/svg" xmlns:xlink="http://www.w3.org/1999/xlink" x="0px" y="0px"
	 viewBox="0 0 234 100.5" style="enable-background:new 0 0 234 100.5;" xml:space="preserve">
<style type="text/css">
	.st0{fill:#FFFFFF;}
</style>
<g id="XMLID_2_">
	<path id="XMLID_3_" class="st0" d="M63,0.2c0.3-0.3,0.6-0.3,1-0.1c0.4,0.2,0.6,0.4,0.6,0.8c0.1,0.3,0,0.6-0.3,0.9
		c-3.6,3-7.1,6.3-10.3,9.9c-3.2,3.6-6,7.2-8.5,10.9c-2.5,3.7-4.8,7.7-7,12.1c-2.2,4.4-4.1,8.6-5.8,12.6c-1.6,4.1-3.2,8.5-4.7,13.4
		s-2.8,9.3-3.8,13.5s-2.1,8.7-3.2,13.7c-0.1,0.3-0.2,0.5-0.5,0.8c-0.3,0.2-0.6,0.2-0.9,0c-0.4-0.2-0.8-0.6-1.2-1.2
		c-0.4-0.6-0.7-1.2-0.9-1.7c-0.2-0.5-0.4-1.2-0.6-2c-0.3-0.9-0.4-1.4-0.5-1.6c-1.2-3.6-2.9-9.1-5-16.5C8.1,54.7,4.4,41,0,24.5
		c-0.1-0.4,0-0.7,0.3-0.9c0.3-0.2,0.6-0.3,1-0.1c0.4,0.1,0.6,0.4,0.7,0.8c3.7,14.1,7,26.3,9.9,36.4C14,68,15.7,73.8,17.1,78
		c0.1,0.2,0.2,0.9,0.5,1.9c0.3,1,0.5,2,0.8,3.1c0.3,1,0.6,1.9,0.9,2.5c1.1-4.9,2.2-9.5,3.3-13.6c1.1-4.1,2.4-8.6,3.9-13.4
		c1.5-4.8,3.1-9.2,4.8-13.3c1.6-4,3.6-8.2,5.8-12.5c2.2-4.3,4.6-8.3,7.1-12c2.5-3.6,5.4-7.3,8.6-10.8C55.9,6.4,59.4,3.2,63,0.2z"/>
	<path id="XMLID_5_" class="st0" d="M34.4,56.7c0.2-0.4,0.4-0.6,0.8-0.6c0.4,0,0.7,0.1,0.9,0.3c0.3,0.3,0.3,0.6,0.2,1
		c-1.7,4.3-2.5,8.6-2.5,13c0,0.6-0.3,0.9-0.9,0.9c-0.6,0-1-0.3-1.1-0.8c0-0.1-0.1-0.2-0.1-0.3C31.8,65.7,32.6,61.2,34.4,56.7z
		 M37.7,50.9c0.2,0.6,0.1,1-0.5,1.4l-3.5,2.1c-0.2,0.1-0.5,0.1-0.8,0c-0.3-0.1-0.5-0.3-0.5-0.5c-0.2-0.5-0.1-1,0.5-1.4l3.5-2.1
		c0.2-0.1,0.5-0.1,0.8,0C37.5,50.5,37.6,50.7,37.7,50.9z"/>
	<path id="XMLID_8_" class="st0" d="M53.6,39.7c-0.4,3.3-0.7,5.9-0.9,7.9c-0.2,1.9-0.4,4.4-0.5,7.5C52,58.1,52,60.8,52.1,63
		c0.1,2.2,0.4,4.7,0.8,7.3c0.4,2.7,1,5.2,1.8,7.5c0.1,0.4,0.1,0.7-0.2,1s-0.6,0.4-0.9,0.4c-0.4,0-0.6-0.2-0.8-0.6
		c-2.2-6.4-3.1-14.1-2.7-23.2c-1.9,5.6-4.5,10.1-7.8,13.5c-0.6,0.6-1.2,1.2-1.9,1.5c-0.7,0.4-1.4,0.7-2.1,0.8
		c-0.7,0.1-1.2,0-1.7-0.5c-0.5-0.5-0.7-1.3-0.8-2.4c0-2.2,0.7-4.4,2.2-6.7c1.5-2.3,3.3-3.8,5.3-4.6c0.6-0.2,1,0,1.3,0.5
		c0.3,0.6,0.1,1-0.5,1.3c-2.2,0.8-4,2.7-5.3,5.8c-1.1,2.5-1.3,3.9-0.5,4.2c0.5,0.1,1.3-0.3,2.4-1.3c2.5-2.1,4.6-5.8,6.6-11.3
		c2.4-7,4.2-16.1,5.3-27.3c0-0.4,0.2-0.7,0.6-0.8c0.3-0.1,0.7-0.1,1,0.1c0.3,0.2,0.5,0.5,0.4,0.9c-0.1,1-0.2,2.2-0.4,3.5
		C54.2,35.3,53.9,37.7,53.6,39.7z"/>
	<path id="XMLID_10_" class="st0" d="M76,57.7c0.3-0.3,0.6-0.4,1-0.2c0.3,0.1,0.5,0.4,0.6,0.8c0.1,0.3,0,0.7-0.3,1
		c-6.9,7-12.8,9.9-17.8,8.7c-1.8-0.4-3.1-1.2-4-2.3c-0.9-1.2-1.3-2.4-1.1-3.9c0.2-1.4,0.8-2.8,2-4.1c0.9-1,2.1-1.8,3.5-2.4
		c2.1-0.9,3.2-0.3,3.1,1.6c0,0,0,0.1,0,0.1c0,1.3-0.8,2.5-2.3,3.7c-1.5,1.2-2.9,1.6-4.2,1.1c-0.1,1.5,0.5,2.6,1.9,3.4
		c1.4,0.7,2.9,0.9,4.6,0.6c2.4-0.4,4.6-1.4,6.6-2.8C71.8,61.8,73.9,59.9,76,57.7z M60.2,57.4c-0.5,0-1,0.3-1.5,0.9
		c-0.5,0.5-1,1.1-1.4,1.8c0.7,0.3,1.5-0.1,2.5-1.2c0.7-0.8,0.9-1.2,0.5-1.4C60.3,57.4,60.3,57.4,60.2,57.4z"/>
	<path id="XMLID_13_" class="st0" d="M77.6,57.4c1.6,0.4,2.7,1.4,3.3,2.9c0.6,1.5,0.7,3,0.1,4.6c-0.5,1.5-1.3,2.8-2.3,4
		c-1,1.2-2.1,1.9-3.4,2c-1.3,0.1-2.2-0.4-2.8-1.4c-0.6-1-0.8-2.1-0.5-3.3c0.5-2.6,1.8-5.2,4.1-7.8c0.1-0.1,0.1-0.1,0.3-0.2
		C76.6,57.5,77,57.3,77.6,57.4z M74.3,68.5c0.6,0.6,1.6,0.2,2.9-1.2c1.5-1.5,2.3-3.1,2.3-4.8c0.1-1.4-0.5-2.5-1.8-3.1
		c-0.3,0.3-0.6,0.7-0.9,1.1c-0.3,0.4-0.6,0.9-1.1,1.5c-0.4,0.6-0.8,1.2-1,1.8c-0.3,0.6-0.5,1.2-0.8,1.8s-0.3,1.1-0.2,1.6
		C73.8,67.8,74,68.2,74.3,68.5z"/>
	<path id="XMLID_16_" class="st0" d="M111.3,56.9c0.3-0.2,0.7-0.3,1-0.1c0.4,0.2,0.6,0.4,0.6,0.8c0,0.3-0.1,0.6-0.4,0.9
		c-5,3.5-8.8,6.3-11.5,8.4c0.1,0.2,0.2,0.5,0.3,0.8c1.8,5.5,2,10.3,0.8,14.5c-0.7,2.2-1.8,4.4-3.4,6.7s-3.4,4.3-5.6,6.2
		c-2.2,1.8-4.3,3-6.5,3.6c-1.7,0.4-3.2,0.4-4.3-0.1c-1.1-0.5-1.9-1.3-2.3-2.4c-0.4-1.1-0.6-2.3-0.6-3.7s0.2-2.8,0.6-4.1
		c0.4-1.4,0.9-2.6,1.5-3.7c1.9-3.4,4.3-6.7,7.2-9.7c2.9-3,6.2-6,10-8.9c-1.5-3.8-2.6-5.7-3.5-5.8c-0.5,0-1,0.2-1.5,0.6
		c-0.5,0.4-1.1,1-1.7,1.8c-0.6,0.8-1,1.2-1,1.3c-0.1,0-0.2,0.2-0.5,0.5S90.1,64.9,90,65c-0.1,0.1-0.3,0.3-0.6,0.6s-0.5,0.5-0.8,0.6
		s-0.5,0.3-0.8,0.5c-0.3,0.2-0.6,0.4-0.8,0.4c-0.2,0.1-0.5,0.1-0.8,0.2c-0.3,0-0.6,0-0.8,0c-0.3-0.1-0.5-0.2-0.8-0.3
		c-1.9-1.2-1.8-3.2,0.2-5.8c1.5-2,3.5-3.7,5.9-5c1.3-0.7,2.4-1,3.2-0.9c0.4,0.1,0.7,0.3,0.8,0.6c0.1,0.4,0.1,0.7-0.1,1
		c-0.2,0.3-0.5,0.4-1,0.4c-1.2-0.1-2.6,0.5-4.3,1.9c-1.7,1.4-2.8,2.7-3.1,3.9c-0.5,1.6-0.1,2,1.1,1.3c0.8-0.6,2-1.7,3.6-3.5
		c0.1-0.2,0.3-0.4,0.6-0.7s0.5-0.5,0.6-0.7c0.2-0.2,0.4-0.4,0.7-0.7c0.3-0.3,0.5-0.5,0.7-0.6c0.2-0.1,0.5-0.3,0.8-0.4
		c0.3-0.1,0.6-0.2,0.8-0.1c0.2,0,0.5,0.1,0.9,0.1c1.6,0.6,3.1,2.8,4.5,6.6C102.1,63.4,105.8,60.8,111.3,56.9z M97.7,86.3
		c3.5-5.3,4.1-11.4,1.9-18.2c-2,1.6-3.8,3.1-5.4,4.5c-4.1,3.8-7.1,7.1-9,9.9c-0.6,0.9-1,1.6-1.3,2.1c-0.3,0.5-0.8,1.4-1.3,2.5
		s-0.9,2.1-1.1,2.9c-0.2,0.8-0.3,1.7-0.3,2.7c0,1,0.3,1.8,0.8,2.5c0.9,1.2,1.9,1.8,3.2,1.8s2.5-0.4,3.7-1.2c1.2-0.8,2.5-1.9,3.8-3.2
		s2.3-2.5,3.1-3.5C96.5,88.1,97.2,87.2,97.7,86.3z"/>
	<path id="XMLID_19_" class="st0" d="M131.5,58c0.2-0.2,0.4-0.3,0.6-0.3c0.2,0,0.4,0.1,0.6,0.2c0.2,0.1,0.3,0.3,0.4,0.5
		c0.1,0.2,0.1,0.4,0.1,0.6c0,0.2-0.1,0.4-0.3,0.6c-2.4,1.9-5.1,2.8-8.1,2.7c-3-0.1-5.6-1.2-7.8-3.2c-1.2,1.4-2.2,3.1-3,5.1
		c-0.8,2-1.4,4.1-1.9,6.2c-0.1,0.4-0.3,0.7-0.6,0.8c-0.3,0.1-0.6,0.1-1-0.1c-0.3-0.2-0.4-0.5-0.4-1c0.1-4.5,1-9.8,2.6-15.6
		c0.1-0.4,0.3-0.6,0.7-0.6c0.4,0,0.7,0.1,1,0.4c0.3,0.3,0.3,0.6,0.3,1c-0.6,2-1,4-1.5,5.9c0.9-1.7,2-3.1,3.1-4.3
		c0.2-0.2,0.4-0.3,0.7-0.3c0.3,0,0.5,0.1,0.7,0.4c1.8,2,4.1,3.1,6.8,3.3C127.1,60.5,129.4,59.7,131.5,58z"/>
	<path id="XMLID_21_" class="st0" d="M156.2,57.8c0.3-0.3,0.6-0.4,0.9-0.2c0.3,0.1,0.6,0.4,0.6,0.8c0.1,0.4,0,0.7-0.3,1
		c-0.6,0.6-1.4,1.3-2.4,2.1c-1,0.8-2.1,1.6-3.4,2.5c-1.3,0.9-2.6,1.6-3.9,2.1c-1.3,0.6-2.5,0.9-3.6,1.1c-1.2,0.2-2.2,0-3-0.5
		c-0.9-0.5-1.4-1.5-1.7-2.9c-0.3,0.2-0.6,0.5-1,0.8c-0.4,0.3-0.7,0.6-1,0.9c-0.3,0.3-0.7,0.5-1.1,0.8c-0.4,0.3-0.8,0.5-1.1,0.8
		c-0.3,0.2-0.7,0.4-1.1,0.6c-0.4,0.2-0.8,0.3-1.2,0.4c-0.4,0.1-0.8,0.1-1.2,0.2c-0.4,0-0.8,0-1.2-0.2c-0.8-0.2-1.4-0.6-1.8-1.2
		c-0.4-0.6-0.6-1.3-0.6-2s0.1-1.4,0.3-2.2c0.4-1.4,1.1-2.7,2.2-3.7c1.1-1,2.3-1.8,3.6-2.2c1.3-0.4,2.7-0.6,4.2-0.5
		c1.5,0.1,2.8,0.5,4.1,1.3c0.6,0.3,0.7,0.8,0.3,1.3c-0.4,0.5-0.9,0.6-1.4,0.3c-2.5-1.5-5.1-1.4-7.8,0.1c-0.5,0.3-1,0.7-1.5,1.1
		s-0.9,0.9-1.3,1.4c-0.4,0.5-0.6,1.1-0.6,1.6c0,0.5,0.2,1.1,0.7,1.6c0.5,0.5,1,0.8,1.6,0.8c0.6,0,1.2-0.2,1.9-0.6
		c0.6-0.4,1.2-0.8,1.8-1.3c0.6-0.5,1.2-1,1.9-1.5c0.7-0.6,1.2-1,1.6-1.3c0.3-0.2,0.7-0.2,1,0.1c0.3,0.3,0.5,0.6,0.5,0.9
		c0.1,3.7,2.6,4.1,7.5,1.2c2.7-1.6,5.1-3.4,7.2-5.4C156.1,57.9,156.1,57.9,156.2,57.8z"/>
	<path id="XMLID_23_" class="st0" d="M178.1,57.8c0.4-0.1,0.7,0,0.9,0.3c0.2,0.3,0.3,0.6,0.2,1c-0.1,0.4-0.4,0.6-0.8,0.6
		c-2.7,0.5-4.9,1.6-6.8,3.3c-0.2,1.3-0.7,2.5-1.5,3.8s-1.6,2.3-2.6,3.2c-0.4,0.4-0.8,0.4-1.2,0.1c-0.4-0.3-0.5-0.7-0.4-1.2
		c0.7-2.6,1.9-4.9,3.8-6.8c0.2-2-0.5-3.4-2.2-4.3c-2.1-1.1-4.1-0.3-6,2.5c-1.6,2.3-2.5,5.7-2.8,10.2c-0.4,5.2-0.3,9.9,0.1,14.2
		c0.5,3.8,1.3,7.5,2.3,11.3c0.1,0.5-0.1,0.9-0.7,1.1c-0.6,0.2-1,0-1.2-0.5c0,0,0-0.1,0-0.1c0,0,0-0.1,0-0.1v0
		c-0.9-2.8-1.5-5.9-2-9.2c-1.9-12-1.6-24,1-35.9c0.1-0.4,0.3-0.7,0.7-0.8c0.4-0.1,0.7-0.1,1,0.1c0.3,0.2,0.4,0.5,0.3,0.9
		c-0.8,3.5-1.3,7.1-1.7,10.7c0.6-1.6,1.5-3,2.5-4.1c1-1.2,2.1-2,3.2-2.4c1.1-0.5,2.2-0.5,3.3-0.1c1.1,0.4,2.2,1.2,3.1,2.4
		c0.6,0.8,1,1.8,1.2,2.8C173.6,59.1,175.7,58.2,178.1,57.8z"/>
	<path id="XMLID_25_" class="st0" d="M204.2,57.9c0.2-0.3,0.5-0.5,0.9-0.4c0.4,0.1,0.6,0.3,0.8,0.6c0.1,0.3,0.1,0.7,0,1
		c-1.2,1.7-2.9,3.3-5,4.7c-2.1,1.4-4,2-5.9,1.9c-0.6,0-1.1-0.2-1.6-0.4s-1-0.5-1.3-0.8c-0.3-0.3-0.7-0.7-1.2-1.3
		c-0.4-0.6-0.8-1-1-1.3s-0.5-0.9-0.9-1.6c-0.4-0.7-0.7-1.1-0.8-1.4c0,0-0.1-0.3-0.5-0.9c-0.3-0.6-0.6-1.1-0.9-1.6
		c-0.3-0.4-0.5-0.7-0.7-0.8c-0.3,0-0.6,0-0.9,0.1s-0.5,0.2-0.6,0.4c-0.2,0.1-0.3,0.4-0.5,0.7c-0.2,0.3-0.3,0.6-0.4,0.8
		c-0.1,0.2-0.2,0.5-0.3,0.9c-0.1,0.4-0.2,0.6-0.3,0.7c-0.2,0.6-0.4,1.2-0.6,1.9c-0.2,0.7-0.4,1.5-0.6,2.3c-0.2,0.8-0.4,1.4-0.6,2
		c-0.1,0.3-0.2,0.5-0.3,0.7c-0.1,0.2-0.2,0.4-0.3,0.8c-0.1,0.3-0.3,0.6-0.4,0.8c-0.1,0.2-0.3,0.4-0.5,0.6c-0.2,0.2-0.4,0.4-0.6,0.5
		c-0.2,0.1-0.4,0.1-0.7,0.1c-0.3,0-0.5-0.1-0.8-0.3c-0.4-0.2-0.7-0.5-0.7-1c0.1-13.7,2.8-27.8,8-42c0.1-0.4,0.4-0.6,0.8-0.6
		c0.4-0.1,0.7,0.1,0.9,0.3c0.3,0.3,0.3,0.6,0.2,1c-3.7,10.3-6.1,20.7-7.2,31.1c-0.1,1.2-0.3,3.6-0.5,7v1.8c0,0,0-0.3,0.2-0.8l0.3-1
		c0-0.2,0.1-0.6,0.3-1.2c0.2-0.6,0.3-1,0.3-1.3c0.1-0.3,0.2-0.7,0.3-1.2c0.2-0.5,0.3-1,0.4-1.3c0.1-0.3,0.3-0.7,0.4-1.2
		c0.2-0.4,0.3-0.8,0.5-1.2c0.5-1,1-1.7,1.6-2.3c0.6-0.6,1.3-0.9,2.1-0.9c0.8,0,1.5,0.4,2.3,1.2c0.6,0.7,1.4,1.9,2.3,3.8
		c0.9,1.8,1.8,3.1,2.5,3.8c0.9,0.8,1.9,1.1,3,1.1s2.1-0.3,3.2-0.9c1.1-0.6,2.1-1.3,3-2.1C202.8,59.6,203.6,58.8,204.2,57.9z"/>
	<path id="XMLID_27_" class="st0" d="M232.4,58.3c0.3-0.3,0.6-0.3,1-0.1c0.4,0.2,0.6,0.4,0.6,0.8c0.1,0.3,0,0.6-0.3,1
		c-1.6,1.3-4.7,3.6-9.3,7c0.5,3.5,0.6,7.2,0.2,11.1c-0.3,3.2-1.1,6.2-2.4,9.1s-3.1,5.6-5.4,7.9c-2.3,2.4-5,4.1-8,5.1
		c-1.6,0.6-3,0.6-4.4,0.1c-1.4-0.5-2.3-1.6-2.9-3.3c-1.1-3.2-0.2-7.3,2.8-12.5c0.7-1.2,1.4-2.4,2.3-3.6c0.8-1.2,1.7-2.3,2.7-3.3
		c1-1.1,2-2.1,2.9-3c0.9-0.9,2-1.9,3.2-2.9s2.3-1.9,3.3-2.6s2.1-1.6,3.4-2.6c-0.5-2.5-1.3-4.4-2.3-5.8c-0.3-0.4-0.6-0.7-0.9-0.9
		c-0.3-0.2-0.5-0.3-0.8-0.4c-0.2-0.1-0.5,0-0.8,0.2c-0.3,0.2-0.6,0.4-0.8,0.6c-0.2,0.2-0.5,0.5-1,0.9c0,0-0.1,0.1-0.1,0.1
		c0,0-0.1,0.1-0.1,0.1c-0.1,0-0.1,0.1-0.1,0.1c-0.7,0.7-1.6,1.7-2.8,3.1c-1.2,1.4-2,2.3-2.5,2.9c-0.4,0.4-0.8,0.8-1,1.1
		s-0.7,0.6-1.3,1c-0.5,0.4-1,0.7-1.4,0.8c-0.4,0.2-0.9,0.2-1.4,0.2s-1-0.3-1.4-0.6c-1.7-1.5-1.6-4.8,0.3-10c0.1-0.4,0.4-0.6,0.8-0.6
		c0.4,0,0.7,0.1,1,0.4c0.3,0.3,0.3,0.6,0.2,1c-0.9,2.4-1.3,4.1-1.2,5c0.1,0.7,0.2,1.2,0.4,1.6c0.2,0.3,0.5,0.5,0.8,0.5
		c0.3,0,0.7-0.1,1-0.3c0.4-0.2,0.8-0.5,1.3-0.8c0.8-0.6,1.9-1.7,3.2-3.3c1.3-1.6,2.1-2.6,2.5-3c0.6-0.6,1.1-1.1,1.5-1.4
		c0.4-0.3,0.9-0.7,1.5-1c0.6-0.4,1.2-0.5,1.8-0.5c0.6,0,1.2,0.2,1.8,0.7c1.8,1.3,3.1,3.7,3.8,7.1C227.9,61.9,230.7,59.7,232.4,58.3z
		 M222.8,73.3c-0.1-1.8-0.2-3.5-0.3-5c-1.9,1.4-3.5,2.7-4.9,3.8s-2.8,2.5-4.4,4c-1.6,1.5-3,3-4.1,4.5c-1.1,1.5-2.2,3.1-3.1,4.9
		c-1,1.8-1.7,3.7-2.2,5.6c-0.4,1.6-0.5,3.1-0.2,4.4c0.3,1.3,1,2.2,2,2.6c1,0.5,2.4,0.3,4.2-0.6c1-0.5,2-1.1,3-1.8
		c1-0.7,2-1.5,2.8-2.4c0.9-0.9,1.6-1.7,2.3-2.7C221.4,86,223,80.3,222.8,73.3z"/>
</g>
</svg>
