<?xml version="1.0" encoding="utf-8"?>
<!-- Generator: Adobe Illustrator 19.0.0, SVG Export Plug-In . SVG Version: 6.00 Build 0)  -->
<svg version="1.1" id="Layer_1" xmlns="http://www.w3.org/2000/svg" xmlns:xlink="http://www.w3.org/1999/xlink" x="0px" y="0px"
	 viewBox="0 0 462 79.9" style="enable-background:new 0 0 462 79.9;" xml:space="preserve">
<style type="text/css">
	.st0{fill:#FFFFFF;}
</style>
<g id="XMLID_2_">
	<path id="XMLID_3_" class="st0" d="M56.6,28.1c0.4-0.1,0.7,0,0.9,0.3c0.2,0.3,0.3,0.6,0.1,1c-0.1,0.4-0.4,0.6-0.8,0.6
		c-0.8,0.2-2.1,0.5-3.7,0.8c-1.6,0.4-2.9,0.6-3.7,0.8c0.4,2.7,0.7,4.9,1,6.5c1.7,11.3,3.7,22.9,6,34.8c0.1,0.4,0,0.7-0.4,0.9
		c-0.3,0.2-0.6,0.3-1,0.1c-0.3-0.1-0.6-0.4-0.7-0.8c-2.6-13.7-4.9-27.5-6.9-41.3c-1.8,0.4-4.6,1-8.2,1.8c-3.6,0.8-6.4,1.4-8.2,1.8
		c2.4,14.4,3,28.8,1.7,43.2c-0.1,0.5-0.4,0.8-0.9,0.8c-0.5,0.1-0.9-0.1-1.1-0.5c-0.7-1.4-1.5-3.2-2.3-5.4c-0.8-2.2-1.6-4.2-2.3-6.1
		c-0.7-1.9-1.5-4-2.5-6.2c-1-2.3-1.9-4.3-2.9-6.1c-1-1.8-2.1-3.6-3.5-5.4s-2.8-3.2-4.3-4.4c-1.5-1.1-3.3-2-5.4-2.7
		c-2-0.6-4.2-0.9-6.6-0.8c-0.4,0-0.8-0.1-1-0.4c-0.2-0.3-0.3-0.6-0.2-1c0.1-0.3,0.4-0.5,0.8-0.6c3.1-0.7,7.7-1.7,13.9-3
		c6.2-1.3,10.9-2.3,14-3c-1.7-9.2-4.1-18.3-7.3-27c-0.1-0.4-0.1-0.7,0.2-1s0.6-0.4,0.9-0.4c0.4,0,0.6,0.2,0.8,0.6
		c3.2,9,5.6,18.1,7.3,27.5c1.8-0.4,4.6-1,8.3-1.8c3.7-0.8,6.4-1.4,8.3-1.8c0-0.2-0.1-0.5-0.2-1c-0.1-0.5-0.1-0.9-0.2-1.1
		c-0.2-1.3-0.5-3.6-1.1-6.9c-0.5-3.3-1-6.1-1.3-8.5C44.2,10,44,7.7,43.9,5.5c0-0.8,0-1.6,0.1-2.2c0.1-0.6,0.3-1.2,0.5-1.8
		c0.3-0.6,0.7-1,1.2-1.3C46.3,0,47-0.1,47.8,0.1c0.4,0,0.7,0.2,0.8,0.6c0.1,0.4,0.1,0.7-0.1,1C48.3,2,48,2.1,47.6,2.1
		c-0.4-0.1-0.7,0.2-0.9,0.8c-0.2,0.6-0.3,1.5-0.3,2.6c0,1.1,0,2.3,0.1,3.5c0,1.2,0.2,2.6,0.3,4.1c0.2,1.5,0.4,2.8,0.5,3.8
		c0.2,1,0.3,2.1,0.5,3.2c0.2,1.1,0.3,1.6,0.3,1.7c0.3,2.6,0.7,5.3,1.1,8L56.6,28.1z M31,74.7c0.9-12.9,0.2-25.8-1.9-38.6
		c-2.4,0.5-6,1.3-10.8,2.3c-4.8,1-8.4,1.8-10.8,2.3c1.7,0.4,3.3,1.1,4.8,2c1.5,0.9,2.8,1.9,4,3c1.1,1.1,2.3,2.4,3.4,4
		c1.1,1.6,2,3.1,2.8,4.5c0.8,1.4,1.6,3.1,2.5,5.1c0.9,1.9,1.6,3.7,2.1,5.1c0.6,1.5,1.2,3.2,2,5.3C29.8,71.8,30.5,73.5,31,74.7z"/>
	<path id="XMLID_6_" class="st0" d="M63.9,43.7c1.6,0.4,2.7,1.4,3.3,2.9c0.6,1.5,0.7,3,0.1,4.6c-0.5,1.5-1.3,2.8-2.3,4
		c-1,1.2-2.1,1.9-3.4,2c-1.3,0.1-2.2-0.4-2.8-1.4c-0.6-1-0.8-2.1-0.5-3.4c0.5-2.6,1.8-5.2,4.1-7.8c0.1-0.1,0.1-0.1,0.3-0.2
		C62.8,43.8,63.3,43.5,63.9,43.7z M60.6,54.8c0.6,0.6,1.6,0.2,2.9-1.1c1.5-1.5,2.2-3.1,2.3-4.8c0.1-1.4-0.5-2.5-1.8-3.1
		c-0.3,0.3-0.6,0.7-0.9,1.1c-0.3,0.4-0.6,0.9-1.1,1.5c-0.4,0.6-0.8,1.2-1,1.8c-0.3,0.6-0.5,1.2-0.8,1.8C60,52.6,60,53.1,60,53.6
		C60.1,54.1,60.3,54.5,60.6,54.8z"/>
	<path id="XMLID_9_" class="st0" d="M91,44.3c0.2-0.2,0.4-0.3,0.6-0.3c0.2,0,0.4,0.1,0.6,0.2c0.2,0.1,0.3,0.3,0.4,0.5
		c0.1,0.2,0.1,0.4,0.1,0.6c0,0.2-0.1,0.4-0.3,0.6c-2.4,1.9-5.1,2.8-8.1,2.7c-3-0.1-5.6-1.2-7.8-3.2c-1.2,1.4-2.2,3.1-3,5.1
		c-0.8,2-1.4,4.1-1.9,6.2c-0.1,0.4-0.3,0.7-0.6,0.8c-0.3,0.1-0.6,0.1-0.9-0.1c-0.3-0.2-0.5-0.5-0.5-1c0.1-4.5,1-9.8,2.6-15.6
		c0.1-0.4,0.3-0.6,0.7-0.6c0.4,0,0.7,0.1,1,0.4c0.3,0.3,0.3,0.6,0.3,1c-0.6,2-1.1,4-1.5,5.9c0.9-1.7,2-3.1,3.1-4.3
		c0.2-0.2,0.4-0.3,0.7-0.3c0.3,0,0.5,0.1,0.7,0.4c1.8,2,4.1,3.1,6.8,3.3C86.5,46.8,88.9,46,91,44.3z"/>
	<path id="XMLID_11_" class="st0" d="M91.6,43c0.2-0.4,0.4-0.6,0.8-0.6c0.4,0,0.7,0.1,0.9,0.3c0.3,0.3,0.3,0.6,0.2,1
		c-1.7,4.3-2.5,8.6-2.5,13c0,0.6-0.3,0.9-0.9,0.9c-0.6,0-1-0.3-1.1-0.8c0-0.1-0.1-0.2-0.1-0.3C89,52,89.9,47.5,91.6,43z M95,37.2
		c0.2,0.6,0.1,1-0.5,1.4l-3.5,2.1c-0.2,0.1-0.5,0.1-0.8,0c-0.3-0.1-0.5-0.3-0.5-0.5c-0.2-0.5-0.1-1,0.5-1.4l3.5-2.1
		c0.2-0.1,0.5-0.1,0.8,0C94.7,36.8,94.9,37,95,37.2z"/>
	<path id="XMLID_14_" class="st0" d="M113.9,50.2c0.3-0.2,0.6-0.2,0.9,0.1c0.3,0.2,0.4,0.5,0.4,0.9c0,0.4-0.2,0.7-0.5,0.9
		c-0.4,0.2-0.9,0.4-1.6,0.7c-0.6,0.3-1.4,0.6-2.3,1c-0.9,0.3-1.8,0.7-2.8,0.9c-1,0.3-2,0.5-3,0.8c-1,0.2-2,0.4-2.9,0.4
		c-0.9,0-1.7,0-2.5-0.1c-0.7-0.1-1.3-0.4-1.8-0.9c-0.4-0.5-0.7-1.1-0.8-1.9c0-0.5,0-1,0.2-1.5c0.1-0.5,0.3-1,0.5-1.4
		c0.2-0.4,0.5-0.9,0.9-1.4c0.4-0.6,0.7-1,0.9-1.3c0.2-0.3,0.6-0.7,1.1-1.3c0.5-0.6,0.8-0.9,0.9-1c0.1,0,0.1-0.1,0.2-0.3
		c0.3-0.3,0.5-0.5,0.6-0.7c0.2-0.2,0.4-0.5,0.7-0.8c0.3-0.4,0.5-0.7,0.6-0.9c0.1-0.2,0.3-0.5,0.4-0.9c0.1-0.3,0.2-0.6,0.1-0.8
		c-0.1-0.2-0.1-0.4-0.3-0.6c-0.1-0.2-0.4-0.4-0.7-0.5c-0.4-0.1-0.8-0.2-1.3-0.2c-1-0.1-2.1,0.1-3.3,0.6s-2.2,1-2.8,1.7
		c-0.3,0.3-0.6,0.4-1,0.3c-0.4-0.1-0.7-0.3-0.8-0.6c-0.1-0.3-0.1-0.6,0.1-1c0.6-0.6,1.5-1.2,2.8-1.8c1.3-0.6,2.6-1.1,4-1.4
		c1.4-0.3,2.6-0.3,3.7,0.2c1.1,0.4,1.7,1.3,1.8,2.6c0.1,1-0.1,2-0.6,3c-0.5,1-1.3,2.1-2.5,3.3c-1.1,1.2-1.8,2-2.1,2.4
		c0,0-0.1,0.1-0.2,0.2c-0.2,0.3-0.4,0.6-0.6,0.8c-0.1,0.2-0.3,0.5-0.5,0.9c-0.2,0.4-0.3,0.7-0.4,1c0,0.3,0,0.6,0.1,0.9
		c0.1,0.3,0.4,0.6,0.8,0.9c0.4,0.2,2,0.1,5-0.4C108.2,52.7,111,51.7,113.9,50.2z"/>
	<path id="XMLID_16_" class="st0" d="M119.1,43.7c1.6,0.4,2.7,1.4,3.3,2.9c0.6,1.5,0.7,3,0.1,4.6c-0.5,1.5-1.3,2.8-2.3,4
		c-1,1.2-2.1,1.9-3.4,2c-1.3,0.1-2.2-0.4-2.8-1.4c-0.6-1-0.8-2.1-0.5-3.4c0.5-2.6,1.8-5.2,4.1-7.8c0.1-0.1,0.1-0.1,0.3-0.2
		C118,43.8,118.5,43.5,119.1,43.7z M115.8,54.8c0.6,0.6,1.6,0.2,2.9-1.1c1.5-1.5,2.3-3.1,2.3-4.8c0.1-1.4-0.5-2.5-1.8-3.1
		c-0.3,0.3-0.6,0.7-0.9,1.1c-0.3,0.4-0.6,0.9-1.1,1.5c-0.4,0.6-0.8,1.2-1,1.8c-0.3,0.6-0.5,1.2-0.8,1.8c-0.2,0.6-0.3,1.1-0.2,1.6
		C115.3,54.1,115.5,54.5,115.8,54.8z"/>
	<path id="XMLID_19_" class="st0" d="M159.3,44.1c0.3-0.3,0.6-0.4,1-0.4c0.4,0.1,0.6,0.3,0.8,0.6c0.1,0.3,0.1,0.6-0.1,1
		c-0.8,1-1.8,2.1-2.9,3.2c-1.1,1.1-2.5,2.2-4,3.3c-1.5,1.1-3,1.9-4.5,2.5c-1.5,0.6-3,0.9-4.5,0.7c-1.5-0.1-2.9-0.8-4-2
		c-0.6-0.7-1.4-1.6-2.4-2.9c-1-1.3-1.8-2.2-2.2-2.8c-0.3-0.3-0.6-0.5-0.9-0.7c-0.3-0.2-0.5-0.3-0.7-0.4c-0.2-0.1-0.4-0.1-0.6,0
		c-0.2,0.1-0.4,0.2-0.6,0.3c-0.2,0.1-0.3,0.3-0.6,0.5c-0.2,0.3-0.4,0.5-0.5,0.6c-0.1,0.2-0.3,0.4-0.5,0.8c-0.3,0.4-0.5,0.6-0.6,0.8
		c-0.2,0.3-0.6,1.1-1.3,2.5c-0.7,1.4-1.5,2.6-2.2,3.6c-0.8,1-1.5,1.5-2.1,1.6c-0.4,0.1-0.7-0.1-1-0.4c-0.2-0.3-0.4-0.7-0.5-1.1
		c-0.1-0.4-0.2-0.9-0.1-1.4c0-0.5,0.1-1,0.1-1.3c0-0.3,0.1-0.8,0.3-1.5c0.1-0.7,0.2-1,0.3-1.1c0.2-1.3,0.6-3.1,1.1-5.4
		c0.6-2.4,0.9-3.8,1-4.2c0.1-0.4,0.3-0.6,0.7-0.8c0.4-0.1,0.7-0.1,1,0.1c0.3,0.2,0.4,0.5,0.3,0.9c-0.2,0.7-0.4,1.9-0.9,3.6
		c-0.4,1.7-0.7,3-0.9,3.9c-0.4,2-0.6,3.3-0.8,4.1c0,0.1,0,0.3,0,0.4c0.3-0.5,0.6-1,1-1.6c0.4-0.6,0.9-1.2,1.3-1.8
		c0.5-0.6,0.8-1.1,1-1.5c0.1-0.1,0.2-0.3,0.4-0.6c0.2-0.3,0.3-0.5,0.5-0.7c0.1-0.2,0.3-0.4,0.5-0.7c0.2-0.3,0.4-0.5,0.5-0.7
		c0.2-0.2,0.4-0.4,0.6-0.6c0.2-0.2,0.4-0.4,0.6-0.5c0.2-0.2,0.4-0.3,0.6-0.4c0.5-0.1,1-0.2,1.4-0.2s0.8,0.1,1.3,0.5
		c0.5,0.3,0.9,0.6,1.2,0.9c0.4,0.3,0.7,0.8,1.1,1.3c0.4,0.5,0.8,1,1.1,1.4c0.3,0.4,0.6,0.9,0.9,1.3c0.3,0.5,0.6,0.8,0.8,1.1
		c1.2,1.4,2.2,2.3,3.2,2.5c0.9,0.3,2.3,0.1,4-0.6C152.6,50.7,156.2,48,159.3,44.1z"/>
	<path id="XMLID_21_" class="st0" d="M239.7,48.1c0.6-0.4,1.1-0.3,1.5,0.3c0.4,0.5,0.3,1-0.2,1.3c-14.7,9.3-29.1,17.2-43.1,23.8
		c-4.4,2.1-8.6,3.5-12.6,4.2c-6,1.1-9-0.2-8.8-3.8c0.1-1,0.4-2.2,1-3.6c0.8-2.1,1.9-4.2,3.1-6.4c1.2-2.2,2.4-4.1,3.5-5.8
		c1.1-1.7,2.6-3.7,4.3-5.9c1.7-2.2,3.1-4,4.3-5.4c1.1-1.3,2.7-3.2,4.7-5.5s3.5-4.1,4.5-5.3c0.1-0.1,0.5-0.6,1.2-1.5
		c0.7-0.8,1.2-1.4,1.4-1.7c0.2-0.3,0.6-0.7,1.1-1.4c0.5-0.6,0.9-1.2,1.3-1.7c0.4-0.5,0.7-1,1-1.6c1.9-2.9,2.9-5.2,2.8-6.7
		c0-0.6-0.1-1.2-0.2-1.7c-0.1-0.5-0.3-0.9-0.5-1.3c-0.2-0.3-0.4-0.6-0.8-0.9c-0.3-0.3-0.6-0.4-0.9-0.6c-0.3-0.1-0.6-0.3-1.1-0.3
		s-0.8-0.1-1.1-0.1c-0.3,0-0.7,0-1.2,0.1c-0.5,0-0.9,0.1-1.2,0.1c-0.3,0-0.7,0.1-1.2,0.2c-0.5,0.1-0.9,0.1-1.1,0.2
		c-4,0.6-8,1.6-11.9,2.9c-1.9,0.6-3.8,1.4-5.8,2.3c-0.3,0.1-0.5,0.2-0.7,0.3c-0.2,0.1-0.6,0.3-1.1,0.5c-0.6,0.3-1,0.5-1.4,0.8
		c-0.4,0.3-0.8,0.5-1.3,0.9s-0.9,0.7-1.1,1c-0.2,0.3-0.4,0.7-0.5,1c-0.1,0.4-0.1,0.7,0.2,1.1c0.2,0.4,0.6,0.7,1.2,1
		c0.5,0.3,0.6,0.7,0.3,1.3c-0.4,0.5-0.9,0.7-1.5,0.4c-0.9-0.5-1.6-1.2-1.9-2c-0.3-0.8-0.3-1.6-0.1-2.3c0.3-0.8,0.7-1.5,1.3-2.2
		c0.6-0.7,1.2-1.3,1.9-1.8c5.3-3.3,12.6-5.7,22.1-7.1c0.8-0.1,1.3-0.2,1.5-0.3c0.2,0,0.7-0.1,1.4-0.2c0.7-0.1,1.3-0.1,1.6-0.1
		c0.3,0,0.8,0,1.5,0c0.7,0,1.1,0.1,1.5,0.2c0.3,0.1,0.8,0.3,1.3,0.4c0.5,0.2,0.9,0.4,1.2,0.7c0.3,0.3,0.6,0.7,0.8,1.1
		s0.5,0.9,0.7,1.5c0.2,0.7,0.3,1.4,0.4,2c0,0.7,0,1.4-0.2,2.1c-0.2,0.7-0.4,1.4-0.5,2c-0.2,0.6-0.5,1.3-1,2.1
		c-0.5,0.8-0.9,1.4-1.2,2c-0.3,0.5-0.8,1.2-1.4,2s-1.1,1.4-1.4,1.7c-0.3,0.4-0.8,0.9-1.4,1.7c-0.7,0.8-1.1,1.3-1.2,1.5
		c-1.1,1.4-2.8,3.4-5,6c-2.2,2.6-4.2,5-6,7.1c-1.7,2.1-3.3,4.2-4.8,6.1c-2.5,3.4-4.6,6.6-6.3,9.6c-0.1,0.2-0.4,0.6-0.9,1.4
		c-0.5,0.8-0.9,1.4-1.2,2c-0.3,0.6-0.7,1.2-1,2c-0.3,0.7-0.5,1.3-0.5,1.7c0,0.6,0.1,1.2,0.2,1.6c0.1,0.5,0.3,0.9,0.4,1.2
		c0.2,0.3,0.4,0.6,0.8,0.8c0.3,0.2,0.6,0.4,0.9,0.5c0.2,0.1,0.6,0.2,1.1,0.2c0.5,0,0.8,0,1.1,0c0.2,0,0.6,0,1.1-0.1
		c0.5-0.1,0.9-0.1,1-0.2c0.1,0,0.5-0.1,1-0.3c1.5-0.3,3.1-0.8,4.7-1.4c1.6-0.6,3.1-1.1,4.5-1.7c1.3-0.6,2.9-1.3,4.6-2.2
		c1.7-0.9,3.2-1.6,4.3-2.2c1.2-0.6,2.7-1.4,4.5-2.4s3.2-1.8,4.2-2.3C222.1,58.8,230.9,53.7,239.7,48.1z"/>
	<path id="XMLID_23_" class="st0" d="M260.6,44c0.3-0.3,0.6-0.4,1-0.2c0.3,0.1,0.5,0.4,0.6,0.8c0.1,0.3,0,0.7-0.3,1
		c-6.9,7-12.8,9.9-17.8,8.8c-1.8-0.4-3.1-1.2-4-2.3s-1.3-2.4-1.1-3.9c0.2-1.4,0.8-2.8,2-4.1c0.9-1,2.1-1.8,3.5-2.4
		c2.1-0.9,3.2-0.3,3.1,1.6c0,0,0,0.1,0,0.1c0,1.3-0.8,2.5-2.3,3.7c-1.5,1.2-2.9,1.6-4.2,1.1c-0.1,1.5,0.5,2.6,1.9,3.4
		c1.4,0.7,2.9,1,4.6,0.6c2.4-0.4,4.6-1.4,6.6-2.8C256.3,48,258.4,46.2,260.6,44z M244.7,43.7c-0.5,0-1,0.3-1.5,0.9
		c-0.5,0.5-1,1.1-1.4,1.8c0.7,0.3,1.5-0.1,2.5-1.2c0.7-0.8,0.8-1.2,0.5-1.4C244.9,43.7,244.8,43.7,244.7,43.7z"/>
	<path id="XMLID_26_" class="st0" d="M280.6,44.3c0.2-0.2,0.4-0.3,0.6-0.3c0.2,0,0.4,0.1,0.6,0.2c0.2,0.1,0.3,0.3,0.4,0.5
		c0.1,0.2,0.1,0.4,0.1,0.6c0,0.2-0.1,0.4-0.3,0.6c-2.4,1.9-5.1,2.8-8.1,2.7c-3-0.1-5.6-1.2-7.8-3.2c-1.2,1.4-2.2,3.1-3,5.1
		c-0.8,2-1.4,4.1-1.9,6.2c-0.1,0.4-0.3,0.7-0.6,0.8c-0.3,0.1-0.6,0.1-1-0.1c-0.3-0.2-0.4-0.5-0.4-1c0.1-4.5,1-9.8,2.6-15.6
		c0.1-0.4,0.3-0.6,0.7-0.6c0.4,0,0.7,0.1,1,0.4c0.3,0.3,0.3,0.6,0.3,1c-0.6,2-1,4-1.5,5.9c0.9-1.7,2-3.1,3.1-4.3
		c0.2-0.2,0.4-0.3,0.7-0.3c0.3,0,0.5,0.1,0.7,0.4c1.8,2,4.1,3.1,6.8,3.3C276.2,46.8,278.5,46,280.6,44.3z"/>
	<path id="XMLID_28_" class="st0" d="M282.3,43.7c1.6,0.4,2.7,1.4,3.3,2.9c0.6,1.5,0.7,3,0.1,4.6c-0.5,1.5-1.3,2.8-2.3,4
		c-1,1.2-2.1,1.9-3.4,2c-1.3,0.1-2.2-0.4-2.8-1.4c-0.6-1-0.8-2.1-0.5-3.4c0.5-2.6,1.8-5.2,4-7.8c0.1-0.1,0.2-0.1,0.3-0.2
		C281.2,43.8,281.7,43.5,282.3,43.7z M279,54.8c0.6,0.6,1.6,0.2,2.9-1.1c1.5-1.5,2.3-3.1,2.3-4.8c0.1-1.4-0.5-2.5-1.8-3.1
		c-0.3,0.3-0.5,0.7-0.9,1.1c-0.3,0.4-0.6,0.9-1,1.5c-0.4,0.6-0.8,1.2-1,1.8c-0.3,0.6-0.5,1.2-0.8,1.8c-0.2,0.6-0.3,1.1-0.2,1.6
		C278.5,54.1,278.7,54.5,279,54.8z"/>
	<path id="XMLID_31_" class="st0" d="M384.5,42.7c0.4,0,0.7,0.1,0.9,0.4c0.2,0.3,0.3,0.6,0.2,1c-0.1,0.4-0.4,0.5-0.8,0.6
		c-0.8,0-1.6,0.1-2.5,0.2c-0.9,0.1-1.9,0.1-2.9,0.2c-1,0.1-1.9,0.1-2.6,0.1c-6.3,7.8-13.6,14.6-22.1,20.2
		c-8.5,5.7-17.5,9.9-27.1,12.7c-10.5,3.1-16.5,2-17.8-3.3c-0.4-1.5-0.3-3.1,0.3-4.7c0.5-1.6,1.3-3.1,2.4-4.4c1-1.4,2.3-2.7,3.8-4.1
		s2.9-2.5,4.2-3.4c1.3-0.9,2.5-1.7,3.8-2.5c2.2-1.3,4.5-2.5,6.9-3.6c-0.5-11,0.1-21.8,1.8-32.6c0.1-0.4,0.3-0.7,0.7-0.8
		c0.4-0.1,0.7-0.1,1,0.1c0.3,0.2,0.4,0.5,0.3,0.9c-1.6,10.4-2.2,21-1.8,31.6c3.2-1.3,6.5-2.5,10-3.4c3.5-0.9,7.2-1.7,11-2.3
		c3.8-0.6,7.3-1.1,10.5-1.4c3.2-0.3,6.8-0.6,11.1-0.9c0-0.1,0.1-0.2,0.3-0.4s0.3-0.4,0.4-0.5c1.2-1.5,2.2-3,3.1-4.4
		c0.9-1.4,1.8-2.9,2.6-4.6c0.8-1.7,1.4-3.3,1.8-4.9c0.3-1.6,0.5-3.2,0.4-4.8c-0.1-1.6-0.5-3.2-1.3-4.8c-0.8-1.5-2-3-3.5-4.4
		c-1.8-1.6-3.9-2.9-6.2-4c-2.3-1.1-4.6-1.8-7-2.2c-2.3-0.4-4.8-0.7-7.4-0.9s-5-0.1-7.3,0c-2.6,0.1-5.2,0.4-7.7,0.7
		c-2.5,0.3-5.1,0.8-7.7,1.4c-2.7,0.6-5.2,1.4-7.5,2.3c-2.3,0.9-4.7,2-6.9,3.3c-2.3,1.3-4.3,2.8-6.1,4.5c-1.8,1.6-3.4,3.6-4.9,5.8
		c-1.4,2.2-2.5,4.6-3.3,7.3c-0.1,0.4-0.4,0.6-0.8,0.6c-0.4,0-0.7-0.1-1-0.4c-0.3-0.3-0.3-0.6-0.2-1c1.2-3.7,3-7.1,5.5-10.2
		c2.5-3.1,5.3-5.6,8.5-7.6c3.2-2,6.8-3.8,10.6-5.1c3.8-1.4,7.8-2.4,11.8-3c4.1-0.6,8-0.8,12-0.8c3.9,0,7.7,0.3,11.3,1
		c1.6,0.3,3.2,0.6,4.7,1.1c1.5,0.4,3.1,1,4.6,1.8c1.6,0.7,3,1.5,4.3,2.4c1.3,0.9,2.5,2,3.6,3.2c1.1,1.3,2,2.6,2.7,4.1
		c0.6,1.4,1,2.8,1.3,4.3c0.2,1.5,0.2,2.9-0.1,4.3c-0.3,1.4-0.6,2.8-1.1,4.1c-0.5,1.3-1.1,2.7-1.9,4.1c-0.8,1.4-1.6,2.7-2.3,3.8
		c-0.8,1.1-1.6,2.3-2.6,3.6c0.5,0,1.4-0.1,2.8-0.2C382.6,42.9,383.7,42.8,384.5,42.7z M337.4,72.6c7.1-3,13.7-6.8,19.9-11.4
		s11.8-9.9,16.7-15.8c-8.5,0.6-15.9,1.5-22.4,2.6c-6.5,1.1-12.6,2.9-18.4,5.4c0.2,3.6,0.5,7.1,0.9,10.5c0,0.4-0.1,0.7-0.4,0.9
		c-0.3,0.2-0.6,0.3-1,0.1c-0.4-0.1-0.6-0.4-0.6-0.8c-0.4-3.1-0.7-6.4-0.9-9.9c-13,6.2-19.2,12.5-18.8,19c0.1,1.5,0.5,2.6,1.2,3.3
		c0.7,0.6,1.8,1,3.3,1.2c1,0.1,2.2,0.1,3.5,0c1.1-0.1,2.6-0.5,4.7-1C329.3,75.7,333.4,74.3,337.4,72.6z"/>
	<path id="XMLID_34_" class="st0" d="M407.4,44.1c0.3-0.3,0.6-0.4,0.9-0.2c0.3,0.1,0.6,0.4,0.6,0.8c0.1,0.4,0,0.7-0.3,1
		c-0.6,0.6-1.4,1.3-2.4,2.1c-1,0.8-2.1,1.6-3.4,2.5c-1.3,0.9-2.6,1.6-3.9,2.1c-1.3,0.5-2.5,0.9-3.6,1.1c-1.2,0.2-2.2,0-3-0.5
		c-0.9-0.6-1.4-1.5-1.7-2.9c-0.3,0.2-0.6,0.5-1,0.8c-0.4,0.3-0.7,0.6-1,0.9c-0.3,0.3-0.7,0.5-1.1,0.8c-0.4,0.3-0.8,0.5-1.1,0.8
		c-0.3,0.2-0.7,0.4-1.1,0.6c-0.4,0.2-0.8,0.3-1.2,0.4c-0.4,0.1-0.8,0.1-1.2,0.1c-0.4,0-0.8,0-1.2-0.2c-0.8-0.2-1.4-0.6-1.8-1.2
		c-0.4-0.6-0.6-1.3-0.6-1.9c0-0.7,0.1-1.4,0.3-2.2c0.4-1.4,1.1-2.7,2.2-3.7c1.1-1,2.3-1.8,3.6-2.2c1.3-0.4,2.7-0.6,4.2-0.5
		c1.5,0.1,2.8,0.5,4.1,1.3c0.6,0.3,0.7,0.8,0.3,1.3c-0.4,0.5-0.9,0.6-1.4,0.3c-2.5-1.5-5.1-1.4-7.8,0.1c-0.5,0.3-1,0.7-1.5,1.1
		s-0.9,0.9-1.3,1.4c-0.4,0.6-0.6,1.1-0.6,1.6c0,0.5,0.2,1.1,0.7,1.6c0.5,0.5,1,0.8,1.6,0.8c0.6,0,1.2-0.2,1.9-0.6
		c0.6-0.4,1.2-0.8,1.8-1.3c0.6-0.5,1.2-1,1.9-1.5c0.7-0.6,1.2-1,1.6-1.3c0.3-0.2,0.7-0.2,1,0.1c0.3,0.3,0.5,0.6,0.5,0.9
		c0.1,3.7,2.6,4.1,7.5,1.2c2.7-1.6,5.1-3.4,7.2-5.4C407.3,44.2,407.4,44.1,407.4,44.1z"/>
	<path id="XMLID_36_" class="st0" d="M421.3,39.5c0.8,1.7,1.4,3.4,1.8,5.1c0.4,1.7,0.7,3.4,0.8,5.2c0.1,1.8-0.2,3.5-0.8,5.2
		c-0.6,1.7-1.6,3.2-3,4.5c-0.6,0.5-1.2,0.9-1.8,1.2c-0.6,0.2-1.2,0.3-1.9,0.1c-0.6-0.2-1.2-0.5-1.7-1.1c-0.5-0.6-1-1.9-1.5-3.8
		c0-0.2-0.1-0.4-0.2-0.8c-0.1-0.4-0.1-0.7-0.2-1.1c-0.1-0.4-0.1-0.8-0.2-1.1c-0.1-0.4-0.1-0.7-0.2-0.9c0-0.2-0.1-0.4-0.1-0.4
		l-0.5,0.9c-0.1,0.1-0.2,0.4-0.3,0.6c-1.9,4.5-3.4,7-4.6,7.3c-0.6,0.2-1.1-0.1-1.6-0.9c-0.4-0.6-0.6-1.5-0.6-2.6c0-1.2,0-2.1,0-2.6
		c0.1-0.6,0.2-1.5,0.4-2.8c0.6-4.2,1.9-7.3,4-9.3c0.3-0.3,0.6-0.4,1-0.2c0.4,0.1,0.6,0.4,0.6,0.8c0.1,0.4,0,0.7-0.3,1
		c-2,1.9-3.2,5.2-3.5,9.8c0,0.4,0,1.1,0,2s0,1.5,0,2v0.1v0.1c0.1-0.4,0.3-0.9,0.6-1.4s0.6-1,0.8-1.5c0.3-0.4,0.6-0.9,0.9-1.5
		c0.3-0.5,0.6-1,0.7-1.2c0,0,0.1-0.2,0.3-0.4s0.2-0.4,0.3-0.5c0.1-0.1,0.2-0.3,0.3-0.5c0.2-0.2,0.3-0.4,0.4-0.5
		c0.1-0.1,0.3-0.2,0.5-0.3c0.2-0.1,0.4-0.1,0.5-0.2c0.7,0,1.3,0.3,1.7,1.1c0.4,0.8,0.6,1.6,0.7,2.6c0.1,1,0.2,2,0.4,3
		c0.2,1,0.5,1.7,0.8,1.9c1.6,1.3,3.3,0.1,4.9-3.8c0.7-1.6,1-3.2,0.9-4.7c-0.1-2.6-0.9-5.7-2.5-9.2c-0.1-0.2-0.1-0.3-0.1-0.5
		s0-0.3,0.1-0.4c0.1-0.1,0.2-0.2,0.3-0.3c0.1-0.1,0.3-0.1,0.4-0.2c0.1,0,0.3,0,0.4,0c0.1,0,0.3,0.1,0.4,0.2
		C421.1,39.2,421.2,39.3,421.3,39.5z"/>
	<path id="XMLID_38_" class="st0" d="M460.2,44.1c0.3-0.3,0.6-0.4,1-0.4c0.4,0.1,0.7,0.3,0.8,0.6c0.1,0.3,0.1,0.6-0.1,1
		c-0.8,1-1.8,2.1-3,3.2c-1.1,1.1-2.5,2.2-4,3.3c-1.5,1.1-3,1.9-4.5,2.5c-1.5,0.6-3,0.9-4.5,0.7c-1.5-0.1-2.9-0.8-4-2
		c-0.6-0.7-1.4-1.6-2.4-2.9c-1-1.3-1.8-2.2-2.2-2.8c-0.3-0.3-0.6-0.5-0.8-0.7c-0.3-0.2-0.5-0.3-0.7-0.4c-0.2-0.1-0.4-0.1-0.6,0
		c-0.2,0.1-0.4,0.2-0.6,0.3c-0.2,0.1-0.3,0.3-0.6,0.5c-0.2,0.3-0.4,0.5-0.5,0.6c-0.1,0.2-0.3,0.4-0.5,0.8c-0.3,0.4-0.5,0.6-0.5,0.8
		c-0.2,0.3-0.6,1.1-1.3,2.5c-0.7,1.4-1.5,2.6-2.2,3.6c-0.8,1-1.5,1.5-2.1,1.6c-0.4,0.1-0.7-0.1-1-0.4c-0.2-0.3-0.4-0.7-0.5-1.1
		c-0.1-0.4-0.2-0.9-0.1-1.4s0.1-1,0.1-1.3c0-0.3,0.1-0.8,0.3-1.5c0.1-0.7,0.2-1,0.3-1.1c0.2-1.3,0.6-3.1,1.2-5.4
		c0.6-2.4,0.9-3.8,1-4.2c0.1-0.4,0.3-0.6,0.7-0.8c0.4-0.1,0.7-0.1,1,0.1c0.3,0.2,0.4,0.5,0.3,0.9c-0.2,0.7-0.5,1.9-0.9,3.6
		c-0.4,1.7-0.7,3-0.9,3.9c-0.4,2-0.7,3.3-0.8,4.1c0,0.1,0,0.3,0,0.4c0.3-0.5,0.6-1,1-1.6c0.4-0.6,0.9-1.2,1.3-1.8
		c0.5-0.6,0.8-1.1,1-1.5c0.1-0.1,0.2-0.3,0.4-0.6c0.2-0.3,0.3-0.5,0.5-0.7c0.1-0.2,0.3-0.4,0.5-0.7c0.2-0.3,0.4-0.5,0.5-0.7
		c0.2-0.2,0.3-0.4,0.5-0.6c0.2-0.2,0.4-0.4,0.6-0.5c0.2-0.2,0.4-0.3,0.6-0.4c0.5-0.1,1-0.2,1.4-0.2c0.4,0,0.8,0.1,1.3,0.5
		c0.5,0.3,0.9,0.6,1.2,0.9c0.3,0.3,0.7,0.8,1.2,1.3c0.4,0.5,0.8,1,1,1.4c0.3,0.4,0.6,0.9,0.9,1.3c0.3,0.5,0.6,0.8,0.8,1.1
		c1.2,1.4,2.2,2.3,3.2,2.5c0.9,0.3,2.3,0.1,4-0.6C453.5,50.7,457.1,48,460.2,44.1z"/>
</g>
</svg>
