<?xml version="1.0" encoding="utf-8"?>
<!-- Generator: Adobe Illustrator 19.0.0, SVG Export Plug-In . SVG Version: 6.00 Build 0)  -->
<svg version="1.1" id="Layer_1" xmlns="http://www.w3.org/2000/svg" xmlns:xlink="http://www.w3.org/1999/xlink" x="0px" y="0px"
	 viewBox="0 0 671.3 85.2" style="enable-background:new 0 0 671.3 85.2;" xml:space="preserve">
<style type="text/css">
	.st0{fill:#FFFFFF;}
</style>
<g id="XMLID_2_">
	<path id="XMLID_3_" class="st0" d="M83.8,47.5c0.4-0.2,0.7-0.1,1,0.1c0.3,0.3,0.4,0.6,0.4,0.9c0,0.4-0.2,0.6-0.6,0.8
		C77.9,52,71.4,55,65.1,58.2c3.4,1.7,5.2,3.9,5.2,6.4c0,1.2-0.3,2.4-1,3.7c-0.6,1.3-1.4,2.4-2.4,3.5c-1,1.1-2.1,2.1-3.4,3.2
		c-1.3,1.1-2.4,2-3.4,2.7c-1,0.7-2.1,1.4-3.1,2.1C49.6,84.3,43.6,86,39,84.9c-1.2-0.3-2.2-0.7-2.8-1.4c-0.6-0.7-1-1.4-1-2.3
		c0-0.9,0.1-1.8,0.4-2.7c0.3-0.9,0.7-1.9,1.3-2.9c0.5-1,1.2-1.9,1.9-2.8c0.7-0.9,1.5-1.7,2.5-2.5c0.9-0.8,1.8-1.5,2.6-2.2
		c0.8-0.6,1.8-1.3,3-2c1.2-0.7,2.2-1.3,2.9-1.8c0.8-0.5,1.8-1,3.2-1.7c1.3-0.7,2.3-1.3,2.9-1.6c1.2-0.7,2.7-1.6,4.4-2.5
		c-0.9-0.3-1.8-0.6-2.6-0.9c-0.9-0.3-1.9-0.5-2.9-0.8c-1-0.2-1.9-0.4-2.7-0.6c-0.8-0.2-1.8-0.3-3-0.5c-1.2-0.2-2.1-0.3-2.7-0.4
		s-1.6-0.2-3-0.4s-2.3-0.3-2.8-0.3c-0.4-0.1-1.4-0.2-3-0.3c-1.5-0.2-2.5-0.3-2.7-0.3c-3.4-0.4-5.8-0.6-7.1-0.8
		c-1.3-0.1-3.3-0.4-6.1-0.8c-2.8-0.4-5.2-0.9-7.3-1.4c-2.1-0.5-4.2-1.1-6.2-1.8c-6.2-2.2-8.8-5.4-7.9-9.7c0.1-0.5,0.3-1.1,0.6-1.6
		c0.3-0.6,0.6-1,0.8-1.4c0.2-0.4,0.6-0.8,1.2-1.4c0.6-0.6,1-1,1.2-1.1c0.2-0.2,0.7-0.6,1.4-1.2c0.8-0.6,1.2-1,1.3-1
		c3.3-2.9,6.9-5.5,10.6-7.9c7.4-4.7,15.2-8.2,23.5-10.6c0.2-0.1,0.7-0.3,1.5-0.5c0.8-0.2,1.4-0.4,1.8-0.5c0.5-0.1,1.1-0.3,1.9-0.5
		c0.8-0.2,1.5-0.4,2.1-0.4c0.6-0.1,1.3-0.1,2-0.2c0.8,0,1.4,0,2,0.1c0.6,0.1,1.1,0.3,1.7,0.5c0.6,0.2,1.1,0.5,1.5,1
		c0.5,0.4,0.8,0.9,1.1,1.5c0.2,0.6,0.4,1.2,0.4,1.8c0,0.6-0.2,1.2-0.6,1.9c-0.4,0.7-0.8,1.3-1.2,1.8c-0.4,0.5-0.9,1.1-1.5,1.6
		c-0.6,0.6-1.1,1-1.6,1.4c-0.5,0.4-1,0.7-1.5,1.1c-0.3,0.2-0.7,0.3-1,0.1c-0.4-0.2-0.6-0.4-0.6-0.8c0-0.3,0.1-0.6,0.4-0.9
		c2.5-1.7,4-3.3,4.6-4.5c0.4-1,0.5-1.8,0.3-2.5c-0.2-0.7-0.7-1.1-1.4-1.4c-0.7-0.2-1.5-0.4-2.4-0.5c-0.9-0.1-1.8,0-2.6,0.2
		c-4.1,0.6-9.3,2.2-15.5,4.8C21.5,22.8,12.4,28.7,4.9,36c-5.2,5-3.2,9,5.9,12c4.1,1.3,9.8,2.5,17.3,3.4c1.5,0.2,3.8,0.4,6.8,0.7
		c3,0.3,5.4,0.6,7.3,0.8c1.8,0.2,4,0.5,6.6,0.9c2.6,0.4,4.9,0.9,7,1.4c3.4,0.8,5.8,1.5,7,1.9C69.5,53.6,76.5,50.4,83.8,47.5z
		 M63.3,59.7c-0.1,0-0.2-0.1-0.3-0.1c-0.1-0.1-0.2-0.1-0.3-0.1c-3.2,1.7-6.3,3.5-9.2,5.2c-0.4,0.3-1.4,0.8-2.8,1.6
		c-1.5,0.8-2.5,1.5-3.3,1.9c-0.7,0.5-1.7,1.1-2.8,1.9c-1.1,0.8-2.1,1.6-2.9,2.4c-0.8,0.8-1.5,1.6-2.1,2.5c-0.5,0.8-1,1.6-1.3,2.4
		c-0.3,0.8-0.6,1.5-0.7,2.4c-0.1,0.8,0.1,1.5,0.5,2.1c0.5,0.6,1.3,1,2.3,1.3c0.2,0.1,0.5,0.1,0.8,0.1c0.3,0,0.6,0,0.9,0
		c0.3,0,0.6,0,1-0.1c0.4-0.1,0.7-0.1,0.9-0.2c0.2,0,0.5-0.1,1-0.3c0.4-0.1,0.7-0.2,0.9-0.3c0.1,0,0.4-0.1,0.9-0.3
		c0.5-0.1,0.7-0.2,0.8-0.2c2.6-0.8,5.8-2.6,9.8-5.2c5.8-3.9,9.1-7.4,10-10.5C68.2,63.4,66.8,61.3,63.3,59.7z"/>
	<path id="XMLID_6_" class="st0" d="M119.3,31.2c0.4,0,0.7,0.1,0.9,0.4c0.2,0.3,0.3,0.6,0.2,1c-0.1,0.4-0.4,0.6-0.8,0.6
		c-9.3,1.1-18.9,2.5-28.8,4.2c-3.2,13.6-5.2,27.4-6,41.4c0,0.4-0.2,0.7-0.6,0.8c-0.4,0.1-0.7,0.1-1-0.1c-0.3-0.2-0.5-0.5-0.5-0.9
		c0.8-13.8,2.7-27.4,5.9-40.8c-5,0.9-9.5,1.7-13.5,2.4c-0.2,0-0.4,0-0.6-0.1c-0.2-0.1-0.3-0.2-0.4-0.4c-0.1-0.2-0.1-0.4-0.1-0.6
		s0.1-0.4,0.2-0.5c0.1-0.2,0.3-0.3,0.6-0.4c4.1-0.8,8.9-1.6,14.4-2.6c0.9-3.9,1.9-7.5,2.9-10.8c0.1-0.4,0.4-0.6,0.7-0.6
		c0.4,0,0.7,0.1,0.9,0.4c0.3,0.3,0.4,0.6,0.3,1c-0.8,2.8-1.7,6-2.6,9.7C101,33.7,110.3,32.3,119.3,31.2z"/>
	<path id="XMLID_8_" class="st0" d="M120.2,45.8c0.3-0.3,0.6-0.4,0.9-0.2c0.3,0.1,0.6,0.4,0.6,0.8c0.1,0.4,0,0.7-0.3,1
		c-0.6,0.6-1.4,1.3-2.4,2.1c-1,0.8-2.1,1.6-3.4,2.5c-1.3,0.9-2.6,1.6-3.9,2.1c-1.3,0.5-2.5,0.9-3.6,1.1c-1.2,0.2-2.2,0-3-0.5
		c-0.9-0.6-1.4-1.5-1.7-2.9c-0.3,0.2-0.6,0.5-1,0.8c-0.4,0.3-0.7,0.6-1,0.9c-0.3,0.3-0.6,0.5-1,0.8c-0.4,0.3-0.8,0.5-1.1,0.8
		c-0.3,0.2-0.7,0.4-1.1,0.6c-0.4,0.2-0.8,0.3-1.2,0.4c-0.4,0.1-0.8,0.1-1.2,0.1c-0.4,0-0.8,0-1.2-0.2c-0.8-0.2-1.4-0.6-1.8-1.2
		s-0.6-1.3-0.6-1.9c0-0.7,0.1-1.4,0.3-2.2c0.4-1.4,1.1-2.7,2.2-3.7c1.1-1,2.3-1.8,3.6-2.2c1.3-0.4,2.7-0.6,4.2-0.5
		c1.5,0.1,2.8,0.5,4.1,1.3c0.6,0.3,0.7,0.8,0.3,1.3c-0.4,0.5-0.9,0.6-1.4,0.3c-2.5-1.5-5.1-1.4-7.8,0.1c-0.5,0.3-1,0.7-1.5,1.1
		c-0.4,0.4-0.9,0.9-1.3,1.4c-0.4,0.6-0.6,1.1-0.6,1.6c0,0.5,0.2,1.1,0.7,1.6c0.5,0.5,1,0.8,1.6,0.8s1.2-0.2,1.9-0.6
		c0.6-0.4,1.2-0.8,1.8-1.3c0.6-0.5,1.2-1,1.9-1.5c0.7-0.6,1.2-1,1.6-1.3c0.3-0.2,0.7-0.2,1,0.1c0.3,0.3,0.5,0.6,0.5,0.9
		c0.1,3.7,2.6,4.1,7.5,1.2c2.7-1.6,5.1-3.4,7.2-5.4C120,45.9,120.1,45.8,120.2,45.8z"/>
	<path id="XMLID_10_" class="st0" d="M140.5,46c0.2-0.2,0.4-0.3,0.6-0.3c0.2,0,0.4,0.1,0.6,0.2c0.2,0.1,0.3,0.3,0.4,0.5
		c0.1,0.2,0.1,0.4,0.1,0.6c0,0.2-0.2,0.4-0.4,0.6c-2.4,1.9-5.1,2.8-8.1,2.7c-3-0.1-5.6-1.2-7.8-3.2c-1.2,1.4-2.2,3.1-3,5.1
		c-0.8,2-1.4,4.1-1.9,6.2c-0.1,0.4-0.3,0.7-0.6,0.8c-0.3,0.1-0.6,0.1-0.9-0.1c-0.3-0.2-0.5-0.5-0.5-1c0.1-4.5,1-9.8,2.6-15.6
		c0.1-0.4,0.3-0.6,0.7-0.6c0.4,0,0.7,0.1,1,0.4c0.3,0.3,0.3,0.6,0.3,1c-0.6,2-1.1,4-1.5,5.9c0.9-1.7,2-3.1,3.1-4.3
		c0.2-0.2,0.4-0.3,0.7-0.3c0.3,0,0.5,0.1,0.7,0.4c1.8,2,4.1,3.1,6.8,3.3C136,48.4,138.4,47.7,140.5,46z"/>
	<path id="XMLID_12_" class="st0" d="M204.7,41.9c0.3,2.3,0.5,4.5,0.7,6.6c0.2,2,0.3,4.3,0.3,6.7c0,2.4,0,4.7-0.3,6.8
		c-0.2,2.1-0.6,4.3-1.1,6.6c-0.5,2.3-1.2,4.3-2,6.3c-0.5,1.2-1.2,2.3-2,3.4c-0.8,1.1-1.7,2-2.8,2.9c-1.1,0.9-2.2,1.5-3.4,1.7
		c-1.2,0.2-2.5,0.1-3.9-0.5c-0.9-0.4-1.7-0.9-2.4-1.5c-0.7-0.7-1.3-1.5-1.9-2.5c-0.5-1-1-1.9-1.3-2.7c-0.4-0.8-0.7-1.9-1.1-3.2
		c-0.3-1.3-0.6-2.3-0.7-3c-0.2-0.7-0.3-1.7-0.6-2.9c-0.1-0.4-0.1-0.6-0.2-0.8c-0.4-1.9-0.8-3.9-1.1-6.2c-0.3-2.3-0.6-4.3-0.8-6
		c-0.2-1.8-0.4-3.9-0.7-6.4c-0.3-2.5-0.5-4.5-0.7-6.1c-0.2-1.7-0.4-2.9-0.6-3.8v-0.1c-0.2,0.3-0.4,0.6-0.4,0.9
		c-0.3,0.8-0.6,1.6-0.9,2.5c-0.3,0.9-0.7,1.8-1,2.5s-0.7,1.6-1,2.5c-0.4,1-0.7,1.8-0.9,2.5c-0.4,1.2-1,3.1-1.8,5.7
		c-0.8,2.6-1.5,4.7-2,6.3c-0.5,1.6-1.3,3.4-2.2,5.6c-1,2.1-2,3.9-3,5.5c-1.5,2-2.9,2.7-4.3,2.3c-1.4-0.5-2.5-1.8-3.2-4.1
		c-0.5-1.6-0.8-3.3-1-5.2c-0.2-1.9-0.3-3.7-0.2-5.3c0-1.7,0.2-3.6,0.5-5.6c0.3-2.1,0.5-3.9,0.8-5.4c0.3-1.5,0.7-3.2,1.1-5.1
		c1.2-5.3,2.7-10.1,4.5-14.4c1.8-4.3,4.2-8,7.2-11c0.5-0.5,0.9-0.5,1.3,0c0.5,0.5,0.5,1,0,1.5c-6,6.1-10,16.3-12.3,30.5
		c-0.5,2.9-0.7,6.7-0.7,11.4c0,7.6,1,11.2,3,10.9c0.1,0,0.3,0,0.5-0.1c0.5-0.2,1.1-0.8,1.6-1.6c0.5-0.8,0.9-1.6,1.2-2.3
		c0.3-0.7,0.6-1.7,1-2.8c0.4-1.2,0.7-1.9,0.7-2.1c0.9-2.3,2.2-6,3.9-11c1.8-5.5,3-8.9,3.5-10.3c0.1-0.2,0.2-0.7,0.5-1.4
		c0.3-0.7,0.5-1.3,0.6-1.7c0.2-0.4,0.4-0.9,0.7-1.5c0.3-0.5,0.6-0.9,1-1.2c0.4-0.4,0.8-0.7,1.2-0.8c0.4-0.1,0.7-0.1,0.9,0.1
		c0.3,0.2,0.5,0.4,0.6,0.6c0.2,0.2,0.3,0.6,0.5,1c0.1,0.5,0.2,0.9,0.3,1.2c0.1,0.3,0.1,0.7,0.2,1.2c0.4,2.4,0.8,5.9,1.2,10.6
		c0.5,4.6,0.8,8,1.2,10.3c0.1,0.3,0.2,1.2,0.4,2.6c0.2,1.4,0.3,2.5,0.5,3.1c0.1,0.6,0.3,1.6,0.5,3c0.3,1.3,0.5,2.4,0.8,3.2
		c0.3,0.8,0.6,1.7,1,2.8c0.4,1,0.9,1.9,1.4,2.8c0.5,0.8,1.1,1.5,1.8,2.1c1.1,1,2.1,1.5,3.2,1.7c1,0.1,2-0.1,2.8-0.7
		c0.9-0.6,1.7-1.4,2.4-2.4c0.8-1,1.4-2.1,2-3.3c0.6-1.2,1-2.4,1.4-3.4c0.4-1,0.7-2,0.9-2.9c2.1-9.9,2.1-20.5,0-31.7
		c-2.1-11.2-5.8-21.1-11.2-29.6c-0.4-0.6-0.3-1.1,0.3-1.5c0.5-0.4,1-0.3,1.3,0.2C198.9,15.7,202.9,27.7,204.7,41.9z"/>
	<path id="XMLID_14_" class="st0" d="M236.4,45.8c0.3-0.3,0.6-0.4,0.9-0.2c0.3,0.1,0.6,0.4,0.6,0.8c0.1,0.4,0,0.7-0.3,1
		c-0.6,0.6-1.4,1.3-2.4,2.1c-1,0.8-2.1,1.6-3.4,2.5c-1.3,0.9-2.6,1.6-3.9,2.1c-1.3,0.5-2.5,0.9-3.6,1.1c-1.2,0.2-2.2,0-3-0.5
		c-0.9-0.6-1.4-1.5-1.7-2.9c-0.3,0.2-0.6,0.5-1,0.8c-0.4,0.3-0.7,0.6-1,0.9c-0.3,0.3-0.7,0.5-1.1,0.8c-0.4,0.3-0.8,0.5-1.1,0.8
		c-0.3,0.2-0.7,0.4-1.1,0.6c-0.4,0.2-0.8,0.3-1.2,0.4c-0.4,0.1-0.8,0.1-1.2,0.1c-0.4,0-0.8,0-1.2-0.2c-0.8-0.2-1.4-0.6-1.8-1.2
		c-0.4-0.6-0.6-1.3-0.6-1.9c0-0.7,0.1-1.4,0.3-2.2c0.4-1.4,1.1-2.7,2.2-3.7c1.1-1,2.3-1.8,3.6-2.2c1.3-0.4,2.7-0.6,4.2-0.5
		c1.5,0.1,2.8,0.5,4.1,1.3c0.6,0.3,0.7,0.8,0.3,1.3c-0.4,0.5-0.9,0.6-1.4,0.3c-2.5-1.5-5.1-1.4-7.8,0.1c-0.5,0.3-1,0.7-1.5,1.1
		s-0.9,0.9-1.3,1.4c-0.4,0.6-0.6,1.1-0.6,1.6c0,0.5,0.2,1.1,0.7,1.6c0.5,0.5,1,0.8,1.6,0.8c0.6,0,1.2-0.2,1.9-0.6
		c0.6-0.4,1.2-0.8,1.8-1.3c0.6-0.5,1.2-1,1.9-1.5c0.7-0.6,1.2-1,1.6-1.3c0.3-0.2,0.7-0.2,1,0.1c0.3,0.3,0.5,0.6,0.5,0.9
		c0.1,3.7,2.6,4.1,7.5,1.2c2.7-1.6,5.1-3.4,7.2-5.4C236.2,45.9,236.3,45.8,236.4,45.8z"/>
	<path id="XMLID_16_" class="st0" d="M256.7,46c0.2-0.2,0.4-0.3,0.6-0.3c0.2,0,0.4,0.1,0.6,0.2c0.2,0.1,0.3,0.3,0.4,0.5
		c0.1,0.2,0.1,0.4,0.1,0.6c0,0.2-0.1,0.4-0.3,0.6c-2.4,1.9-5.1,2.8-8.1,2.7c-3-0.1-5.6-1.2-7.8-3.2c-1.2,1.4-2.2,3.1-3,5.1
		c-0.8,2-1.4,4.1-1.9,6.2c-0.1,0.4-0.3,0.7-0.6,0.8c-0.3,0.1-0.6,0.1-1-0.1c-0.3-0.2-0.4-0.5-0.4-1c0.1-4.5,1-9.8,2.6-15.6
		c0.1-0.4,0.3-0.6,0.7-0.6c0.4,0,0.7,0.1,1,0.4c0.3,0.3,0.3,0.6,0.3,1c-0.6,2-1,4-1.5,5.9c0.9-1.7,2-3.1,3.1-4.3
		c0.2-0.2,0.4-0.3,0.7-0.3c0.3,0,0.5,0.1,0.7,0.4c1.8,2,4.1,3.1,6.8,3.3C252.2,48.4,254.6,47.7,256.7,46z"/>
	<path id="XMLID_18_" class="st0" d="M272,45.9c0.3-0.2,0.7-0.3,1-0.1c0.4,0.2,0.6,0.4,0.6,0.8c0.1,0.3-0.1,0.6-0.4,0.9
		c-2.4,1.7-4.6,3.4-6.6,4.9c0.9,0.6,1.6,1.1,2.2,1.7c0.6,0.5,1.1,1.2,1.5,1.9c0.5,0.7,0.6,1.5,0.5,2.3c-0.1,0.8-0.5,1.7-1.3,2.5
		c-0.7,0.8-1.6,1.6-2.8,2.3c-1.1,0.7-2.3,1.3-3.6,1.6c-1.3,0.4-2.4,0.4-3.6-0.1c-1.1-0.4-2-1.3-2.5-2.6c-0.8-2.1,0.4-4.5,3.4-7.3
		c0.7-0.6,1.6-1.4,2.5-2.1c-0.1,0-0.5-0.3-1.3-0.7c-0.8-0.4-1.3-0.7-1.6-0.9c-0.3-0.2-0.7-0.4-1.3-0.9c-0.6-0.4-1-0.8-1.4-1.1
		c-0.3-0.4-0.6-0.8-0.9-1.2c-1-1.8-0.5-3.8,1.7-6.1c1.9-1.9,4-3.2,6.5-3.8c2.7-0.6,4.3,0,5,1.8c0.1,0.3,0.2,0.6,0.3,1
		c0,0.4-0.1,0.7-0.4,0.9s-0.6,0.3-1,0.1c-0.4-0.1-0.6-0.4-0.6-0.8c-0.3-1.8-2-1.8-5,0c-1.4,0.8-2.4,1.5-3.1,2.3
		c-0.6,0.6-1,1.1-1.3,1.5c-0.3,0.4-0.3,0.9-0.2,1.4c0.1,0.5,0.5,1.1,1.1,1.6c0.3,0.3,0.6,0.5,1,0.8c0.4,0.3,0.7,0.5,1,0.7
		c0.3,0.2,0.7,0.4,1.3,0.7c0.6,0.3,0.9,0.5,1.1,0.6c0.1,0,0.2,0.1,0.4,0.2c0.2,0.1,0.3,0.2,0.4,0.2C267,49.5,269.4,47.7,272,45.9z
		 M267.5,60c0.4-0.5,0.8-0.9,1-1.4c0.2-0.4,0.3-0.8,0.2-1.2c-0.1-0.4-0.2-0.7-0.4-1.1c-0.2-0.3-0.5-0.7-0.9-1
		c-0.4-0.3-0.8-0.6-1.1-0.9s-0.8-0.5-1.3-0.8c-0.9,0.8-1.8,1.5-2.5,2.1c-0.1,0.1-0.4,0.3-0.7,0.6c-0.3,0.3-0.6,0.5-0.8,0.6
		c-0.2,0.2-0.4,0.4-0.6,0.7c-0.2,0.3-0.4,0.6-0.5,0.8c-0.7,1.6-0.7,2.8,0.2,3.5c0.9,0.7,2.1,0.9,3.6,0.5
		C264.9,62.2,266.1,61.4,267.5,60z"/>
	<path id="XMLID_21_" class="st0" d="M276,36.7c0.6,0,1,0.3,1.3,0.8s0.3,1,0.2,1.6c-0.1,0.2-0.2,0.4-0.5,0.5c-0.3,0.1-0.5,0.1-0.8,0
		c-0.1,0-0.3-0.1-0.3-0.2c-0.2,0.1-0.3,0.2-0.5,0.3c-0.3,0-0.5,0-0.7-0.2c-0.2-0.2-0.4-0.4-0.4-0.6c-0.1-0.5,0-1,0.4-1.5
		C275,36.9,275.5,36.7,276,36.7z M275.6,44.9c0.1-0.2,0.3-0.4,0.6-0.4c0.3,0,0.6,0,0.8,0.2c0.5,0.3,0.6,0.8,0.3,1.4
		c-0.4,0.7-1,1-1.8,1c-0.3,0-0.6,0-0.8-0.2c-0.2-0.1-0.3-0.4-0.4-0.7c0-0.2,0-0.3,0-0.5c0.1-0.2,0.2-0.3,0.3-0.4
		c0.1-0.1,0.3-0.2,0.5-0.2C275.4,45.1,275.5,45.1,275.6,44.9z"/>
	<path id="XMLID_24_" class="st0" d="M335.3,43.6c0.4-0.1,0.7,0.1,0.9,0.4c0.2,0.3,0.3,0.7,0.2,1c-0.1,0.4-0.4,0.6-0.8,0.6
		c-1,0.1-2.2,0.3-3.5,0.6c-1.7,5.9-4.4,11.4-8.1,16.4s-8.2,9.2-13.4,12.5c-1.1,0.7-1.9,1.2-2.5,1.6c-0.6,0.4-1.6,0.9-2.9,1.6
		c-1.3,0.7-2.4,1.3-3.4,1.6c-1,0.4-2.1,0.7-3.3,1.1c-1.2,0.4-2.3,0.5-3.4,0.4c-1.1,0-2-0.3-2.9-0.7c-1.3-0.6-2.2-1.5-2.7-2.6
		c-0.5-1.1-0.5-2.3-0.2-3.6c0.3-1.3,0.8-2.5,1.3-3.6c0.5-1.1,1.2-2.2,2-3.1c4.6-6,10.2-11,16.8-15c6.6-4,13.7-6.8,21.2-8.4
		c0.8-2.9,1.3-5.7,1.6-8.6c0.3-2.9,0.3-5.8,0.1-8.8s-0.8-5.8-1.6-8.5c-0.8-2.6-2.1-5.1-3.8-7.4c-1.7-2.3-3.7-4.2-6.1-5.7
		c-1.8-1.1-3.7-2-5.8-2.6c-2.1-0.6-4.2-0.9-6.3-0.9c-2.1,0-4.2,0.4-6.2,1.1c-2,0.7-3.9,1.8-5.5,3.1c-3.2,2.7-5.3,6.1-6.3,10.3
		c-1,4.1-0.7,8.1,1,11.9c0.2,0.4,0.1,0.7-0.1,1s-0.5,0.4-0.9,0.4c-0.4,0-0.6-0.2-0.8-0.6c-1-2.4-1.6-4.8-1.7-7.3
		c-0.1-2.5,0.2-4.8,0.9-7c0.7-2.2,1.8-4.3,3.2-6.2s3.1-3.6,5-4.9c1.9-1.3,4-2.3,6.4-3c2.4-0.7,4.9-0.9,7.4-0.7
		c3.2,0.3,6.2,1.1,8.8,2.5c2.6,1.4,4.9,3.2,6.6,5.3c1.8,2.1,3.3,4.5,4.5,7.3c1.2,2.7,2.1,5.6,2.6,8.5c0.5,2.9,0.8,5.9,0.7,8.9
		c-0.1,3.8-0.6,7.6-1.5,11.5C333.7,43.9,334.6,43.7,335.3,43.6z M327.4,53.2c1-2,1.8-4.2,2.6-6.5c-7.3,1.6-14.2,4.4-20.6,8.4
		c-6.4,3.9-11.6,8.8-15.6,14.6c-1.7,2.4-2.5,4.2-2.5,5.5c0,0.9,0.1,1.7,0.4,2.3c0.3,0.6,0.7,1.1,1.1,1.4c0.4,0.3,0.9,0.5,1.6,0.5
		c0.7,0.1,1.2,0.1,1.8,0c0.5-0.1,1.2-0.2,2-0.4c0.8-0.2,1.3-0.4,1.7-0.6c0.4-0.1,0.8-0.3,1.4-0.6c0.1,0,0.2-0.1,0.3-0.1
		c3.7-1.5,7.2-3.4,10.5-5.8C318.7,66.9,323.8,60.7,327.4,53.2z"/>
	<path id="XMLID_27_" class="st0" d="M356.6,45.6c0.3-0.3,0.6-0.4,1-0.2c0.3,0.1,0.5,0.4,0.6,0.8c0.1,0.3,0,0.7-0.3,1
		c-6.9,7-12.8,9.9-17.8,8.8c-1.8-0.4-3.1-1.2-4-2.3s-1.3-2.4-1.1-3.9c0.2-1.4,0.8-2.8,2-4.1c0.9-1,2.1-1.8,3.5-2.4
		c2.1-0.9,3.2-0.3,3.1,1.6c0,0,0,0.1,0,0.1c0,1.3-0.8,2.5-2.3,3.7c-1.5,1.2-2.9,1.6-4.2,1.1c-0.1,1.5,0.5,2.6,1.9,3.4
		c1.4,0.7,2.9,1,4.6,0.6c2.4-0.4,4.6-1.4,6.6-2.8C352.4,49.7,354.5,47.9,356.6,45.6z M340.8,45.3c-0.5,0-1,0.3-1.5,0.9
		c-0.5,0.5-1,1.1-1.4,1.8c0.7,0.3,1.5-0.1,2.5-1.2c0.7-0.8,0.8-1.2,0.5-1.4C340.9,45.3,340.8,45.3,340.8,45.3z"/>
	<path id="XMLID_30_" class="st0" d="M368.7,27.6c-0.4,3.3-0.7,5.9-0.9,7.9c-0.2,1.9-0.4,4.4-0.6,7.5c-0.2,3.1-0.2,5.7-0.1,7.9
		c0.1,2.2,0.4,4.7,0.8,7.3c0.4,2.7,1,5.2,1.8,7.5c0.1,0.4,0.1,0.7-0.2,1s-0.6,0.4-0.9,0.4c-0.4,0-0.6-0.2-0.8-0.6
		c-2.2-6.4-3.1-14.1-2.7-23.2c-1.9,5.6-4.5,10.1-7.8,13.5c-0.6,0.6-1.2,1.1-1.9,1.5c-0.7,0.4-1.4,0.7-2.1,0.8
		c-0.7,0.1-1.2-0.1-1.7-0.6s-0.7-1.3-0.8-2.4c0-2.2,0.7-4.4,2.2-6.7c1.5-2.3,3.3-3.8,5.3-4.6c0.6-0.2,1,0,1.3,0.5
		c0.3,0.6,0.1,1-0.5,1.3c-2.2,0.8-4,2.7-5.3,5.8c-1.1,2.5-1.3,3.9-0.5,4.1c0.5,0.1,1.3-0.3,2.5-1.3c2.5-2.1,4.6-5.8,6.5-11.3
		c2.4-7,4.2-16.1,5.3-27.3c0-0.4,0.2-0.7,0.6-0.8c0.3-0.1,0.7-0.1,1,0.1c0.3,0.2,0.5,0.5,0.4,0.9c-0.1,1-0.2,2.2-0.3,3.5
		C369.3,23.3,369,25.6,368.7,27.6z"/>
	<path id="XMLID_32_" class="st0" d="M372.3,44.6c0.2-0.4,0.4-0.6,0.8-0.6c0.4,0,0.7,0.1,0.9,0.3c0.3,0.3,0.3,0.6,0.2,1
		c-1.7,4.3-2.5,8.6-2.4,13c0,0.6-0.3,0.9-0.9,0.9c-0.6,0-1-0.3-1.1-0.8c0-0.1,0-0.2,0-0.3C369.7,53.6,370.6,49.1,372.3,44.6z
		 M375.7,38.9c0.2,0.6,0.1,1-0.5,1.4l-3.5,2.1c-0.2,0.1-0.5,0.1-0.8,0c-0.3-0.1-0.5-0.3-0.5-0.5c-0.2-0.5-0.1-1,0.5-1.4l3.5-2.1
		c0.2-0.1,0.5-0.1,0.8,0C375.4,38.5,375.6,38.7,375.7,38.9z"/>
	<path id="XMLID_35_" class="st0" d="M463.1,0.9c0.4-0.1,0.7,0,0.9,0.3c0.2,0.3,0.3,0.6,0.1,1c-0.1,0.4-0.4,0.6-0.7,0.7
		C442.2,8,420.7,12.2,399,15.2c2,1.7,3.8,3.9,5.5,6.7c1.7,2.8,3,5.4,4,7.9c1.3,3.2,2.3,6.6,3.1,10.3c0.1,0,0.1,0,0.2,0
		c0.1,0,0.1-0.1,0.2-0.1c0.1,0,0.2,0,0.2,0c-0.1-8-0.3-15.4-0.7-22.4c0-0.4,0.2-0.7,0.5-0.9c0.3-0.2,0.6-0.3,1-0.2
		c0.3,0.1,0.5,0.4,0.5,0.8c0.3,6.7,0.5,14,0.6,21.9c7.5-2.7,15.1-4.9,22.8-6.6c0.4-0.1,0.7,0,0.9,0.3c0.2,0.3,0.3,0.6,0.2,1
		c-0.1,0.4-0.4,0.6-0.8,0.7c-7.8,1.6-15.5,3.9-23.1,6.7c0.1,9.9,0.1,19.5,0,28.7c0,0.2,0,0.3-0.1,0.4c-0.1,0.1-0.2,0.2-0.3,0.3
		c-0.1,0.1-0.2,0.1-0.4,0.1c-0.1,0-0.3,0-0.4,0c-0.1,0-0.3-0.1-0.4-0.1c-0.1-0.1-0.2-0.2-0.3-0.3c-0.1-0.1-0.1-0.3-0.1-0.4
		c-0.1-3.8-0.2-6.9-0.3-9.3c-0.1-2.4-0.3-5.3-0.6-8.6c-0.3-3.4-0.7-6.4-1.2-9.2c-1.3,0.5-1.9,0.8-2,0.8c-0.4,0.2-0.7,0.1-1-0.1
		c-0.3-0.2-0.4-0.5-0.4-0.9c0-0.4,0.2-0.6,0.6-0.8c0.4-0.2,1.3-0.6,2.5-1.1c-0.2-0.8-0.5-1.9-0.9-3.2c-0.4-1.3-0.9-2.8-1.5-4.5
		c-0.6-1.7-1.3-3.4-2.1-5.1s-1.6-3.4-2.5-5.1c-0.9-1.6-1.8-3.1-2.9-4.4c-1.1-1.3-2.2-2.3-3.3-3c-3.1,0.4-5.6,0.8-7.6,1
		c-0.5,0.1-0.9-0.1-1-0.6c-0.2-0.4-0.1-0.8,0.3-1.2c2.7-2.4,5.5-2.8,8.4-1.3C419,10.4,441.2,6.2,463.1,0.9z M412.2,42
		C412.2,42.1,412.2,42.1,412.2,42c-0.1,0.1-0.2,0.1-0.2,0.1c0.1,0.3,0.2,0.8,0.3,1.5c0-0.2,0-0.5,0-0.8
		C412.2,42.5,412.2,42.2,412.2,42z"/>
	<path id="XMLID_38_" class="st0" d="M459.4,45.8c0.3-0.3,0.6-0.4,0.9-0.2c0.3,0.1,0.6,0.4,0.6,0.8c0.1,0.4,0,0.7-0.3,1
		c-0.6,0.6-1.4,1.3-2.4,2.1c-1,0.8-2.1,1.6-3.4,2.5c-1.3,0.9-2.6,1.6-3.9,2.1c-1.3,0.5-2.5,0.9-3.6,1.1c-1.2,0.2-2.2,0-3-0.5
		c-0.9-0.6-1.4-1.5-1.7-2.9c-0.3,0.2-0.6,0.5-1,0.8c-0.4,0.3-0.7,0.6-1,0.9c-0.3,0.3-0.7,0.5-1.1,0.8c-0.4,0.3-0.8,0.5-1.1,0.8
		c-0.3,0.2-0.7,0.4-1.1,0.6c-0.4,0.2-0.8,0.3-1.2,0.4c-0.4,0.1-0.8,0.1-1.2,0.1c-0.4,0-0.8,0-1.2-0.2c-0.8-0.2-1.4-0.6-1.8-1.2
		c-0.4-0.6-0.6-1.3-0.6-1.9c0-0.7,0.1-1.4,0.3-2.2c0.4-1.4,1.1-2.7,2.2-3.7c1.1-1,2.3-1.8,3.6-2.2c1.3-0.4,2.7-0.6,4.2-0.5
		c1.5,0.1,2.8,0.5,4.1,1.3c0.6,0.3,0.7,0.8,0.3,1.3c-0.4,0.5-0.9,0.6-1.4,0.3c-2.5-1.5-5.1-1.4-7.8,0.1c-0.5,0.3-1,0.7-1.5,1.1
		s-0.9,0.9-1.3,1.4c-0.4,0.6-0.6,1.1-0.6,1.6c0,0.5,0.2,1.1,0.7,1.6c0.5,0.5,1,0.8,1.6,0.8c0.6,0,1.2-0.2,1.9-0.6
		c0.6-0.4,1.2-0.8,1.8-1.3c0.6-0.5,1.2-1,1.9-1.5c0.7-0.6,1.2-1,1.6-1.3c0.3-0.2,0.7-0.2,1,0.1c0.3,0.3,0.5,0.6,0.5,0.9
		c0.1,3.7,2.6,4.1,7.5,1.2c2.7-1.6,5.1-3.4,7.2-5.4C459.2,45.9,459.3,45.8,459.4,45.8z"/>
	<path id="XMLID_40_" class="st0" d="M483.7,46c0.2-0.4,0.4-0.6,0.8-0.6c0.4,0,0.7,0.1,1,0.4c0.3,0.3,0.3,0.6,0.1,1
		c-0.3,0.6-0.6,1.2-1,1.9c-0.4,0.7-0.9,1.5-1.4,2.4c-0.6,0.9-1.2,1.8-1.8,2.6c-0.6,0.8-1.3,1.5-2,2.3c-0.7,0.8-1.4,1.3-2.2,1.8
		c-0.7,0.4-1.5,0.7-2.2,0.9c-0.8,0.1-1.5,0-2.3-0.4c-0.8-0.4-1.5-1-2.1-1.9c-0.5-0.7-0.8-1.4-1-2.3c-1.2,2.3-2.5,3.7-4,4.4
		c-0.8,0.3-1.6,0.4-2.3,0.2s-1.4-0.5-2-1c-0.6-0.5-1.1-1.1-1.4-1.9c-0.4-0.9-0.7-1.9-0.8-3.1c-0.2-1.2-0.2-2.5,0-4
		c0.1-1.5,0.3-2.7,0.4-3.6c0.1-0.9,0.4-2.2,0.7-3.9c0.3-1.7,0.5-2.7,0.6-3.1c0.2-1.4,0.5-2.8,0.8-4.3c0.3-1.4,0.6-2.9,1-4.5
		c0.4-1.5,0.7-2.9,1-4.1c0.3-1.2,0.6-2.7,1.1-4.5s0.8-3.2,1-4.1c0.1-0.5,0.5-0.7,1-0.6c0.5,0.1,0.8,0.4,0.9,0.8
		c0.2,1.1,0.3,2.1,0.4,3.1c0,1,0,1.9-0.2,2.9c-0.2,1-0.4,1.9-0.6,2.7c-0.2,0.8-0.6,1.8-1,3.1c-0.1,0.3-0.4,0.5-0.7,0.6
		c-0.3,0.1-0.6,0-0.8-0.2c-1.3,5.7-2.2,10.6-2.7,14.8c-0.4,3.3-0.6,5.3-0.6,6c-0.1,4.7,0.9,6.9,3.1,6.6c0.2,0,0.5-0.1,0.8-0.2
		c1.5-0.5,3-3,4.4-7.3c0.2-1.1,0.5-2.6,1-4.5s0.8-3.1,0.9-3.8c1.4-7.2,2.7-13.1,3.8-18c0.1-0.4,0.3-0.7,0.7-0.8
		c0.4-0.1,0.7-0.1,1,0.1s0.4,0.5,0.3,0.9c-1.3,5.5-2.8,12.7-4.4,21.6c-0.1,0.4-0.2,0.8-0.3,1.4c0,0.1,0,0.2,0,0.3c0,0,0,0.1-0.1,0.2
		s0,0.2,0,0.2c-0.5,2-0.7,3.6-0.8,4.6c-0.1,2.1,0.5,3.6,1.6,4.5c1.2,0.9,2.7,0.6,4.5-0.8C479.6,53.2,481.6,50.2,483.7,46z"/>
	<path id="XMLID_42_" class="st0" d="M503.9,45.6c0.3-0.3,0.6-0.4,1-0.2c0.3,0.1,0.5,0.4,0.6,0.8c0.1,0.3,0,0.7-0.3,1
		c-6.9,7-12.8,9.9-17.8,8.8c-1.8-0.4-3.1-1.2-4-2.3s-1.3-2.4-1.1-3.9c0.2-1.4,0.8-2.8,2-4.1c0.9-1,2.1-1.8,3.5-2.4
		c2.1-0.9,3.2-0.3,3.1,1.6c0,0,0,0.1,0,0.1c0,1.3-0.8,2.5-2.3,3.7c-1.5,1.2-2.9,1.6-4.2,1.1c-0.1,1.5,0.5,2.6,1.9,3.4
		c1.4,0.7,2.9,1,4.6,0.6c2.4-0.4,4.6-1.4,6.6-2.8C499.6,49.7,501.7,47.9,503.9,45.6z M488,45.3c-0.5,0-1,0.3-1.5,0.9
		c-0.5,0.5-1,1.1-1.4,1.8c0.7,0.3,1.5-0.1,2.5-1.2c0.7-0.8,0.8-1.2,0.5-1.4C488.1,45.3,488.1,45.3,488,45.3z"/>
	<path id="XMLID_45_" class="st0" d="M537,45.8c0.3-0.3,0.6-0.4,1-0.4c0.4,0.1,0.7,0.3,0.8,0.6c0.1,0.3,0.1,0.6-0.1,1
		c-0.8,1-1.8,2.1-3,3.2c-1.1,1.1-2.5,2.2-4,3.3c-1.5,1.1-3,1.9-4.5,2.5c-1.5,0.6-3,0.9-4.5,0.7c-1.5-0.1-2.9-0.8-4-2
		c-0.6-0.7-1.4-1.6-2.4-2.9c-1-1.3-1.8-2.2-2.2-2.8c-0.3-0.3-0.6-0.5-0.8-0.7c-0.3-0.2-0.5-0.3-0.7-0.4c-0.2-0.1-0.4-0.1-0.6,0
		c-0.2,0.1-0.4,0.2-0.6,0.3c-0.2,0.1-0.3,0.3-0.6,0.5c-0.2,0.3-0.4,0.5-0.5,0.6c-0.1,0.2-0.3,0.4-0.5,0.8c-0.3,0.4-0.5,0.6-0.5,0.8
		c-0.2,0.3-0.6,1.1-1.3,2.5c-0.7,1.4-1.5,2.6-2.2,3.6c-0.8,1-1.5,1.5-2.1,1.6c-0.4,0.1-0.7-0.1-1-0.4c-0.2-0.3-0.4-0.7-0.5-1.1
		c-0.1-0.4-0.2-0.9-0.1-1.4s0.1-1,0.1-1.3c0-0.3,0.1-0.8,0.3-1.5c0.1-0.7,0.2-1,0.3-1.1c0.2-1.3,0.6-3.1,1.2-5.4
		c0.6-2.4,0.9-3.8,1-4.2c0.1-0.4,0.3-0.6,0.7-0.8c0.4-0.1,0.7-0.1,1,0.1c0.3,0.2,0.4,0.5,0.3,0.9c-0.2,0.7-0.5,1.9-0.9,3.6
		c-0.4,1.7-0.7,3-0.9,3.9c-0.4,2-0.7,3.3-0.8,4.1c0,0.1,0,0.3,0,0.4c0.3-0.5,0.6-1,1-1.6c0.4-0.6,0.9-1.2,1.3-1.8
		c0.5-0.6,0.8-1.1,1-1.5c0.1-0.1,0.2-0.3,0.4-0.6c0.2-0.3,0.3-0.5,0.5-0.7c0.1-0.2,0.3-0.4,0.5-0.7c0.2-0.3,0.4-0.5,0.5-0.7
		c0.2-0.2,0.3-0.4,0.5-0.6c0.2-0.2,0.4-0.4,0.6-0.5c0.2-0.2,0.4-0.3,0.6-0.4c0.5-0.1,1-0.2,1.4-0.2c0.4,0,0.8,0.1,1.3,0.5
		c0.5,0.3,0.9,0.6,1.2,0.9c0.3,0.3,0.7,0.8,1.2,1.3c0.4,0.5,0.8,1,1,1.4c0.3,0.4,0.6,0.9,0.9,1.3c0.3,0.5,0.6,0.8,0.8,1.1
		c1.2,1.4,2.2,2.3,3.2,2.5c0.9,0.3,2.3,0.1,4-0.6C530.3,52.4,533.9,49.7,537,45.8z"/>
	<path id="XMLID_47_" class="st0" d="M586.3,17.3c1.7,2.8,3,5.8,4,8.9c1,3.2,1.6,6.4,1.8,9.6c0.2,3.2,0.2,6.5-0.2,9.9
		c-0.4,3.3-1.1,6.6-2,9.7c-1,3.1-2.2,6.2-3.7,9c-3.6,6.9-8.3,12-14,15.1c-1.3,0.7-2.6,1.3-4,1.8c-1.4,0.5-2.8,0.8-4.3,1
		c-1.5,0.2-3,0.1-4.4-0.4c-1.4-0.4-2.7-1.2-3.7-2.3c-0.8-0.8-1.4-1.7-1.9-2.8c-0.5-1-0.8-2.2-1-3.5c-0.2-1.3-0.3-2.5-0.4-3.6
		c-0.1-1,0-2.4,0.2-3.9c0.2-1.6,0.3-2.7,0.4-3.5c0.1-0.8,0.3-1.9,0.5-3.3c0.3-2.1,0.8-4.3,1.4-6.5c-2.1-4.4-3.6-9-4.5-13.7
		s-1.1-9.6-0.6-14.5c0.5-5,1.9-9.5,4-13.6c0.9-1.6,1.9-3,3-4.1c1.1-1.1,2.3-1.9,3.6-2.4s2.6-0.8,3.9-0.9c1.4-0.1,2.7,0,4.1,0.4
		s2.8,0.8,4.2,1.4c1.4,0.6,2.7,1.4,4,2.3c1.3,0.9,2.5,1.9,3.7,2.9c1.2,1.1,2.2,2.2,3.2,3.3C584.7,15,585.5,16.1,586.3,17.3z
		 M570.1,78.4c3.5-1.8,6.7-4.3,9.4-7.5c2.8-3.2,4.9-6.7,6.5-10.6c1.6-3.8,2.7-7.8,3.5-11.9c0.7-4.1,0.9-8.1,0.7-12.1
		c-0.3-4.3-1.2-8.4-2.8-12.4c-1.6-3.9-3.7-7.5-6.5-10.5c-1.3-1.4-2.7-2.7-4.3-3.9c-1.6-1.2-3.3-2.1-5.2-2.9
		c-1.9-0.8-3.7-1.2-5.5-1.4c-1.8-0.1-3.5,0.3-5.2,1.1c-1.7,0.9-3.2,2.3-4.4,4.2c-2.3,3.6-3.7,7.7-4.4,12.3
		c-0.7,4.6-0.6,9.2,0.1,13.6c0.7,4.5,2,8.9,3.8,13.1c1.5-4.9,3.6-9.7,6.3-14.4c0.3-0.3,0.6-0.5,0.9-0.5c0.3,0,0.6,0.2,0.8,0.6
		s0.2,0.7,0,1c-2.9,5.1-5.1,10.5-6.7,16c1.2,2.5,2.6,4.8,4,6.9c0.2,0.3,0.3,0.7,0.1,1c-0.2,0.4-0.4,0.6-0.8,0.6
		c-0.3,0.1-0.6-0.1-0.9-0.4c-1.2-1.6-2.3-3.3-3.3-5.1c-0.5,2.2-0.9,4.4-1.2,6.6c-0.2,1.7-0.4,3.1-0.5,4.1c-0.1,1.1-0.1,2.4-0.1,3.9
		c0,1.6,0.2,3,0.5,4.2c0.4,1.8,1.2,3.2,2.3,4.2c1.1,1,2.4,1.6,3.8,1.8c1.4,0.2,2.9,0.1,4.4-0.2C567.2,79.7,568.7,79.2,570.1,78.4z"
		/>
	<path id="XMLID_50_" class="st0" d="M615.2,46c0.2-0.2,0.4-0.3,0.6-0.3c0.2,0,0.4,0.1,0.6,0.2c0.2,0.1,0.3,0.3,0.4,0.5
		c0.1,0.2,0.1,0.4,0.1,0.6c0,0.2-0.1,0.4-0.3,0.6c-2.4,1.9-5.1,2.8-8.1,2.7c-3-0.1-5.6-1.2-7.8-3.2c-1.2,1.4-2.2,3.1-3,5.1
		c-0.8,2-1.4,4.1-1.9,6.2c-0.1,0.4-0.3,0.7-0.6,0.8c-0.3,0.1-0.6,0.1-1-0.1c-0.3-0.2-0.4-0.5-0.4-1c0.1-4.5,1-9.8,2.6-15.6
		c0.1-0.4,0.3-0.6,0.7-0.6c0.4,0,0.7,0.1,1,0.4c0.3,0.3,0.3,0.6,0.3,1c-0.6,2-1,4-1.5,5.9c0.9-1.7,2-3.1,3.1-4.3
		c0.2-0.2,0.4-0.3,0.7-0.3c0.3,0,0.5,0.1,0.7,0.4c1.8,2,4.1,3.1,6.8,3.3C610.7,48.4,613.1,47.7,615.2,46z"/>
	<path id="XMLID_52_" class="st0" d="M627.2,27.6c-0.4,3.3-0.7,5.9-0.9,7.9c-0.2,1.9-0.4,4.4-0.6,7.5c-0.2,3.1-0.2,5.7-0.1,7.9
		c0.1,2.2,0.4,4.7,0.8,7.3c0.4,2.7,1,5.2,1.8,7.5c0.1,0.4,0.1,0.7-0.2,1s-0.6,0.4-0.9,0.4c-0.4,0-0.6-0.2-0.8-0.6
		c-2.2-6.4-3.1-14.1-2.7-23.2c-1.9,5.6-4.5,10.1-7.8,13.5c-0.6,0.6-1.2,1.1-1.9,1.5c-0.7,0.4-1.4,0.7-2.1,0.8
		c-0.7,0.1-1.2-0.1-1.7-0.6s-0.7-1.3-0.8-2.4c0-2.2,0.7-4.4,2.2-6.7c1.5-2.3,3.3-3.8,5.3-4.6c0.6-0.2,1,0,1.3,0.5
		c0.3,0.6,0.1,1-0.5,1.3c-2.2,0.8-4,2.7-5.3,5.8c-1.1,2.5-1.3,3.9-0.5,4.1c0.5,0.1,1.3-0.3,2.5-1.3c2.5-2.1,4.6-5.8,6.5-11.3
		c2.4-7,4.2-16.1,5.3-27.3c0-0.4,0.2-0.7,0.6-0.8c0.3-0.1,0.7-0.1,1,0.1c0.3,0.2,0.5,0.5,0.4,0.9c-0.1,1-0.2,2.2-0.3,3.5
		C627.7,23.3,627.4,25.6,627.2,27.6z"/>
	<path id="XMLID_54_" class="st0" d="M649.6,45.6c0.3-0.3,0.6-0.4,1-0.2c0.3,0.1,0.5,0.4,0.6,0.8c0.1,0.3,0,0.7-0.3,1
		c-6.9,7-12.8,9.9-17.8,8.8c-1.8-0.4-3.1-1.2-4-2.3s-1.3-2.4-1.1-3.9c0.2-1.4,0.8-2.8,2-4.1c0.9-1,2.1-1.8,3.5-2.4
		c2.1-0.9,3.2-0.3,3.1,1.6c0,0,0,0.1,0,0.1c0,1.3-0.8,2.5-2.3,3.7c-1.5,1.2-2.9,1.6-4.2,1.1c-0.1,1.5,0.5,2.6,1.9,3.4
		c1.4,0.7,2.9,1,4.6,0.6c2.4-0.4,4.6-1.4,6.6-2.8C645.3,49.7,647.4,47.9,649.6,45.6z M633.7,45.3c-0.5,0-1,0.3-1.5,0.9
		c-0.5,0.5-1,1.1-1.4,1.8c0.7,0.3,1.5-0.1,2.5-1.2c0.7-0.8,0.8-1.2,0.5-1.4C633.8,45.3,633.8,45.3,633.7,45.3z"/>
	<path id="XMLID_57_" class="st0" d="M669.6,46c0.2-0.2,0.4-0.3,0.6-0.3c0.2,0,0.4,0.1,0.6,0.2c0.2,0.1,0.3,0.3,0.4,0.5
		c0.1,0.2,0.1,0.4,0.1,0.6c0,0.2-0.1,0.4-0.3,0.6c-2.4,1.9-5.1,2.8-8.1,2.7c-3-0.1-5.6-1.2-7.8-3.2c-1.2,1.4-2.2,3.1-3,5.1
		c-0.8,2-1.4,4.1-1.9,6.2c-0.1,0.4-0.3,0.7-0.6,0.8c-0.3,0.1-0.6,0.1-1-0.1c-0.3-0.2-0.4-0.5-0.4-1c0.1-4.5,1-9.8,2.6-15.6
		c0.1-0.4,0.3-0.6,0.7-0.6c0.4,0,0.7,0.1,1,0.4c0.3,0.3,0.3,0.6,0.3,1c-0.6,2-1,4-1.5,5.9c0.9-1.7,2-3.1,3.1-4.3
		c0.2-0.2,0.4-0.3,0.7-0.3c0.3,0,0.5,0.1,0.7,0.4c1.8,2,4.1,3.1,6.8,3.3C665.1,48.4,667.5,47.7,669.6,46z"/>
</g>
</svg>
