<?xml version="1.0" encoding="utf-8"?>
<!-- Generator: Adobe Illustrator 19.0.0, SVG Export Plug-In . SVG Version: 6.00 Build 0)  -->
<svg version="1.1" id="Layer_1" xmlns="http://www.w3.org/2000/svg" xmlns:xlink="http://www.w3.org/1999/xlink" x="0px" y="0px"
	 viewBox="0 0 263.7 83.4" style="enable-background:new 0 0 263.7 83.4;" xml:space="preserve">
<style type="text/css">
	.st0{fill:#FFFFFF;}
</style>
<g id="XMLID_2_">
	<path id="XMLID_3_" class="st0" d="M36.6,13.9c1.7,2.8,3.1,5.7,4.1,8.9c1,3.2,1.6,6.4,1.8,9.6c0.2,3.2,0.2,6.5-0.2,9.9
		c-0.4,3.3-1.1,6.6-2.1,9.7c-1,3.1-2.2,6.2-3.7,9c-3.6,6.9-8.3,12-14,15.1c-1.3,0.7-2.6,1.3-4,1.8c-1.4,0.5-2.8,0.8-4.3,1
		c-1.5,0.2-3,0.1-4.4-0.4c-1.4-0.4-2.7-1.2-3.7-2.3c-0.8-0.8-1.4-1.7-1.9-2.8c-0.5-1-0.8-2.2-1-3.5c-0.2-1.3-0.3-2.5-0.4-3.6
		c-0.1-1,0-2.4,0.2-3.9c0.2-1.6,0.3-2.8,0.4-3.5c0.1-0.8,0.3-1.9,0.5-3.3c0.3-2.1,0.8-4.3,1.4-6.5c-2.1-4.4-3.6-9-4.5-13.7
		S-0.2,26,0.3,21c0.5-5,1.9-9.5,4.1-13.6c0.9-1.6,1.9-3,3-4.1c1.1-1.1,2.3-1.9,3.6-2.4s2.6-0.8,3.9-0.9c1.4-0.1,2.7,0,4.1,0.4
		c1.4,0.4,2.8,0.8,4.1,1.4c1.4,0.6,2.7,1.4,4,2.3c1.3,0.9,2.5,1.9,3.7,2.9c1.2,1.1,2.2,2.2,3.2,3.3C35.1,11.6,35.9,12.7,36.6,13.9z
		 M20.5,75c3.5-1.8,6.7-4.3,9.4-7.5c2.7-3.2,4.9-6.7,6.5-10.6c1.6-3.8,2.7-7.8,3.5-11.9c0.7-4.1,0.9-8.1,0.7-12.1
		c-0.3-4.3-1.2-8.4-2.8-12.4c-1.5-3.9-3.7-7.5-6.5-10.5C30,8.7,28.6,7.4,27,6.2c-1.6-1.2-3.3-2.1-5.2-2.9C20,2.5,18.2,2.1,16.4,2
		c-1.8-0.1-3.5,0.3-5.2,1.1C9.4,4,8,5.4,6.7,7.3C4.5,10.9,3,15,2.3,19.6c-0.7,4.6-0.6,9.2,0.1,13.6c0.7,4.5,2,8.9,3.8,13.1
		c1.5-4.9,3.6-9.7,6.3-14.4c0.3-0.3,0.6-0.5,0.9-0.5c0.3,0,0.6,0.2,0.8,0.6s0.2,0.7,0,1c-2.9,5.1-5.1,10.5-6.7,16
		c1.2,2.5,2.6,4.8,4.1,6.9c0.2,0.3,0.3,0.7,0.1,1c-0.2,0.4-0.4,0.6-0.8,0.6c-0.3,0.1-0.6-0.1-0.9-0.4c-1.2-1.6-2.3-3.3-3.3-5.1
		c-0.5,2.2-0.9,4.4-1.2,6.6c-0.2,1.7-0.4,3.1-0.5,4.1C5,63.9,5,65.2,5,66.7c0,1.6,0.2,3,0.5,4.2c0.4,1.8,1.2,3.2,2.3,4.2
		c1.1,1,2.4,1.6,3.8,1.8c1.4,0.2,2.9,0.1,4.4-0.2C17.5,76.3,19,75.8,20.5,75z"/>
	<path id="XMLID_6_" class="st0" d="M81.4,27.8c0.4,0,0.7,0.1,0.9,0.4c0.2,0.3,0.3,0.6,0.2,1c-0.1,0.4-0.4,0.6-0.8,0.6
		C72.4,31,62.8,32.4,52.9,34c-3.2,13.6-5.2,27.4-6,41.4c0,0.4-0.2,0.7-0.6,0.8c-0.4,0.1-0.7,0.1-1-0.1c-0.3-0.2-0.5-0.5-0.5-0.9
		c0.8-13.8,2.7-27.4,5.9-40.8c-5,0.9-9.5,1.7-13.5,2.4c-0.2,0-0.4,0-0.6-0.1c-0.2-0.1-0.3-0.2-0.4-0.4c-0.1-0.2-0.1-0.4-0.1-0.6
		s0.1-0.4,0.2-0.5c0.1-0.2,0.3-0.3,0.6-0.4c4.1-0.8,8.9-1.6,14.4-2.6c0.9-3.9,1.9-7.5,2.9-10.8c0.1-0.4,0.4-0.6,0.7-0.6
		c0.4,0,0.7,0.1,0.9,0.4c0.3,0.3,0.4,0.6,0.3,1c-0.8,2.8-1.7,6-2.6,9.7C63.1,30.3,72.4,28.9,81.4,27.8z"/>
	<path id="XMLID_8_" class="st0" d="M81.4,42.5c0.2-0.3,0.5-0.5,0.9-0.4c0.4,0.1,0.6,0.3,0.8,0.6c0.1,0.3,0.1,0.7-0.1,1
		c-1.2,1.7-2.9,3.3-5,4.6c-2.1,1.4-4,2.1-5.9,2c-0.6,0-1.1-0.2-1.6-0.4c-0.5-0.3-0.9-0.5-1.3-0.8c-0.4-0.3-0.7-0.7-1.2-1.3
		c-0.4-0.6-0.8-1-1-1.3c-0.2-0.3-0.5-0.9-0.9-1.6c-0.4-0.7-0.7-1.1-0.8-1.4c0,0-0.1-0.3-0.4-0.9c-0.3-0.6-0.6-1.1-0.9-1.6
		c-0.3-0.4-0.5-0.7-0.7-0.8c-0.3,0-0.6,0-0.9,0.1c-0.3,0.1-0.5,0.2-0.6,0.4c-0.2,0.1-0.3,0.4-0.5,0.7c-0.2,0.3-0.3,0.6-0.4,0.8
		c-0.1,0.2-0.2,0.5-0.3,0.9c-0.1,0.4-0.2,0.6-0.3,0.7c-0.2,0.6-0.4,1.2-0.6,1.9c-0.2,0.7-0.4,1.5-0.6,2.3c-0.2,0.8-0.4,1.4-0.6,2
		c-0.1,0.3-0.2,0.5-0.3,0.7c-0.1,0.2-0.2,0.4-0.3,0.8c-0.1,0.3-0.3,0.6-0.4,0.8c-0.1,0.2-0.3,0.4-0.5,0.6c-0.2,0.2-0.4,0.4-0.6,0.5
		c-0.2,0.1-0.4,0.1-0.7,0.1c-0.3,0-0.5-0.1-0.9-0.3c-0.4-0.2-0.6-0.5-0.6-1c0.1-13.7,2.8-27.8,8-42c0.1-0.4,0.4-0.6,0.8-0.6
		c0.4-0.1,0.7,0.1,0.9,0.3c0.3,0.3,0.3,0.6,0.2,1c-3.7,10.3-6.1,20.7-7.2,31.1c-0.1,1.2-0.3,3.6-0.6,7v1.8c0,0,0.1-0.3,0.2-0.8
		l0.3-1c0-0.2,0.1-0.6,0.3-1.2c0.2-0.6,0.3-1,0.4-1.3c0.1-0.3,0.2-0.7,0.3-1.2c0.2-0.5,0.3-1,0.4-1.3c0.1-0.3,0.3-0.7,0.4-1.2
		c0.2-0.4,0.4-0.8,0.5-1.2c0.5-1,1-1.7,1.6-2.3c0.6-0.6,1.3-0.9,2.1-0.9c0.8,0,1.5,0.4,2.3,1.2c0.6,0.7,1.4,1.9,2.3,3.8
		c0.9,1.8,1.8,3.1,2.5,3.8c0.9,0.8,1.9,1.1,3,1.1c1,0,2.1-0.3,3.2-0.9c1.1-0.6,2.1-1.3,3-2.1C80.1,44.2,80.8,43.4,81.4,42.5z"/>
	<path id="XMLID_10_" class="st0" d="M100.9,42.2c0.3-0.3,0.6-0.4,0.9-0.2c0.3,0.1,0.5,0.4,0.6,0.8c0.1,0.3,0,0.7-0.3,1
		c-6.9,7-12.8,9.9-17.8,8.8c-1.8-0.4-3.1-1.2-4-2.3s-1.3-2.4-1.1-3.9c0.2-1.4,0.8-2.8,2-4.1c0.9-1,2.1-1.8,3.5-2.4
		c2.1-0.9,3.2-0.3,3.1,1.6c0,0,0,0.1,0,0.1c0,1.3-0.8,2.5-2.3,3.7c-1.5,1.2-2.9,1.6-4.2,1.1c-0.1,1.5,0.5,2.6,1.9,3.4
		c1.4,0.7,2.9,1,4.6,0.6c2.4-0.4,4.6-1.4,6.6-2.8C96.7,46.3,98.8,44.5,100.9,42.2z M85.1,41.9c-0.5,0-1,0.3-1.5,0.9
		c-0.5,0.5-1,1.1-1.4,1.8c0.7,0.3,1.5-0.1,2.5-1.2c0.7-0.8,0.9-1.2,0.5-1.4C85.2,41.9,85.2,41.9,85.1,41.9z"/>
	<path id="XMLID_13_" class="st0" d="M121,42.6c0.2-0.2,0.4-0.3,0.6-0.3c0.2,0,0.4,0.1,0.6,0.2c0.2,0.1,0.3,0.3,0.4,0.5
		c0.1,0.2,0.1,0.4,0.1,0.6c0,0.2-0.1,0.4-0.3,0.6c-2.4,1.9-5.1,2.8-8.1,2.7c-3-0.1-5.6-1.2-7.8-3.2c-1.2,1.4-2.2,3.1-3,5.1
		c-0.8,2-1.4,4.1-1.9,6.2c-0.1,0.4-0.3,0.7-0.6,0.8c-0.3,0.1-0.6,0.1-1-0.1c-0.3-0.2-0.4-0.5-0.4-1c0.1-4.5,1-9.8,2.6-15.6
		c0.1-0.4,0.3-0.6,0.7-0.6c0.4,0,0.7,0.1,1,0.4c0.3,0.3,0.3,0.6,0.3,1c-0.6,2-1,4-1.5,5.9c0.9-1.7,2-3.1,3.1-4.3
		c0.2-0.2,0.4-0.3,0.7-0.3c0.3,0,0.5,0.1,0.7,0.4c1.8,2,4.1,3.1,6.8,3.3C116.5,45,118.9,44.3,121,42.6z"/>
	<path id="XMLID_15_" class="st0" d="M161.9,41.4c0.3-0.2,0.7-0.3,1-0.1c0.4,0.2,0.6,0.4,0.6,0.8c0,0.3-0.1,0.6-0.4,0.9
		c-5,3.5-8.8,6.3-11.5,8.4c0.1,0.2,0.2,0.5,0.3,0.9c1.8,5.5,2,10.4,0.8,14.5c-0.7,2.2-1.8,4.4-3.4,6.7c-1.5,2.3-3.4,4.4-5.6,6.2
		c-2.2,1.8-4.3,3-6.5,3.6c-1.7,0.4-3.2,0.4-4.3-0.1c-1.1-0.5-1.9-1.3-2.3-2.4c-0.4-1.1-0.6-2.3-0.6-3.7c0-1.4,0.2-2.8,0.6-4.1
		c0.4-1.4,0.9-2.6,1.5-3.7c1.9-3.4,4.3-6.6,7.2-9.6c2.9-3,6.2-6,10-8.9c-1.5-3.8-2.6-5.7-3.5-5.8c-0.5,0-1,0.2-1.5,0.6
		c-0.5,0.4-1.1,1-1.7,1.8c-0.6,0.8-1,1.2-1,1.3c-0.1,0-0.2,0.2-0.5,0.5s-0.5,0.5-0.6,0.6c-0.1,0.1-0.3,0.3-0.6,0.6
		c-0.3,0.3-0.5,0.5-0.8,0.6c-0.2,0.1-0.5,0.3-0.8,0.5c-0.3,0.2-0.6,0.4-0.8,0.4c-0.2,0.1-0.5,0.1-0.8,0.2c-0.3,0.1-0.6,0-0.8,0
		c-0.3-0.1-0.5-0.2-0.8-0.3c-1.9-1.2-1.8-3.2,0.2-5.8c1.5-2,3.5-3.7,5.9-5c1.3-0.7,2.4-1,3.2-0.9c0.4,0.1,0.7,0.3,0.8,0.6
		c0.1,0.4,0.1,0.7-0.1,1c-0.2,0.3-0.5,0.4-1,0.4c-1.2-0.1-2.6,0.5-4.3,1.9c-1.7,1.4-2.8,2.7-3.1,3.9c-0.5,1.6-0.1,2,1.1,1.3
		c0.8-0.6,2-1.7,3.6-3.5c0.1-0.2,0.3-0.4,0.6-0.7s0.5-0.5,0.6-0.7c0.2-0.2,0.4-0.4,0.7-0.7c0.3-0.3,0.5-0.5,0.7-0.6
		c0.2-0.1,0.5-0.3,0.8-0.4c0.3-0.1,0.6-0.2,0.8-0.1c0.2,0,0.5,0.1,0.9,0.1c1.6,0.6,3.1,2.8,4.5,6.6C152.7,48,156.4,45.4,161.9,41.4z
		 M148.3,70.9c3.5-5.3,4.1-11.4,1.9-18.2c-2,1.6-3.8,3.1-5.4,4.5c-4.1,3.8-7.1,7.1-9,9.9c-0.6,0.9-1,1.6-1.3,2.1
		c-0.3,0.6-0.8,1.4-1.3,2.5s-0.9,2.1-1.2,2.9c-0.2,0.8-0.3,1.7-0.3,2.7c0.1,1,0.3,1.8,0.8,2.6c0.9,1.2,1.9,1.8,3.2,1.8
		s2.5-0.4,3.7-1.2c1.2-0.8,2.5-1.9,3.8-3.2c1.3-1.3,2.3-2.5,3.1-3.5C147.1,72.7,147.8,71.7,148.3,70.9z"/>
	<path id="XMLID_18_" class="st0" d="M185.6,42.4c0.3-0.3,0.6-0.4,0.9-0.2c0.3,0.1,0.6,0.4,0.6,0.8c0.1,0.4,0,0.7-0.3,1
		c-0.6,0.6-1.4,1.3-2.4,2.1c-1,0.8-2.1,1.6-3.4,2.5c-1.3,0.9-2.6,1.6-3.9,2.1c-1.3,0.5-2.5,0.9-3.6,1.1c-1.2,0.2-2.2,0-3-0.5
		c-0.9-0.6-1.4-1.5-1.7-2.9c-0.3,0.2-0.6,0.5-1,0.8c-0.4,0.3-0.7,0.6-1,0.9c-0.3,0.3-0.7,0.5-1.1,0.8c-0.4,0.3-0.8,0.5-1.1,0.8
		c-0.3,0.2-0.7,0.4-1.1,0.6c-0.4,0.2-0.8,0.3-1.2,0.4c-0.4,0.1-0.8,0.1-1.2,0.1c-0.4,0-0.8,0-1.2-0.2c-0.8-0.2-1.4-0.6-1.8-1.2
		c-0.4-0.6-0.6-1.3-0.6-1.9c0-0.7,0.1-1.4,0.3-2.2c0.4-1.4,1.1-2.7,2.2-3.7c1.1-1,2.3-1.8,3.6-2.2c1.3-0.4,2.7-0.6,4.2-0.5
		c1.5,0.1,2.8,0.5,4.1,1.3c0.6,0.3,0.7,0.8,0.3,1.3c-0.4,0.5-0.9,0.6-1.4,0.3c-2.5-1.5-5.1-1.4-7.8,0.1c-0.5,0.3-1,0.7-1.5,1.1
		s-0.9,0.9-1.3,1.4c-0.4,0.6-0.6,1.1-0.6,1.6c0,0.5,0.2,1.1,0.7,1.6c0.5,0.5,1,0.8,1.6,0.8c0.6,0,1.2-0.2,1.9-0.6
		c0.6-0.4,1.2-0.8,1.8-1.3c0.6-0.5,1.2-1,1.9-1.5c0.7-0.6,1.2-1,1.6-1.3c0.3-0.2,0.7-0.2,1,0.1c0.3,0.3,0.5,0.6,0.5,0.9
		c0.1,3.7,2.6,4.1,7.5,1.2c2.7-1.6,5.1-3.4,7.2-5.4C185.5,42.5,185.5,42.4,185.6,42.4z"/>
	<path id="XMLID_20_" class="st0" d="M226.3,42.9c0.3-0.3,0.6-0.4,1-0.3c0.4,0.1,0.7,0.3,0.8,0.6c0.1,0.3,0.1,0.6-0.2,0.9
		c-5.1,5.5-9.9,8.6-14.5,9.2c-2,0.3-3.6,0-4.9-0.8c-0.3-0.2-0.6-0.5-1-0.9c-0.3-0.4-0.6-0.7-0.9-1c-0.2-0.3-0.5-0.7-0.8-1
		c-0.3-0.4-0.6-0.6-0.8-0.8c-0.3-0.2-0.6-0.3-1-0.4c-0.4-0.1-0.8,0-1.2,0.2c-0.4,0.2-0.9,0.6-1.3,1.1c-0.4,0.5-0.8,1-1.2,1.5
		c-0.4,0.5-0.7,0.9-1.1,1.3c-0.4,0.4-0.8,0.5-1.3,0.4c-0.5-0.1-1-0.4-1.6-1.1c-0.2-0.2-0.5-0.6-0.7-1.1s-0.5-1-0.7-1.5
		c-0.2-0.5-0.4-1-0.7-1.5c-0.3-0.5-0.6-0.9-0.8-1.2c-0.3-0.3-0.6-0.4-1-0.5c-0.4-0.1-0.9,0.1-1.5,0.5c-0.7,0.5-1.6,1.6-2.7,3.4
		c-1.1,1.8-1.9,2.9-2.3,3.4c-0.3,0.3-0.7,0.4-1.1,0.1c-0.4-0.3-0.6-0.6-0.5-1c0.4-4.2,1.3-8.4,2.6-12.4c0.1-0.4,0.4-0.6,0.8-0.6
		c0.4-0.1,0.7,0.1,0.9,0.3c0.3,0.3,0.3,0.6,0.2,1c-0.8,2.5-1.4,5.1-1.9,7.8c0.5-0.8,0.9-1.5,1.3-2c0.4-0.5,0.8-1.1,1.3-1.6
		c0.5-0.6,1-1,1.6-1.2c0.6-0.2,1.1-0.3,1.7-0.1c0.1,0,0.3,0.1,0.4,0.1c0.1,0.1,0.3,0.1,0.4,0.2c0.1,0.1,0.3,0.2,0.4,0.3
		c0.1,0.1,0.2,0.2,0.3,0.3c0.1,0.1,0.2,0.2,0.3,0.4c0.1,0.2,0.2,0.3,0.3,0.4c0.1,0.1,0.2,0.2,0.3,0.4c0.1,0.2,0.2,0.4,0.3,0.4
		c0,0.1,0.1,0.2,0.3,0.4c0.1,0.2,0.2,0.3,0.2,0.4c0.2,0.4,0.5,0.9,0.8,1.5c0.3,0.6,0.5,0.9,0.5,1.1c0.1,0.2,0.2,0.4,0.5,0.5
		c0.3,0.2,0.4,0.3,0.5,0.3c0,0,0.2-0.1,0.5-0.4c0.3-0.2,0.6-0.4,0.8-0.7s0.6-0.7,1.1-1.2c0.7-0.8,1.4-1.4,1.9-1.8
		c0.5-0.3,1.1-0.4,1.8-0.3c0.6,0.1,1.3,0.6,2.1,1.3c0.2,0.2,0.7,0.8,1.3,1.6c0.6,0.8,1.1,1.4,1.5,1.6c0.7,0.5,1.5,0.8,2.4,0.9
		c0.9,0.1,1.7,0,2.3-0.2c0.7-0.2,1.5-0.5,2.4-0.9C220,48.8,223.2,46.3,226.3,42.9z"/>
	<path id="XMLID_22_" class="st0" d="M246.3,42.2c0.3-0.3,0.6-0.4,1-0.2c0.3,0.1,0.5,0.4,0.6,0.8c0.1,0.3,0,0.7-0.3,1
		c-6.9,7-12.8,9.9-17.8,8.8c-1.8-0.4-3.1-1.2-4-2.3s-1.3-2.4-1.1-3.9c0.2-1.4,0.8-2.8,2-4.1c0.9-1,2.1-1.8,3.5-2.4
		c2.1-0.9,3.2-0.3,3.1,1.6c0,0,0,0.1,0,0.1c0,1.3-0.8,2.5-2.3,3.7c-1.5,1.2-2.9,1.6-4.2,1.1c-0.1,1.5,0.5,2.6,1.9,3.4
		c1.4,0.7,2.9,1,4.6,0.6c2.4-0.4,4.6-1.4,6.6-2.8C242,46.3,244.1,44.5,246.3,42.2z M230.4,41.9c-0.5,0-1,0.3-1.5,0.9
		c-0.5,0.5-1,1.1-1.4,1.8c0.7,0.3,1.5-0.1,2.5-1.2c0.7-0.8,0.8-1.2,0.5-1.4C230.6,41.9,230.5,41.9,230.4,41.9z"/>
	<path id="XMLID_25_" class="st0" d="M262,42.5c0.3-0.2,0.7-0.3,1-0.1c0.4,0.2,0.6,0.4,0.6,0.8c0.1,0.3-0.1,0.6-0.4,0.9
		c-2.4,1.7-4.6,3.4-6.6,4.9c0.9,0.6,1.6,1.1,2.2,1.7c0.6,0.5,1.1,1.2,1.5,1.9c0.5,0.7,0.6,1.5,0.5,2.3c-0.1,0.8-0.5,1.7-1.3,2.5
		c-0.7,0.8-1.6,1.6-2.8,2.3c-1.1,0.7-2.3,1.3-3.6,1.6c-1.3,0.4-2.4,0.4-3.6-0.1c-1.1-0.4-2-1.3-2.5-2.6c-0.8-2.1,0.4-4.5,3.4-7.3
		c0.7-0.6,1.6-1.4,2.5-2.1c-0.1,0-0.5-0.3-1.3-0.7c-0.8-0.4-1.3-0.7-1.6-0.9c-0.3-0.2-0.7-0.4-1.3-0.9c-0.6-0.4-1-0.8-1.4-1.1
		c-0.3-0.4-0.6-0.8-0.9-1.2c-1-1.8-0.5-3.8,1.7-6.1c1.9-1.9,4-3.2,6.5-3.8c2.7-0.6,4.3,0,5,1.8c0.1,0.3,0.2,0.6,0.3,1
		c0,0.4-0.1,0.7-0.4,0.9s-0.6,0.3-1,0.1c-0.4-0.1-0.6-0.4-0.6-0.8c-0.3-1.8-2-1.8-5,0c-1.4,0.8-2.4,1.5-3.1,2.3
		c-0.6,0.6-1,1.1-1.3,1.5c-0.3,0.4-0.3,0.9-0.2,1.4c0.1,0.5,0.5,1.1,1.1,1.6c0.3,0.3,0.6,0.5,1,0.8c0.4,0.3,0.7,0.5,1,0.7
		c0.3,0.2,0.7,0.4,1.3,0.7c0.6,0.3,0.9,0.5,1.1,0.6c0.1,0,0.2,0.1,0.4,0.2c0.2,0.1,0.3,0.2,0.4,0.2C257.1,46.1,259.5,44.3,262,42.5z
		 M257.5,56.6c0.4-0.5,0.8-0.9,1-1.4c0.2-0.4,0.3-0.8,0.2-1.2c-0.1-0.4-0.2-0.7-0.4-1.1c-0.2-0.3-0.5-0.7-0.9-1
		c-0.4-0.3-0.8-0.6-1.1-0.9s-0.8-0.5-1.3-0.8c-0.9,0.8-1.8,1.5-2.5,2.1c-0.1,0.1-0.4,0.3-0.7,0.6c-0.3,0.3-0.6,0.5-0.8,0.6
		c-0.2,0.2-0.4,0.4-0.6,0.7c-0.2,0.3-0.4,0.6-0.5,0.8c-0.7,1.6-0.7,2.8,0.2,3.5c0.9,0.7,2.1,0.9,3.6,0.5
		C254.9,58.8,256.2,58,257.5,56.6z"/>
</g>
</svg>
