<?xml version="1.0" encoding="utf-8"?>
<!-- Generator: Adobe Illustrator 19.0.0, SVG Export Plug-In . SVG Version: 6.00 Build 0)  -->
<svg version="1.1" id="Layer_1" xmlns="http://www.w3.org/2000/svg" xmlns:xlink="http://www.w3.org/1999/xlink" x="0px" y="0px"
	 viewBox="0 0 416 79.8" style="enable-background:new 0 0 416 79.8;" xml:space="preserve">
<style type="text/css">
	.st0{fill:#FFFFFF;}
</style>
<g id="XMLID_2_">
	<path id="XMLID_3_" class="st0" d="M79.1,37.4c0.4,0,0.7,0.1,0.9,0.4c0.2,0.3,0.3,0.6,0.1,1c-0.1,0.4-0.4,0.5-0.8,0.6
		c-0.8,0-1.6,0.1-2.5,0.2c-0.9,0.1-1.9,0.1-2.9,0.2c-1,0.1-1.9,0.1-2.6,0.1c-6.3,7.8-13.6,14.6-22.1,20.3
		c-8.4,5.7-17.5,9.9-27.1,12.7c-10.5,3.1-16.5,2-17.8-3.3C4,68,4.1,66.5,4.7,64.9C5.2,63.2,6,61.8,7,60.4c1.1-1.4,2.3-2.7,3.8-4.1
		s2.9-2.5,4.1-3.4c1.3-0.9,2.5-1.7,3.8-2.5c2.2-1.3,4.5-2.5,6.9-3.6c-0.5-11,0.1-21.8,1.8-32.6c0.1-0.4,0.3-0.7,0.6-0.8
		c0.4-0.1,0.7-0.1,1,0.1c0.3,0.2,0.4,0.5,0.4,0.9c-1.6,10.4-2.2,21-1.8,31.6c3.2-1.3,6.5-2.5,10-3.4c3.5-0.9,7.2-1.7,11-2.3
		c3.8-0.6,7.3-1.1,10.5-1.4c3.1-0.3,6.8-0.6,11.1-0.9c0-0.1,0.1-0.2,0.3-0.4c0.2-0.2,0.3-0.4,0.4-0.5c1.2-1.5,2.2-3,3.1-4.4
		c0.9-1.4,1.8-2.9,2.6-4.6c0.9-1.7,1.4-3.3,1.8-4.9c0.3-1.6,0.5-3.2,0.4-4.8c0-1.6-0.5-3.2-1.3-4.8c-0.8-1.5-2-3-3.5-4.4
		c-1.8-1.6-3.9-2.9-6.2-4c-2.3-1.1-4.6-1.8-7-2.2c-2.3-0.4-4.8-0.7-7.4-0.9c-2.6-0.1-5-0.1-7.3,0C43.5,2.5,41,2.7,38.5,3
		c-2.5,0.3-5.1,0.8-7.7,1.4c-2.7,0.6-5.2,1.4-7.5,2.3c-2.4,0.9-4.7,2-6.9,3.3c-2.3,1.3-4.3,2.8-6.1,4.5c-1.8,1.6-3.4,3.6-4.9,5.8
		c-1.4,2.2-2.5,4.6-3.3,7.3c-0.1,0.4-0.4,0.6-0.8,0.6c-0.4,0-0.7-0.1-1-0.4c-0.3-0.3-0.3-0.6-0.2-1c1.2-3.7,3-7.1,5.5-10.2
		c2.5-3.1,5.3-5.6,8.5-7.6c3.2-2,6.8-3.8,10.6-5.1c3.8-1.4,7.8-2.4,11.8-3c4-0.6,8-0.8,12-0.8c3.9,0,7.7,0.3,11.3,1
		c1.6,0.3,3.2,0.6,4.7,1.1c1.5,0.4,3.1,1,4.6,1.8c1.6,0.7,3,1.5,4.3,2.4c1.3,0.9,2.5,2,3.6,3.2c1.1,1.3,2,2.6,2.7,4.1
		c0.6,1.4,1,2.8,1.3,4.3c0.2,1.5,0.2,2.9-0.1,4.3c-0.3,1.4-0.6,2.8-1.1,4.1c-0.5,1.3-1.1,2.7-1.9,4.1c-0.8,1.4-1.6,2.7-2.3,3.8
		c-0.8,1.1-1.6,2.3-2.6,3.6c0.5,0,1.4-0.1,2.8-0.2C77.2,37.5,78.3,37.4,79.1,37.4z M32,67.2c7.1-3,13.7-6.8,19.9-11.4
		S63.7,46,68.6,40.1c-8.5,0.6-16,1.5-22.5,2.6c-6.5,1.1-12.6,2.9-18.4,5.4c0.2,3.6,0.5,7.1,0.9,10.5c0,0.4-0.1,0.7-0.4,0.9
		c-0.3,0.2-0.6,0.3-1,0.1c-0.4-0.1-0.6-0.4-0.6-0.8c-0.4-3.1-0.6-6.4-0.9-9.9c-13,6.2-19.2,12.5-18.8,19c0.1,1.5,0.5,2.6,1.1,3.3
		c0.7,0.6,1.8,1,3.4,1.2c1,0.1,2.2,0.1,3.5,0c1.1-0.1,2.6-0.5,4.7-1C23.8,70.4,27.9,69,32,67.2z"/>
	<path id="XMLID_6_" class="st0" d="M94.9,38.6c0.3-0.3,0.6-0.4,1-0.2c0.3,0.1,0.5,0.4,0.6,0.8c0.1,0.3,0,0.7-0.3,1
		c-6.9,7-12.8,9.9-17.8,8.8c-1.8-0.4-3.1-1.2-4-2.3s-1.3-2.4-1.1-3.9c0.2-1.4,0.8-2.8,2-4.1c0.9-1,2.1-1.8,3.5-2.4
		c2.1-0.9,3.2-0.3,3.1,1.6c0,0,0,0.1,0,0.1c0,1.3-0.8,2.5-2.3,3.7c-1.5,1.2-2.9,1.6-4.2,1.1c-0.1,1.5,0.5,2.6,1.9,3.4
		c1.4,0.7,2.9,1,4.6,0.6c2.4-0.4,4.6-1.4,6.6-2.8C90.6,42.7,92.7,40.9,94.9,38.6z M79,38.3c-0.5,0-1,0.3-1.5,0.9
		c-0.5,0.5-1,1.1-1.4,1.8c0.7,0.3,1.5-0.1,2.5-1.2c0.7-0.8,0.9-1.2,0.5-1.4C79.1,38.3,79.1,38.3,79,38.3z"/>
	<path id="XMLID_9_" class="st0" d="M119.2,38.8c0.3-0.3,0.6-0.4,0.9-0.2s0.6,0.4,0.6,0.8s0,0.7-0.3,1c-0.6,0.6-1.4,1.3-2.4,2.1
		c-1,0.8-2.1,1.6-3.4,2.5c-1.3,0.9-2.6,1.6-3.8,2.1c-1.3,0.5-2.5,0.9-3.7,1.1c-1.2,0.2-2.1,0-3-0.5c-0.9-0.6-1.4-1.5-1.7-2.9
		c-0.3,0.2-0.6,0.5-1,0.8c-0.4,0.3-0.7,0.6-1,0.9c-0.3,0.3-0.6,0.5-1,0.8c-0.4,0.3-0.8,0.5-1.1,0.8c-0.3,0.2-0.7,0.4-1.1,0.6
		c-0.4,0.2-0.8,0.3-1.2,0.4c-0.4,0.1-0.8,0.1-1.2,0.1c-0.4,0-0.8,0-1.2-0.2c-0.8-0.2-1.4-0.6-1.8-1.2s-0.6-1.3-0.6-1.9
		c0-0.7,0.1-1.4,0.3-2.2c0.4-1.4,1.1-2.7,2.2-3.7c1.1-1,2.3-1.8,3.6-2.2c1.3-0.4,2.7-0.6,4.2-0.5c1.5,0.1,2.8,0.5,4.1,1.3
		c0.6,0.3,0.7,0.8,0.3,1.3c-0.4,0.5-0.9,0.6-1.4,0.3c-2.5-1.5-5.1-1.4-7.8,0.1c-0.5,0.3-1,0.7-1.5,1.1c-0.4,0.4-0.9,0.9-1.3,1.4
		c-0.4,0.6-0.6,1.1-0.6,1.6c0,0.5,0.2,1.1,0.7,1.6c0.5,0.5,1,0.8,1.6,0.8s1.2-0.2,1.9-0.6c0.6-0.4,1.2-0.8,1.8-1.3
		c0.6-0.5,1.2-1,1.9-1.5c0.7-0.6,1.2-1,1.6-1.3c0.3-0.2,0.7-0.2,1,0.1c0.3,0.3,0.5,0.6,0.5,0.9c0.1,3.7,2.6,4.1,7.6,1.2
		c2.7-1.6,5.1-3.4,7.2-5.4C119,38.9,119.1,38.8,119.2,38.8z"/>
	<path id="XMLID_11_" class="st0" d="M151.8,24.2c0.4,0,0.7,0.1,0.9,0.4c0.2,0.3,0.3,0.6,0.2,1c-0.1,0.4-0.4,0.6-0.8,0.6
		c-9.3,1.1-18.9,2.5-28.8,4.2c-3.2,13.6-5.2,27.4-6,41.4c0,0.4-0.2,0.7-0.6,0.8c-0.3,0.1-0.7,0.1-1-0.1s-0.5-0.5-0.5-0.9
		c0.8-13.8,2.7-27.4,5.8-40.8c-5,0.9-9.5,1.7-13.5,2.4c-0.2,0-0.4,0-0.6-0.1c-0.2-0.1-0.3-0.2-0.4-0.4c-0.1-0.2-0.1-0.4-0.1-0.6
		c0-0.2,0.1-0.4,0.2-0.5c0.2-0.2,0.3-0.3,0.6-0.4c4.1-0.8,8.9-1.6,14.4-2.6c0.9-3.9,1.9-7.5,2.8-10.8c0.1-0.4,0.4-0.6,0.7-0.6
		c0.4,0,0.7,0.1,0.9,0.4c0.3,0.3,0.3,0.6,0.3,1c-0.8,2.8-1.7,6-2.6,9.7C133.4,26.7,142.8,25.3,151.8,24.2z"/>
	<path id="XMLID_13_" class="st0" d="M151.8,38.9c0.2-0.3,0.5-0.5,0.9-0.4c0.4,0.1,0.6,0.3,0.8,0.6c0.1,0.3,0.1,0.7,0,1
		c-1.2,1.7-2.9,3.3-5,4.6s-4,2.1-5.9,2c-0.6,0-1.1-0.2-1.6-0.4s-1-0.5-1.3-0.8c-0.3-0.3-0.7-0.7-1.2-1.3c-0.4-0.6-0.8-1-1-1.3
		c-0.2-0.3-0.5-0.9-0.9-1.6c-0.4-0.7-0.7-1.1-0.8-1.4c0,0-0.1-0.3-0.5-0.9c-0.3-0.6-0.6-1.1-0.9-1.6c-0.3-0.4-0.5-0.7-0.7-0.8
		c-0.3,0-0.6,0-0.9,0.1s-0.5,0.2-0.6,0.4c-0.2,0.1-0.3,0.4-0.5,0.7c-0.2,0.3-0.3,0.6-0.4,0.8c-0.1,0.2-0.2,0.5-0.3,0.9
		c-0.1,0.4-0.2,0.6-0.3,0.7c-0.2,0.6-0.4,1.2-0.6,1.9c-0.2,0.7-0.4,1.5-0.6,2.3c-0.2,0.8-0.4,1.4-0.6,2c-0.1,0.3-0.2,0.5-0.3,0.7
		c-0.1,0.2-0.2,0.4-0.3,0.8c-0.1,0.3-0.3,0.6-0.4,0.8c-0.1,0.2-0.3,0.4-0.5,0.6c-0.2,0.2-0.4,0.4-0.6,0.5c-0.2,0.1-0.4,0.1-0.7,0.1
		c-0.3,0-0.5-0.1-0.8-0.3c-0.4-0.2-0.7-0.5-0.7-1c0.1-13.7,2.8-27.7,8-42c0.1-0.4,0.4-0.6,0.8-0.6c0.4-0.1,0.7,0.1,0.9,0.3
		c0.3,0.3,0.3,0.6,0.2,1c-3.7,10.3-6.1,20.7-7.2,31.1c-0.1,1.2-0.3,3.6-0.5,7v1.8c0,0,0-0.3,0.2-0.8l0.3-1c0-0.2,0.1-0.6,0.3-1.2
		c0.2-0.6,0.3-1,0.3-1.3c0.1-0.3,0.2-0.7,0.3-1.2c0.2-0.5,0.3-1,0.4-1.3c0.1-0.3,0.3-0.7,0.4-1.2c0.2-0.4,0.3-0.8,0.5-1.2
		c0.5-1,1-1.7,1.6-2.3c0.6-0.6,1.3-0.9,2.1-0.9c0.8,0,1.5,0.4,2.3,1.2c0.6,0.7,1.4,1.9,2.3,3.8c0.9,1.8,1.8,3.1,2.5,3.8
		c0.9,0.8,1.9,1.1,3,1.1s2.1-0.3,3.2-0.9c1.1-0.6,2.1-1.3,3-2.1C150.4,40.6,151.2,39.7,151.8,38.9z"/>
	<path id="XMLID_15_" class="st0" d="M249,40.5c0.4-0.2,0.7-0.1,1,0.1c0.3,0.3,0.4,0.6,0.4,0.9c0,0.4-0.2,0.6-0.6,0.8
		c-6.7,2.6-13.3,5.6-19.5,8.8c3.4,1.7,5.2,3.9,5.2,6.4c0,1.2-0.3,2.4-1,3.7c-0.7,1.3-1.5,2.4-2.4,3.5c-1,1-2.1,2.1-3.3,3.2
		c-1.3,1.1-2.4,2-3.5,2.7c-1,0.7-2.1,1.4-3.1,2c-7.4,4.6-13.5,6.3-18,5.2c-1.2-0.3-2.2-0.7-2.8-1.4c-0.6-0.7-1-1.4-1-2.3
		c0-0.9,0.1-1.8,0.4-2.7c0.3-0.9,0.7-1.9,1.3-2.9c0.5-1,1.2-1.9,1.9-2.8s1.5-1.7,2.5-2.5c0.9-0.8,1.8-1.5,2.6-2.2
		c0.8-0.6,1.8-1.3,3-2c1.2-0.7,2.2-1.3,3-1.8c0.8-0.5,1.8-1,3.2-1.8c1.3-0.7,2.3-1.3,2.9-1.6c1.2-0.7,2.7-1.6,4.3-2.5
		c-0.9-0.3-1.8-0.6-2.6-0.9c-0.9-0.3-1.9-0.5-2.9-0.8c-1-0.2-1.9-0.4-2.7-0.6c-0.8-0.2-1.8-0.3-3-0.5c-1.2-0.2-2.1-0.3-2.7-0.4
		c-0.6-0.1-1.6-0.2-3-0.4c-1.4-0.1-2.3-0.3-2.8-0.3c-0.4-0.1-1.4-0.2-3-0.3c-1.5-0.2-2.5-0.3-2.7-0.3c-3.4-0.4-5.8-0.6-7.1-0.8
		c-1.3-0.1-3.3-0.4-6.1-0.8c-2.8-0.4-5.2-0.9-7.3-1.4c-2.1-0.5-4.2-1.1-6.2-1.8c-6.2-2.2-8.8-5.4-7.9-9.7c0.1-0.5,0.3-1.1,0.6-1.6
		c0.3-0.6,0.6-1,0.8-1.4c0.2-0.4,0.6-0.8,1.2-1.4c0.6-0.6,1-1,1.2-1.1c0.2-0.2,0.7-0.6,1.4-1.2c0.8-0.6,1.2-1,1.3-1
		c3.3-2.9,6.9-5.5,10.7-7.9c7.4-4.7,15.2-8.2,23.5-10.6c0.2-0.1,0.7-0.3,1.5-0.5c0.8-0.2,1.4-0.4,1.8-0.5c0.5-0.1,1.1-0.3,1.9-0.5
		c0.8-0.2,1.5-0.4,2.1-0.4c0.6-0.1,1.3-0.1,2-0.2c0.8,0,1.4,0,2,0.1c0.6,0.1,1.1,0.3,1.7,0.5c0.6,0.2,1.1,0.5,1.5,1
		c0.5,0.4,0.8,0.9,1.1,1.5c0.2,0.6,0.3,1.2,0.3,1.8c0,0.6-0.2,1.2-0.5,1.9c-0.4,0.7-0.8,1.3-1.2,1.8c-0.4,0.5-0.9,1.1-1.5,1.6
		c-0.6,0.6-1.1,1-1.6,1.4c-0.5,0.4-1,0.7-1.5,1.1c-0.3,0.2-0.7,0.3-1,0.1c-0.4-0.2-0.6-0.4-0.6-0.8c0-0.3,0.1-0.6,0.4-0.9
		c2.5-1.7,4-3.3,4.7-4.5c0.4-1,0.5-1.8,0.3-2.5c-0.2-0.7-0.7-1.1-1.4-1.4c-0.7-0.2-1.5-0.4-2.4-0.5c-0.9-0.1-1.8,0-2.7,0.2
		c-4.1,0.6-9.3,2.2-15.5,4.8c-10.8,4.4-20,10.3-27.5,17.6c-5.2,5-3.2,9,5.9,12c4.1,1.3,9.8,2.5,17.3,3.4c1.5,0.2,3.8,0.4,6.8,0.7
		c3,0.3,5.4,0.6,7.3,0.8c1.8,0.2,4,0.5,6.6,0.9c2.6,0.4,4.9,0.9,7,1.4c3.4,0.8,5.8,1.5,7.1,1.9C234.6,46.6,241.7,43.4,249,40.5z
		 M228.5,52.7c-0.1,0-0.2-0.1-0.3-0.1c-0.1-0.1-0.2-0.1-0.3-0.1c-3.2,1.7-6.3,3.5-9.2,5.2c-0.4,0.3-1.4,0.8-2.8,1.6
		c-1.5,0.8-2.5,1.5-3.3,1.9c-0.7,0.5-1.7,1.1-2.8,1.9c-1.1,0.8-2.1,1.6-2.9,2.4c-0.8,0.8-1.5,1.7-2.1,2.6c-0.5,0.8-1,1.6-1.3,2.3
		c-0.3,0.8-0.6,1.5-0.7,2.3c-0.1,0.8,0.1,1.5,0.6,2.1c0.5,0.6,1.3,1,2.3,1.3c0.2,0.1,0.5,0.1,0.8,0.1c0.3,0,0.6,0,0.9,0s0.6,0,1-0.1
		c0.4-0.1,0.7-0.1,0.9-0.2s0.6-0.1,1-0.3c0.5-0.1,0.7-0.2,0.9-0.3c0.1-0.1,0.4-0.2,0.9-0.3c0.5-0.1,0.7-0.2,0.8-0.2
		c2.6-0.8,5.8-2.6,9.8-5.2c5.8-3.9,9.2-7.4,10-10.5C233.4,56.4,232,54.3,228.5,52.7z"/>
	<path id="XMLID_18_" class="st0" d="M284.5,24.2c0.4,0,0.7,0.1,0.9,0.4c0.2,0.3,0.3,0.6,0.2,1c-0.1,0.4-0.4,0.6-0.8,0.6
		c-9.3,1.1-18.9,2.5-28.8,4.2c-3.2,13.6-5.2,27.4-6,41.4c0,0.4-0.2,0.7-0.6,0.8c-0.3,0.1-0.7,0.1-1-0.1S248,72,248,71.6
		c0.8-13.8,2.7-27.4,5.8-40.8c-5,0.9-9.5,1.7-13.5,2.4c-0.2,0-0.4,0-0.6-0.1c-0.2-0.1-0.3-0.2-0.4-0.4c-0.1-0.2-0.1-0.4-0.1-0.6
		c0-0.2,0.1-0.4,0.2-0.5c0.2-0.2,0.3-0.3,0.6-0.4c4.1-0.8,8.9-1.6,14.4-2.6c0.9-3.9,1.9-7.5,2.8-10.8c0.1-0.4,0.4-0.6,0.7-0.6
		c0.4,0,0.7,0.1,0.9,0.4c0.3,0.3,0.3,0.6,0.3,1c-0.8,2.8-1.7,6-2.6,9.7C266.1,26.7,275.5,25.3,284.5,24.2z"/>
	<path id="XMLID_20_" class="st0" d="M278.4,39c0.2-0.2,0.4-0.3,0.6-0.3c0.2,0,0.4,0.1,0.6,0.2c0.2,0.1,0.3,0.3,0.4,0.5
		c0.1,0.2,0.1,0.4,0.1,0.6c0,0.2-0.1,0.4-0.3,0.6c-2.4,1.9-5.1,2.8-8.1,2.7c-3-0.1-5.6-1.2-7.8-3.2c-1.2,1.4-2.2,3.1-3,5.1
		c-0.8,2-1.4,4.1-1.9,6.2c-0.1,0.4-0.3,0.7-0.6,0.8c-0.3,0.1-0.6,0.1-1-0.1c-0.3-0.2-0.4-0.5-0.4-1c0.1-4.5,1-9.8,2.6-15.6
		c0.1-0.4,0.3-0.6,0.7-0.6c0.4,0,0.7,0.1,1,0.4c0.3,0.3,0.3,0.6,0.3,1c-0.6,2-1,4-1.5,5.9c0.9-1.7,2-3.1,3.1-4.3
		c0.2-0.2,0.4-0.3,0.7-0.3c0.3,0,0.5,0.1,0.7,0.4c1.8,2,4.1,3.1,6.8,3.3C273.9,41.4,276.3,40.7,278.4,39z"/>
	<path id="XMLID_22_" class="st0" d="M303,38.8c0.3-0.3,0.6-0.4,0.9-0.2c0.3,0.1,0.6,0.4,0.6,0.8c0.1,0.4,0,0.7-0.3,1
		c-0.6,0.6-1.4,1.3-2.4,2.1c-1,0.8-2.1,1.6-3.4,2.5c-1.3,0.9-2.6,1.6-3.9,2.1c-1.3,0.5-2.5,0.9-3.6,1.1c-1.2,0.2-2.2,0-3-0.5
		c-0.9-0.6-1.4-1.5-1.7-2.9c-0.3,0.2-0.6,0.5-1,0.8c-0.4,0.3-0.7,0.6-1,0.9c-0.3,0.3-0.7,0.5-1.1,0.8c-0.4,0.3-0.8,0.5-1.1,0.8
		c-0.3,0.2-0.7,0.4-1.1,0.6c-0.4,0.2-0.8,0.3-1.2,0.4c-0.4,0.1-0.8,0.1-1.2,0.1c-0.4,0-0.8,0-1.2-0.2c-0.8-0.2-1.4-0.6-1.8-1.2
		c-0.4-0.6-0.6-1.3-0.6-1.9c0-0.7,0.1-1.4,0.3-2.2c0.4-1.4,1.1-2.7,2.2-3.7c1.1-1,2.3-1.8,3.6-2.2c1.3-0.4,2.7-0.6,4.2-0.5
		c1.5,0.1,2.8,0.5,4.1,1.3c0.6,0.3,0.7,0.8,0.3,1.3c-0.4,0.5-0.9,0.6-1.4,0.3c-2.5-1.5-5.1-1.4-7.8,0.1c-0.5,0.3-1,0.7-1.5,1.1
		s-0.9,0.9-1.3,1.4c-0.4,0.6-0.6,1.1-0.6,1.6c0,0.5,0.2,1.1,0.7,1.6c0.5,0.5,1,0.8,1.6,0.8c0.6,0,1.2-0.2,1.9-0.6
		c0.6-0.4,1.2-0.8,1.8-1.3c0.6-0.5,1.2-1,1.9-1.5c0.7-0.6,1.2-1,1.6-1.3c0.3-0.2,0.7-0.2,1,0.1c0.3,0.3,0.5,0.6,0.5,0.9
		c0.1,3.7,2.6,4.1,7.5,1.2c2.7-1.6,5.1-3.4,7.2-5.4C302.9,38.9,302.9,38.8,303,38.8z"/>
	<path id="XMLID_24_" class="st0" d="M336.4,38.8c0.3-0.3,0.6-0.4,1-0.4c0.4,0.1,0.7,0.3,0.8,0.6c0.1,0.3,0.1,0.6-0.1,1
		c-0.8,1-1.8,2.1-3,3.2c-1.1,1.1-2.5,2.2-4,3.3c-1.5,1.1-3,1.9-4.5,2.5c-1.5,0.6-3,0.9-4.5,0.7c-1.5-0.1-2.9-0.8-4-2
		c-0.6-0.7-1.4-1.6-2.4-2.9c-1-1.3-1.8-2.2-2.2-2.8c-0.3-0.3-0.6-0.5-0.8-0.7c-0.3-0.2-0.5-0.3-0.7-0.4c-0.2-0.1-0.4-0.1-0.6,0
		c-0.2,0.1-0.4,0.2-0.6,0.3c-0.2,0.1-0.3,0.3-0.6,0.5c-0.2,0.3-0.4,0.5-0.5,0.6c-0.1,0.2-0.3,0.4-0.5,0.8c-0.3,0.4-0.5,0.6-0.5,0.8
		c-0.2,0.3-0.6,1.1-1.3,2.5c-0.7,1.4-1.5,2.6-2.2,3.6c-0.8,1-1.5,1.5-2.1,1.6c-0.4,0.1-0.7-0.1-1-0.4c-0.2-0.3-0.4-0.7-0.5-1.1
		c-0.1-0.4-0.2-0.9-0.1-1.4s0.1-1,0.1-1.3c0-0.3,0.1-0.8,0.3-1.5c0.1-0.7,0.2-1,0.3-1.1c0.2-1.3,0.6-3.1,1.2-5.4
		c0.6-2.4,0.9-3.8,1-4.2c0.1-0.4,0.3-0.6,0.7-0.8c0.4-0.1,0.7-0.1,1,0.1c0.3,0.2,0.4,0.5,0.3,0.9c-0.2,0.7-0.5,1.9-0.9,3.6
		c-0.4,1.7-0.7,3-0.9,3.9c-0.4,2-0.7,3.3-0.8,4.1c0,0.1,0,0.3,0,0.4c0.3-0.5,0.6-1,1-1.6c0.4-0.6,0.9-1.2,1.3-1.8
		c0.5-0.6,0.8-1.1,1-1.5c0.1-0.1,0.2-0.3,0.4-0.6c0.2-0.3,0.3-0.5,0.5-0.7c0.1-0.2,0.3-0.4,0.5-0.7c0.2-0.3,0.4-0.5,0.5-0.7
		c0.2-0.2,0.3-0.4,0.5-0.6c0.2-0.2,0.4-0.4,0.6-0.5c0.2-0.2,0.4-0.3,0.6-0.4c0.5-0.1,1-0.2,1.4-0.2c0.4,0,0.8,0.1,1.3,0.5
		c0.5,0.3,0.9,0.6,1.2,0.9c0.3,0.3,0.7,0.8,1.2,1.3c0.4,0.5,0.8,1,1,1.4c0.3,0.4,0.6,0.9,0.9,1.3c0.3,0.5,0.6,0.8,0.8,1.1
		c1.2,1.4,2.2,2.3,3.2,2.5c0.9,0.3,2.3,0.1,4-0.6C329.7,45.4,333.3,42.7,336.4,38.8z"/>
	<path id="XMLID_26_" class="st0" d="M349.1,20.6c-0.4,3.3-0.7,5.9-0.9,7.9c-0.2,1.9-0.4,4.4-0.6,7.5c-0.2,3.1-0.2,5.7-0.1,7.9
		c0.1,2.2,0.4,4.7,0.8,7.3c0.4,2.7,1,5.2,1.8,7.5c0.1,0.4,0.1,0.7-0.2,1s-0.6,0.4-0.9,0.4c-0.4,0-0.6-0.2-0.8-0.6
		c-2.2-6.4-3.1-14.1-2.7-23.2c-1.9,5.6-4.5,10.1-7.8,13.5c-0.6,0.6-1.2,1.1-1.9,1.5c-0.7,0.4-1.4,0.7-2.1,0.8
		c-0.7,0.1-1.2-0.1-1.7-0.6s-0.7-1.3-0.8-2.4c0-2.2,0.7-4.4,2.2-6.7c1.5-2.3,3.3-3.8,5.3-4.6c0.6-0.2,1,0,1.3,0.5
		c0.3,0.6,0.1,1-0.5,1.3c-2.2,0.8-4,2.7-5.3,5.8c-1.1,2.5-1.3,3.9-0.5,4.1c0.5,0.1,1.3-0.3,2.5-1.3c2.5-2.1,4.6-5.8,6.5-11.3
		c2.4-7,4.2-16.1,5.3-27.3c0-0.4,0.2-0.7,0.6-0.8c0.3-0.1,0.7-0.1,1,0.1c0.3,0.2,0.5,0.5,0.4,0.9c-0.1,1-0.2,2.2-0.3,3.5
		C349.7,16.3,349.4,18.6,349.1,20.6z"/>
	<path id="XMLID_28_" class="st0" d="M352.7,37.6c0.2-0.4,0.4-0.6,0.8-0.6c0.4,0,0.7,0.1,0.9,0.3c0.3,0.3,0.3,0.6,0.2,1
		c-1.7,4.3-2.5,8.6-2.4,13c0,0.6-0.3,0.9-0.9,0.9c-0.6,0-1-0.3-1.1-0.8c0-0.1,0-0.2,0-0.3C350.1,46.6,350.9,42.1,352.7,37.6z
		 M356.1,31.9c0.2,0.6,0.1,1-0.5,1.4l-3.5,2.1c-0.2,0.1-0.5,0.1-0.8,0c-0.3-0.1-0.5-0.3-0.5-0.5c-0.2-0.5-0.1-1,0.5-1.4l3.5-2.1
		c0.2-0.1,0.5-0.1,0.8,0C355.8,31.5,356,31.6,356.1,31.9z"/>
	<path id="XMLID_31_" class="st0" d="M390.7,38.8c0.3-0.3,0.6-0.4,1-0.4c0.4,0.1,0.7,0.3,0.8,0.6c0.1,0.3,0.1,0.6-0.1,1
		c-0.8,1-1.8,2.1-3,3.2c-1.1,1.1-2.5,2.2-4,3.3c-1.5,1.1-3,1.9-4.5,2.5c-1.5,0.6-3,0.9-4.5,0.7c-1.5-0.1-2.9-0.8-4-2
		c-0.6-0.7-1.4-1.6-2.4-2.9c-1-1.3-1.8-2.2-2.2-2.8c-0.3-0.3-0.6-0.5-0.8-0.7c-0.3-0.2-0.5-0.3-0.7-0.4c-0.2-0.1-0.4-0.1-0.6,0
		c-0.2,0.1-0.4,0.2-0.6,0.3c-0.2,0.1-0.3,0.3-0.6,0.5c-0.2,0.3-0.4,0.5-0.5,0.6c-0.1,0.2-0.3,0.4-0.5,0.8c-0.3,0.4-0.5,0.6-0.5,0.8
		c-0.2,0.3-0.6,1.1-1.3,2.5c-0.7,1.4-1.5,2.6-2.2,3.6c-0.8,1-1.5,1.5-2.1,1.6c-0.4,0.1-0.7-0.1-1-0.4c-0.2-0.3-0.4-0.7-0.5-1.1
		c-0.1-0.4-0.2-0.9-0.1-1.4s0.1-1,0.1-1.3c0-0.3,0.1-0.8,0.3-1.5c0.1-0.7,0.2-1,0.3-1.1c0.2-1.3,0.6-3.1,1.2-5.4
		c0.6-2.4,0.9-3.8,1-4.2c0.1-0.4,0.3-0.6,0.7-0.8c0.4-0.1,0.7-0.1,1,0.1c0.3,0.2,0.4,0.5,0.3,0.9c-0.2,0.7-0.5,1.9-0.9,3.6
		c-0.4,1.7-0.7,3-0.9,3.9c-0.4,2-0.7,3.3-0.8,4.1c0,0.1,0,0.3,0,0.4c0.3-0.5,0.6-1,1-1.6c0.4-0.6,0.9-1.2,1.3-1.8
		c0.5-0.6,0.8-1.1,1-1.5c0.1-0.1,0.2-0.3,0.4-0.6c0.2-0.3,0.3-0.5,0.5-0.7c0.1-0.2,0.3-0.4,0.5-0.7c0.2-0.3,0.4-0.5,0.5-0.7
		c0.2-0.2,0.3-0.4,0.5-0.6c0.2-0.2,0.4-0.4,0.6-0.5c0.2-0.2,0.4-0.3,0.6-0.4c0.5-0.1,1-0.2,1.4-0.2c0.4,0,0.8,0.1,1.3,0.5
		c0.5,0.3,0.9,0.6,1.2,0.9c0.3,0.3,0.7,0.8,1.2,1.3c0.4,0.5,0.8,1,1,1.4c0.3,0.4,0.6,0.9,0.9,1.3c0.3,0.5,0.6,0.8,0.8,1.1
		c1.2,1.4,2.2,2.3,3.2,2.5c0.9,0.3,2.3,0.1,4-0.6C383.9,45.4,387.5,42.7,390.7,38.8z"/>
	<path id="XMLID_33_" class="st0" d="M414.4,37.8c0.3-0.2,0.7-0.3,1-0.1c0.4,0.2,0.6,0.4,0.6,0.8c0,0.3-0.1,0.6-0.4,0.9
		c-5,3.5-8.8,6.3-11.5,8.4c0.1,0.2,0.2,0.5,0.3,0.9c1.8,5.5,2,10.4,0.8,14.5c-0.7,2.2-1.8,4.4-3.4,6.7s-3.4,4.3-5.6,6.2
		c-2.2,1.8-4.3,3-6.5,3.6c-1.7,0.4-3.2,0.4-4.3-0.1c-1.1-0.5-1.9-1.3-2.3-2.4c-0.4-1.1-0.6-2.3-0.6-3.7s0.2-2.8,0.6-4.1
		c0.4-1.4,0.9-2.6,1.5-3.7c1.9-3.4,4.3-6.7,7.2-9.7c2.9-3,6.2-6,10-8.9c-1.5-3.8-2.6-5.7-3.5-5.8c-0.5,0-1,0.2-1.5,0.6
		c-0.5,0.4-1.1,1-1.7,1.8c-0.6,0.8-1,1.2-1,1.3c-0.1,0-0.2,0.2-0.5,0.5s-0.5,0.5-0.6,0.6c-0.1,0.1-0.3,0.3-0.6,0.6
		c-0.3,0.3-0.5,0.5-0.8,0.6c-0.2,0.1-0.5,0.3-0.8,0.5c-0.3,0.2-0.6,0.4-0.8,0.4c-0.2,0.1-0.5,0.1-0.8,0.2c-0.3,0.1-0.6,0-0.8,0
		c-0.3-0.1-0.5-0.2-0.8-0.3c-1.9-1.2-1.8-3.2,0.2-5.8c1.5-2,3.5-3.7,5.9-5c1.3-0.7,2.4-1,3.2-0.9c0.4,0.1,0.7,0.3,0.8,0.6
		c0.1,0.4,0.1,0.7-0.1,1c-0.2,0.3-0.5,0.4-1,0.4c-1.2-0.1-2.6,0.5-4.3,1.9c-1.7,1.4-2.8,2.7-3.1,3.9c-0.5,1.6-0.1,2,1.1,1.3
		c0.8-0.6,2-1.7,3.6-3.5c0.1-0.2,0.3-0.4,0.6-0.7s0.5-0.5,0.6-0.7c0.2-0.2,0.4-0.4,0.7-0.7c0.3-0.3,0.5-0.5,0.7-0.6
		c0.2-0.1,0.5-0.3,0.8-0.4c0.3-0.1,0.6-0.2,0.8-0.1c0.2,0,0.5,0.1,0.9,0.1c1.6,0.6,3.1,2.8,4.5,6.6
		C405.2,44.4,408.8,41.8,414.4,37.8z M400.7,67.3c3.5-5.3,4.1-11.4,1.9-18.2c-2,1.6-3.8,3.1-5.4,4.5c-4.1,3.8-7.1,7.1-9,9.9
		c-0.6,0.9-1,1.6-1.3,2.1c-0.3,0.5-0.8,1.4-1.3,2.5s-0.9,2.1-1.2,2.9c-0.2,0.8-0.3,1.7-0.3,2.7c0.1,1,0.3,1.8,0.8,2.5
		c0.9,1.2,1.9,1.8,3.2,1.8s2.5-0.4,3.7-1.2c1.2-0.8,2.5-1.9,3.8-3.2s2.3-2.5,3.1-3.5C399.5,69,400.2,68.1,400.7,67.3z"/>
</g>
</svg>
