<?xml version="1.0" encoding="utf-8"?>
<!-- Generator: Adobe Illustrator 19.0.0, SVG Export Plug-In . SVG Version: 6.00 Build 0)  -->
<svg version="1.1" id="Layer_1" xmlns="http://www.w3.org/2000/svg" xmlns:xlink="http://www.w3.org/1999/xlink" x="0px" y="0px"
	 viewBox="0 0 272.1 84.3" style="enable-background:new 0 0 272.1 84.3;" xml:space="preserve">
<style type="text/css">
	.st0{fill:#FFFFFF;}
</style>
<g id="XMLID_106_">
	<path id="XMLID_107_" class="st0" d="M47.5,21.4c0.2,3.9,0.1,8.3,0,13.4c-0.2,5-0.5,9.5-0.8,13.4c-0.3,3.9-0.5,8.3-0.5,13.4
		c0,5,0.2,9.5,0.6,13.3c0,0.4-0.1,0.7-0.4,0.9c-0.3,0.2-0.6,0.3-1,0.1c-0.4-0.1-0.5-0.4-0.6-0.8c-0.5-4.1-0.7-8.6-0.6-13.6
		c0.1-5,0.3-9.6,0.6-13.7c0.3-4.1,0.6-8.7,0.8-13.7c0.2-5,0.1-9.6-0.1-13.6c0,0-0.1-0.4-0.1-1.1c0-0.7,0-1.3-0.1-1.9
		c0-0.5-0.1-1.1-0.2-1.8C45,15,44.8,14.4,44.6,14c-0.2-0.4-0.4-0.7-0.7-0.8c-0.2-0.1-0.5,0-0.8,0.1c-0.3,0.2-0.6,0.4-0.9,0.8
		c-0.3,0.4-0.6,0.7-0.9,1.1c-0.3,0.4-0.5,0.8-0.8,1.4c-0.3,0.5-0.5,0.9-0.7,1.3c-0.2,0.3-0.4,0.7-0.6,1.1c-0.2,0.4-0.3,0.6-0.3,0.7
		c-0.5,0.9-1.8,3.8-4,8.6c-2.2,4.8-4,8.4-5.6,10.7c-0.5,0.6-1,1.2-1.5,1.8c-0.5,0.5-1.1,1-1.8,1.5c-0.7,0.4-1.3,0.6-2,0.4
		c-0.7-0.1-1.2-0.7-1.7-1.5c-0.2-0.4-0.4-0.9-0.5-1.5c-0.1-0.6-0.2-1.1-0.2-1.7c0-0.6,0-1.1,0-1.7c0-0.6,0-1.1,0-1.6
		c0-0.4,0-4.2,0-11.3c0.1-5.6-0.1-9.9-0.4-12.8c-0.7-5.9-1.7-8.8-3.1-8.8c-0.4,0-0.9,0.5-1.4,1.4c-0.5,1-1.1,2.2-1.6,3.7
		c-0.5,1.5-1,3-1.4,4.3c-0.4,1.3-0.8,2.7-1.1,4.1c-0.4,1.4-0.5,2.1-0.5,2.2C9.2,27.8,6.8,37.1,5,45.3c-1.8,8.2-2.8,16.3-3,24
		c0,0.4-0.2,0.7-0.5,0.8c-0.4,0.1-0.7,0.1-1-0.1C0.2,69.9,0,69.6,0,69.2c0.1-3.2,0.4-6.8,1-10.6c0.5-3.9,1.1-7.1,1.6-9.8
		c0.5-2.7,1.3-6.1,2.3-10.4c2.7-12,5.4-21.8,8.1-29.4c0-0.1,0.2-0.7,0.5-1.7c0.3-1,0.6-1.8,0.9-2.5c0.3-0.7,0.6-1.4,1-2.3
		c0.4-0.9,0.9-1.5,1.4-1.9c0.5-0.4,1.1-0.6,1.7-0.6c0.7,0,1.3,0.3,1.8,0.7c0.5,0.5,1,1,1.3,1.6s0.7,1.4,0.9,2.4
		c0.3,1,0.5,1.8,0.6,2.6C23.2,8,23.3,9,23.4,10c0.1,1.1,0.2,1.9,0.2,2.4c0,0.5,0,1.2,0.1,2c0,0.3,0.1,0.6,0.1,0.7
		c0.1,2.5,0.1,6.9,0,13.1c0,0.5-0.1,1.6-0.2,3.3c-0.1,1.7-0.1,3.2-0.1,4.3c0.1,1.2,0.2,2.2,0.6,3.2c0.7,2.2,2.1,1.6,4.1-1.8
		c0.1-0.2,0.2-0.4,0.4-0.8l0.2-0.3c0.5-0.9,1-1.9,1.6-3c0.6-1.1,1-2,1.4-2.7c0.3-0.7,0.8-1.8,1.4-3.1c0.6-1.4,1.1-2.3,1.3-2.9
		c0.1-0.3,0.5-1.1,1-2.5c0.5-1.4,1.1-2.5,1.5-3.5c0.5-1,1.1-2.1,1.8-3.3c0.7-1.2,1.5-2.2,2.3-2.8c0.8-0.7,1.7-1,2.5-1.1
		c0.6,0,1.1,0.1,1.5,0.4c0.4,0.3,0.8,0.7,1,1.2c0.3,0.5,0.5,1.1,0.6,1.6c0.2,0.5,0.3,1.1,0.4,1.9c0.1,0.8,0.1,1.4,0.2,1.9
		c0,0.5,0.1,1.1,0.1,1.8C47.5,20.8,47.5,21.3,47.5,21.4z"/>
	<path id="XMLID_109_" class="st0" d="M77.5,40.9c0.3-0.3,0.6-0.4,0.9-0.2c0.3,0.1,0.6,0.4,0.6,0.8c0.1,0.4,0,0.7-0.3,1
		c-0.6,0.6-1.4,1.3-2.4,2.1c-1,0.8-2.1,1.6-3.4,2.5c-1.3,0.9-2.6,1.6-3.9,2.1c-1.3,0.5-2.5,0.9-3.6,1.1c-1.2,0.2-2.2,0-3-0.5
		c-0.9-0.6-1.4-1.5-1.7-2.9c-0.3,0.2-0.6,0.5-1,0.8c-0.4,0.3-0.7,0.6-1,0.9c-0.3,0.3-0.6,0.5-1,0.8c-0.4,0.3-0.8,0.5-1.1,0.8
		c-0.3,0.2-0.7,0.4-1.1,0.6c-0.4,0.2-0.8,0.3-1.2,0.4c-0.4,0.1-0.8,0.1-1.2,0.1c-0.4,0-0.8,0-1.2-0.2c-0.8-0.2-1.4-0.6-1.8-1.2
		s-0.6-1.3-0.6-1.9c0-0.7,0.1-1.4,0.3-2.2c0.4-1.4,1.1-2.7,2.2-3.7c1.1-1,2.3-1.8,3.6-2.2c1.3-0.4,2.7-0.6,4.2-0.5
		c1.5,0.1,2.8,0.5,4.1,1.3c0.6,0.3,0.7,0.8,0.3,1.3c-0.4,0.5-0.9,0.6-1.4,0.3c-2.5-1.5-5.1-1.4-7.8,0.1c-0.5,0.3-1,0.7-1.5,1.1
		c-0.4,0.4-0.9,0.9-1.3,1.4c-0.4,0.6-0.6,1.1-0.6,1.6c0,0.5,0.2,1.1,0.7,1.6c0.5,0.5,1,0.8,1.6,0.8s1.2-0.2,1.9-0.6
		c0.6-0.4,1.2-0.8,1.8-1.3c0.6-0.5,1.2-1,1.9-1.5c0.7-0.6,1.2-1,1.6-1.3c0.3-0.2,0.7-0.2,1,0.1c0.3,0.3,0.5,0.6,0.5,0.9
		c0.1,3.7,2.6,4.1,7.5,1.2c2.7-1.6,5.1-3.4,7.2-5.4C77.4,41,77.4,40.9,77.5,40.9z"/>
	<path id="XMLID_111_" class="st0" d="M92.7,41c0.3-0.2,0.7-0.3,1.1-0.1c0.4,0.2,0.6,0.4,0.6,0.8c0,0.3-0.1,0.6-0.4,0.9
		c-2.4,1.7-4.6,3.4-6.6,4.9c0.9,0.6,1.6,1.1,2.2,1.7c0.6,0.5,1.1,1.2,1.6,1.9c0.4,0.7,0.6,1.5,0.5,2.3c-0.1,0.8-0.6,1.7-1.3,2.5
		c-0.7,0.8-1.6,1.6-2.8,2.3c-1.1,0.7-2.3,1.3-3.6,1.6c-1.3,0.4-2.4,0.4-3.6-0.1c-1.1-0.4-1.9-1.3-2.4-2.6c-0.8-2.1,0.4-4.5,3.4-7.3
		c0.7-0.6,1.6-1.4,2.5-2.1c-0.1,0-0.5-0.3-1.3-0.7c-0.8-0.4-1.3-0.7-1.6-0.9c-0.3-0.2-0.7-0.4-1.3-0.9c-0.6-0.4-1-0.8-1.4-1.1
		c-0.3-0.4-0.6-0.8-0.9-1.2c-1-1.8-0.5-3.8,1.7-6.1c1.9-1.9,4-3.2,6.4-3.8c2.7-0.6,4.4,0,5.1,1.8c0.1,0.3,0.2,0.6,0.3,1
		c0,0.4-0.1,0.7-0.4,0.9c-0.3,0.2-0.6,0.3-1,0.1c-0.4-0.1-0.6-0.4-0.6-0.8c-0.3-1.8-2-1.8-5.1,0c-1.4,0.8-2.4,1.5-3.1,2.3
		c-0.6,0.6-1,1.1-1.3,1.5c-0.3,0.4-0.3,0.9-0.2,1.4c0.1,0.5,0.5,1.1,1.1,1.6c0.3,0.3,0.6,0.5,1.1,0.8c0.4,0.3,0.7,0.5,1,0.7
		c0.3,0.2,0.7,0.4,1.3,0.7c0.5,0.3,0.9,0.5,1.1,0.6c0.1,0,0.2,0.1,0.4,0.2c0.2,0.1,0.3,0.2,0.4,0.2C87.7,44.6,90.1,42.8,92.7,41z
		 M88.2,55.2c0.4-0.5,0.8-0.9,1-1.4c0.2-0.4,0.3-0.8,0.2-1.2c-0.1-0.4-0.2-0.7-0.4-1.1c-0.2-0.3-0.5-0.7-0.9-1
		c-0.4-0.3-0.8-0.6-1.1-0.9c-0.4-0.3-0.8-0.5-1.3-0.8c-0.9,0.8-1.8,1.5-2.5,2.1c-0.1,0.1-0.4,0.3-0.7,0.6c-0.3,0.3-0.6,0.5-0.8,0.6
		c-0.2,0.2-0.4,0.4-0.6,0.7c-0.2,0.3-0.4,0.6-0.5,0.8c-0.7,1.6-0.7,2.8,0.2,3.5c0.9,0.7,2.1,0.9,3.6,0.5
		C85.6,57.4,86.9,56.5,88.2,55.2z"/>
	<path id="XMLID_114_" class="st0" d="M107.7,41c0.3-0.2,0.7-0.3,1.1-0.1c0.4,0.2,0.6,0.4,0.6,0.8c0,0.3-0.1,0.6-0.4,0.9
		c-2.4,1.7-4.6,3.4-6.6,4.9c0.9,0.6,1.6,1.1,2.2,1.7c0.6,0.5,1.1,1.2,1.6,1.9c0.4,0.7,0.6,1.5,0.5,2.3c-0.1,0.8-0.6,1.7-1.3,2.5
		c-0.7,0.8-1.6,1.6-2.8,2.3c-1.1,0.7-2.3,1.3-3.6,1.6c-1.3,0.4-2.4,0.4-3.6-0.1c-1.1-0.4-1.9-1.3-2.4-2.6c-0.8-2.1,0.4-4.5,3.4-7.3
		c0.7-0.6,1.6-1.4,2.5-2.1c-0.1,0-0.5-0.3-1.3-0.7c-0.8-0.4-1.3-0.7-1.6-0.9c-0.3-0.2-0.7-0.4-1.3-0.9c-0.6-0.4-1-0.8-1.4-1.1
		c-0.3-0.4-0.6-0.8-0.9-1.2c-1-1.8-0.5-3.8,1.7-6.1c1.9-1.9,4-3.2,6.4-3.8c2.7-0.6,4.4,0,5.1,1.8c0.1,0.3,0.2,0.6,0.3,1
		c0,0.4-0.1,0.7-0.4,0.9c-0.3,0.2-0.6,0.3-1,0.1c-0.4-0.1-0.6-0.4-0.6-0.8c-0.3-1.8-2-1.8-5.1,0c-1.4,0.8-2.4,1.5-3.1,2.3
		c-0.6,0.6-1,1.1-1.3,1.5c-0.3,0.4-0.3,0.9-0.2,1.4c0.1,0.5,0.5,1.1,1.1,1.6c0.3,0.3,0.6,0.5,1.1,0.8c0.4,0.3,0.7,0.5,1,0.7
		c0.3,0.2,0.7,0.4,1.3,0.7c0.5,0.3,0.9,0.5,1.1,0.6c0.1,0,0.2,0.1,0.4,0.2c0.2,0.1,0.3,0.2,0.4,0.2C102.7,44.6,105.1,42.8,107.7,41z
		 M103.2,55.2c0.4-0.5,0.8-0.9,1-1.4c0.2-0.4,0.3-0.8,0.2-1.2c-0.1-0.4-0.2-0.7-0.4-1.1c-0.2-0.3-0.5-0.7-0.9-1
		c-0.4-0.3-0.8-0.6-1.1-0.9c-0.4-0.3-0.8-0.5-1.3-0.8c-0.9,0.8-1.8,1.5-2.5,2.1c-0.1,0.1-0.4,0.3-0.7,0.6c-0.3,0.3-0.6,0.5-0.8,0.6
		c-0.2,0.2-0.4,0.4-0.6,0.7c-0.2,0.3-0.4,0.6-0.5,0.8c-0.7,1.6-0.7,2.8,0.2,3.5c0.9,0.7,2.1,0.9,3.6,0.5
		C100.6,57.4,101.9,56.5,103.2,55.2z"/>
	<path id="XMLID_117_" class="st0" d="M173.9,40.2c0.3-0.6,0.8-0.6,1.3-0.2c0.5,0.4,0.6,0.9,0.3,1.4c-7.5,12.4-16.2,21.6-26,27.6
		c-8.4,5-14.6,6.3-18.8,3.9c-0.9-0.5-1.6-1.2-2.1-2.1c-0.5-0.9-0.9-1.8-1-2.7s-0.2-2-0.1-3.1c0.1-1.1,0.3-2.1,0.6-3.1
		c0.3-0.9,0.6-1.9,0.9-2.8c0.8-1.7,1.7-3.4,2.9-5c1.2-1.6,2.5-3.2,4-4.6c1.5-1.4,2.9-2.7,4.3-3.8c1.4-1.1,3-2.3,4.7-3.6
		c2-1.5,5.2-3.6,9.6-6.4c0.2-0.2,0.8-0.5,1.6-0.9c0.8-0.5,1.6-0.9,2.2-1.3c0.6-0.4,1.1-0.8,1.5-1.3c-0.2,0-0.4,0-0.6,0.1
		c-0.2,0.1-0.6,0.1-1,0.1c-0.5,0-0.7,0-0.8,0c-0.8,0.1-2.4,0.4-4.6,0.8c-6.4,1.3-10.4,2.1-12,2.3c-0.1,0-0.4,0-0.6,0.1
		c-1.2,0.2-2.1,0.3-2.8,0.4c-0.7,0.1-1.7,0.2-2.9,0.3c-1.3,0.1-2.4,0.1-3.3,0.1c-0.9-0.1-1.9-0.2-2.9-0.4c-1-0.2-2-0.5-2.8-1
		c-0.8-0.5-1.5-1-2.1-1.8c-0.9-1-1.4-2.2-1.5-3.5s0.1-2.6,0.7-3.8c0.6-1.3,1.2-2.4,1.9-3.4s1.5-2,2.4-3c2.7-3,5.9-5.6,9.5-7.9
		c3.6-2.3,7.4-4.2,11.3-5.7c8.2-3,14.5-2.8,18.8,0.4c0.3,0.3,0.5,0.6,0.4,1c-0.1,0.4-0.3,0.6-0.6,0.8c-0.3,0.1-0.7,0.1-1-0.1
		c-5-3.8-12.9-2.9-23.7,2.9c-10.9,5.8-16.7,11.6-17.6,17.2c-0.5,3.4,1.4,5.4,5.9,6c4,0.5,10.9-0.3,20.5-2.3c4.7-1,7.5-1.5,8.3-1.5
		c0.6,0,1.1,0,1.5,0c0.4,0.1,0.9,0.2,1.3,0.4c0.4,0.2,0.7,0.5,0.7,0.8c0,0.4-0.1,0.9-0.3,1.4c-0.2,0.4-0.6,0.8-1,1.1
		c-0.4,0.4-1,0.8-1.8,1.2c-0.8,0.5-1.2,0.7-1.3,0.8c-0.6,0.4-1.4,0.9-2.3,1.5c-0.9,0.6-1.8,1.1-2.7,1.7c-0.9,0.5-1.6,1.1-2.3,1.5
		c-3.8,2.5-7.1,4.9-9.8,7.2c-2.8,2.3-5.1,4.8-7.1,7.6c-0.6,0.8-1.2,1.8-1.8,2.9c-0.6,1.1-1.1,2.3-1.5,3.7c-0.4,1.4-0.7,2.7-0.8,3.9
		c-0.1,1.2,0.2,2.3,0.8,3.4c0.6,1,1.5,1.7,2.9,2.1c4.5,1.4,10.8-0.8,18.9-6.6C160.1,59.1,167.4,50.9,173.9,40.2z"/>
	<path id="XMLID_119_" class="st0" d="M188.7,43.2c0.4-0.1,0.7,0,0.9,0.3c0.2,0.3,0.3,0.6,0.1,1c-0.1,0.4-0.4,0.6-0.8,0.7
		c-3.4,0.5-6.8,1.6-10,3.2c-0.1,4-0.1,8.1-0.1,12.2c0.6,0.5,1,0.8,1.2,1c2.8,2.6,4.6,6.9,5.4,12.8c0.3,2.2,0.2,4.5-0.3,6.6
		c-0.7,3.4-2.2,4.2-4.5,2.3c-0.7-0.6-1.2-1.3-1.7-2.3c-0.5-1-0.8-2-1.1-2.9c-0.3-1-0.5-2.1-0.6-3.6c-0.1-1.4-0.2-2.6-0.3-3.5
		c0-0.9-0.1-2.1-0.1-3.5c0-1.4,0-2.3,0-2.7c0-0.7-0.1-1.7-0.1-2.9c-3.4-2.6-7.4-3.6-12-3.2c-0.5,0-0.8-0.2-1-0.6
		c-0.2-0.5-0.1-0.8,0.3-1.2c4.6-4.3,8.9-7.6,13-9.8c0.2-4.2,0.5-8.5,0.9-12.8c0-0.4,0.1-1.2,0.2-2.4c0.1-1.1,0.2-2.2,0.2-3.1
		c0.1-0.9,0.2-2.1,0.3-3.4c0.2-1.3,0.4-2.5,0.6-3.5c0.2-1,0.6-2.1,1-3.1c0.4-1,0.9-1.9,1.5-2.5c0.5-0.6,1.2-1.1,2.1-1.4
		c0.8-0.3,1.8-0.4,2.8-0.2c0.4,0.1,0.7,0.3,0.8,0.7c0.1,0.4,0.1,0.7-0.1,1c-0.2,0.3-0.5,0.4-0.9,0.3c-0.8-0.2-1.5,0.1-2.2,0.8
		c-0.7,0.7-1.3,1.8-1.8,3.2c-0.5,1.4-0.9,3-1.3,4.8c-0.4,1.8-0.7,3.9-1,6.3c-0.3,2.3-0.5,4.7-0.6,7c-0.2,2.3-0.3,4.8-0.4,7.4
		C182.2,44.6,185.4,43.7,188.7,43.2z M176.8,59.2c0-3.3,0-6.5,0.1-9.7c-3.1,1.7-6.3,4.1-9.6,7.2C170.9,56.8,174,57.6,176.8,59.2z
		 M183.8,79.3c0.3-3,0-5.8-0.9-8.5c-0.8-2.7-2.1-5-4-6.9c0.1,2.5,0.1,4.2,0.2,5.1c0.3,3.9,0.7,6.9,1.3,9c0.4,1.6,1,2.8,1.8,3.5
		c0.8,0.7,1.2,0.2,1.5-1.4L183.8,79.3z"/>
	<path id="XMLID_123_" class="st0" d="M201,43.2c0.4-0.1,0.7,0,0.9,0.3c0.2,0.3,0.3,0.6,0.1,1c-0.1,0.4-0.4,0.6-0.8,0.7
		c-3.4,0.5-6.8,1.6-10,3.2c-0.1,4-0.1,8.1-0.1,12.2c0.6,0.5,1,0.8,1.2,1c2.8,2.6,4.6,6.9,5.4,12.8c0.3,2.2,0.2,4.5-0.3,6.6
		c-0.7,3.4-2.2,4.2-4.5,2.3c-0.7-0.6-1.2-1.3-1.7-2.3c-0.5-1-0.8-2-1.1-2.9c-0.3-1-0.5-2.1-0.6-3.6c-0.1-1.4-0.2-2.6-0.3-3.5
		c0-0.9-0.1-2.1-0.1-3.5c0-1.4,0-2.3,0-2.7c0-0.7-0.1-1.7-0.1-2.9c-3.4-2.6-7.4-3.6-12-3.2c-0.5,0-0.8-0.2-1-0.6
		c-0.2-0.5-0.1-0.8,0.3-1.2c4.6-4.3,8.9-7.6,13-9.8c0.2-4.2,0.5-8.5,0.9-12.8c0-0.4,0.1-1.2,0.2-2.4c0.1-1.1,0.2-2.2,0.2-3.1
		c0.1-0.9,0.2-2.1,0.3-3.4c0.2-1.3,0.4-2.5,0.6-3.5c0.2-1,0.6-2.1,1-3.1c0.4-1,0.9-1.9,1.5-2.5c0.5-0.6,1.2-1.1,2.1-1.4
		c0.8-0.3,1.8-0.4,2.8-0.2c0.4,0.1,0.7,0.3,0.8,0.7c0.1,0.4,0.1,0.7-0.1,1c-0.2,0.3-0.5,0.4-0.9,0.3c-0.8-0.2-1.5,0.1-2.2,0.8
		c-0.7,0.7-1.3,1.8-1.8,3.2c-0.5,1.4-0.9,3-1.3,4.8c-0.4,1.8-0.7,3.9-1,6.3c-0.3,2.3-0.5,4.7-0.6,7c-0.2,2.3-0.3,4.8-0.4,7.4
		C194.5,44.6,197.7,43.7,201,43.2z M189.1,59.2c0-3.3,0-6.5,0.1-9.7c-3.1,1.7-6.3,4.1-9.6,7.2C183.2,56.8,186.3,57.6,189.1,59.2z
		 M196.1,79.3c0.3-3,0-5.8-0.9-8.5c-0.8-2.7-2.1-5-4-6.9c0.1,2.5,0.1,4.2,0.2,5.1c0.3,3.9,0.7,6.9,1.3,9c0.4,1.6,1,2.8,1.8,3.5
		c0.8,0.7,1.2,0.2,1.5-1.4L196.1,79.3z"/>
	<path id="XMLID_127_" class="st0" d="M220.5,40.8c0.3-0.3,0.6-0.4,1-0.2c0.3,0.1,0.5,0.4,0.6,0.8c0.1,0.3,0,0.7-0.3,1
		c-6.9,7-12.8,9.9-17.8,8.8c-1.8-0.4-3.1-1.2-4-2.3s-1.3-2.4-1.1-3.9c0.2-1.4,0.8-2.8,2-4.1c0.9-1,2.1-1.8,3.5-2.4
		c2.1-0.9,3.2-0.3,3.1,1.6c0,0,0,0.1,0,0.1c0,1.3-0.8,2.5-2.3,3.7c-1.5,1.2-2.9,1.6-4.2,1.1c-0.1,1.5,0.5,2.6,1.9,3.4
		c1.4,0.7,2.9,1,4.6,0.6c2.4-0.4,4.6-1.4,6.6-2.8C216.2,44.8,218.3,43,220.5,40.8z M204.6,40.5c-0.5,0-1,0.3-1.5,0.9
		c-0.5,0.5-1,1.1-1.4,1.8c0.7,0.3,1.5-0.1,2.5-1.2c0.7-0.8,0.8-1.2,0.5-1.4C204.8,40.5,204.7,40.5,204.6,40.5z"/>
	<path id="XMLID_130_" class="st0" d="M238.4,40.5c0.4-0.6,0.8-0.6,1.4-0.2c0.5,0.4,0.6,0.9,0.3,1.4c-1.5,2.4-3.7,4.9-6.6,7.5
		c-5.1,4.7-8.9,6.2-11.5,4.7c-1.2-0.7-2.1-2.1-2.6-4.1c-0.6-2.4-0.4-4.9,0.6-7.5c1-2.6,2.6-4.6,4.7-6c1.3-0.9,2.3-1.2,3.1-0.9
		c0.8,0.3,1.4,0.9,1.8,1.8c0.3,0.9,0.5,2,0.4,3.4c0,0.4-0.2,0.7-0.6,0.8c-0.3,0.1-0.7,0.1-1-0.1c-0.3-0.2-0.5-0.5-0.4-0.9
		c0.1-1.1-0.2-1.8-0.7-2.1c-0.5-0.3-1.1-0.2-1.8,0.2c-0.7,0.4-1.3,0.9-1.8,1.5c-1.1,1.4-1.9,3.1-2.3,5.1c-0.3,1.4-0.3,2.7,0,3.9
		c0.3,1.3,1,2.2,1.9,2.8c1,0.6,2.3,0.5,4-0.3c2.1-1,4.1-2.5,6.1-4.5S236.9,42.8,238.4,40.5z"/>
	<path id="XMLID_132_" class="st0" d="M270.9,26.4c0.4,0,0.7,0.1,0.9,0.4c0.2,0.3,0.3,0.6,0.2,1c-0.1,0.4-0.4,0.6-0.8,0.6
		c-9.3,1.1-18.9,2.5-28.8,4.2c-3.2,13.6-5.2,27.4-6,41.4c0,0.4-0.2,0.7-0.6,0.8c-0.3,0.1-0.7,0.1-1-0.1c-0.3-0.2-0.5-0.5-0.5-0.9
		c0.8-13.8,2.7-27.4,5.8-40.8c-5,0.9-9.5,1.7-13.5,2.4c-0.2,0-0.4,0-0.6-0.1c-0.2-0.1-0.3-0.2-0.4-0.4c-0.1-0.2-0.1-0.4-0.1-0.6
		s0.1-0.4,0.2-0.5c0.2-0.2,0.3-0.3,0.6-0.4c4.1-0.8,8.9-1.6,14.4-2.6c0.9-3.9,1.9-7.5,2.8-10.8c0.1-0.4,0.4-0.6,0.7-0.6
		c0.4,0,0.7,0.1,0.9,0.4c0.3,0.3,0.3,0.6,0.3,1c-0.8,2.8-1.7,6-2.6,9.7C252.6,28.8,261.9,27.5,270.9,26.4z"/>
</g>
</svg>
