<?xml version="1.0" encoding="utf-8"?>
<!-- Generator: Adobe Illustrator 19.0.0, SVG Export Plug-In . SVG Version: 6.00 Build 0)  -->
<svg version="1.1" id="Layer_1" xmlns="http://www.w3.org/2000/svg" xmlns:xlink="http://www.w3.org/1999/xlink" x="0px" y="0px"
	 viewBox="0 0 768.1 183.1" style="enable-background:new 0 0 768.1 183.1;" xml:space="preserve">
<style type="text/css">
	.st0{fill:#FFFFFF;}
</style>
<g id="XMLID_184_">
	<path id="XMLID_185_" class="st0" d="M193.2,85.1c3.2,5.7,4.8,11.4,4.8,17.3c0,5.9-1.2,11.3-3.7,16.3c-2.5,5-5.8,9.7-10,14.3
		c-4.2,4.6-8.8,8.5-13.6,11.9c-4.8,3.4-9.8,6.2-14.9,8.6c-17.7,8.1-36.1,14-55.1,17.7c-19,3.7-37.6,4.6-55.8,2.8
		c-0.5-0.1-1.4-0.1-2.5-0.2c-2.5-0.3-4.5-0.5-6-0.6c-1.4-0.2-3.5-0.4-6.3-0.8c-2.7-0.4-5-0.8-6.9-1.2c-1.8-0.4-4-1-6.4-1.8
		c-2.4-0.7-4.5-1.5-6.1-2.4c-1.7-0.9-3.3-1.9-4.9-3.2c-1.6-1.3-2.9-2.7-3.8-4.2c-1.3-2.1-2-4.3-2.1-6.6c-0.1-2.2,0.3-4.3,1.2-6.2
		c0.9-1.9,2.1-3.8,3.8-5.7c1.6-1.9,3.3-3.5,5-4.8c1.7-1.4,3.6-2.6,5.5-3.8c17.9-10.8,38-19.7,60.4-26.8c1.9-8.9,4.3-17.7,7.3-26.5
		C88.8,44.8,93.1,19,95.9,1.8C96,1,96.4,0.4,97.2,0.2c0.7-0.3,1.4-0.2,2.1,0.2c0.6,0.4,0.9,1,0.8,1.8c-0.9,5.5-2,11.7-3.2,18.8
		c-1.2,7-2.3,14.1-3.5,21.2c-1.2,7.1-2.2,13.3-3,18.8c3.3-7.7,6.9-14.9,10.7-21.6c0.3-0.5,1-1.8,2.1-3.9c1.2-2.1,2-3.6,2.4-4.4
		c0.5-0.8,1.3-2.1,2.5-3.9c1.2-1.9,2.1-3.3,3-4.3c0.8-1,1.8-2.1,2.9-3.5c1.2-1.4,2.4-2.5,3.6-3.5c1.2-0.9,2.5-1.8,3.8-2.5
		c3.3-1.5,6.3-2.3,9.1-2.4c2.8-0.1,5.2,0.7,7.3,2.2c2,1.5,3.6,3.4,4.7,5.7c1.1,2.2,1.6,4.8,1.6,7.8c0,3-0.8,5.9-2.2,8.8
		c-1.7,3.7-4,7.1-6.7,10.4c-2.7,3.3-5.9,6.4-9.5,9.2c-3.6,2.8-7.1,5.3-10.5,7.4c-3.4,2.2-7.3,4.4-11.6,6.8c18.8-3.9,36.2-5,52.3-3.5
		C174.2,67.5,186.7,73.9,193.2,85.1z M108.3,165.3c5.3-1.3,10.4-2.5,15.1-3.9c4.7-1.3,10.3-3.1,16.6-5.3c6.4-2.3,12.1-4.7,17.2-7.2
		c5.1-2.5,10.2-5.6,15.3-9.3c5.1-3.7,9.3-7.5,12.5-11.6c3.2-4.1,5.6-8.8,7.2-14.2c1.6-5.4,1.8-11.1,0.8-17.1
		c-0.8-4.5-2.3-8.4-4.6-11.8c-2.3-3.4-5.1-6.2-8.3-8.3c-3.2-2.1-7-3.8-11.4-5c-4.4-1.3-8.8-2.1-13.4-2.6c-4.5-0.4-9.4-0.6-14.6-0.4
		c-5.2,0.2-10.2,0.5-14.8,1.1c-4.6,0.5-9.4,1.3-14.3,2.1c-4.9,0.9-9.2,1.8-12.7,2.5c-3.5,0.8-7,1.7-10.4,2.6c-0.1,0-0.1,0-0.2,0
		c-0.1,0-0.1,0-0.2,0c-0.3,1-0.7,2.1-1.1,3.4c-0.3,2.1-0.7,4.6-1.2,7.4c-0.5,2.8-0.9,5.6-1.4,8.5c-0.5,2.8-0.9,5.3-1.3,7.5
		c14.9-4.3,30.2-7.7,46.1-10.2c0.8-0.1,1.4,0.1,1.9,0.8c0.4,0.6,0.5,1.3,0.3,2c-0.2,0.7-0.8,1.1-1.5,1.3
		c-16.3,2.5-32.1,6.1-47.4,10.6c-0.9,5.3-2.2,13.2-3.9,23.7c-1.7,10.5-3,18.4-3.9,23.7c-0.1,0.9-0.5,1.4-1.2,1.6
		c-0.7,0.2-1.3,0.1-1.9-0.3c-0.6-0.4-0.9-1-0.9-1.8c0.1-14.9,1.5-29.8,4.3-44.7c-20.9,6.7-39.7,15.1-56.5,25.2
		c-1.7,0.9-3.1,1.8-4.2,2.5c-1.1,0.8-2.4,1.7-3.9,2.9c-1.5,1.2-2.7,2.4-3.6,3.8c-1,1.4-1.7,2.8-2.1,4.1c-0.4,1.3-0.6,2.5-0.6,3.6
		c0,1.1,0.1,2.1,0.5,3c0.4,0.9,0.8,1.7,1.3,2.5c0.5,0.7,1.1,1.4,2,2c0.9,0.6,1.6,1.1,2.4,1.6c0.7,0.5,1.6,0.9,2.7,1.3
		c1.1,0.4,2,0.8,2.7,1c0.7,0.2,1.6,0.5,2.6,0.9c8.8,2.7,19,4.6,30.7,5.5C67.7,171.7,87.5,170.1,108.3,165.3z M104.3,41.6
		c-5.4,9.5-10.1,19.6-14.1,30.1c3.5-1.9,6.2-3.3,8.1-4.3c1.9-1,4.5-2.5,7.7-4.3c3.2-1.8,5.9-3.5,8-5c2.1-1.5,4.5-3.2,7-5.1
		c2.6-1.9,4.9-4,7-6.1c2.1-2.1,4.1-4.3,5.9-6.6c3.7-4.7,5.8-9.1,6.3-13.2c0.3-2.9-0.1-5.3-1.3-7.2c-1.2-1.9-2.9-3.1-4.9-3.8
		c-2-0.6-4.3-0.7-6.6-0.3c-2.4,0.4-4.6,1.2-6.5,2.6c-1.2,0.9-2.4,1.9-3.6,3.1c-1.2,1.2-2.2,2.4-3,3.4c-0.8,1-1.8,2.5-2.9,4.3
		c-1.1,1.8-2,3.1-2.5,4c-0.5,0.9-1.3,2.4-2.5,4.5C105.2,39.8,104.5,41.1,104.3,41.6z"/>
	<path id="XMLID_189_" class="st0" d="M245.8,97.5c0.6-0.6,1.2-0.8,1.9-0.5c0.7,0.3,1.1,0.8,1.3,1.5c0.2,0.7,0,1.4-0.6,2.1
		c-13.7,14.1-25.6,19.9-35.6,17.5c-3.5-0.8-6.2-2.4-8-4.7c-1.8-2.3-2.5-4.9-2.2-7.7c0.4-2.8,1.7-5.6,4-8.1c1.8-1.9,4.1-3.5,7-4.7
		c4.3-1.7,6.4-0.7,6.3,3.2c0,0.1,0,0.1,0,0.2c-0.1,2.6-1.6,5.1-4.7,7.4c-3.1,2.3-5.8,3.1-8.3,2.3c-0.3,3,1,5.2,3.8,6.7
		c2.8,1.5,5.9,1.9,9.2,1.3c4.7-0.9,9.2-2.7,13.3-5.6C237.2,105.6,241.4,101.9,245.8,97.5z M214.1,96.9c-0.9,0.1-2,0.6-3,1.7
		c-1.1,1.1-2,2.2-2.8,3.5c1.4,0.7,3.1-0.1,5.1-2.4c1.3-1.5,1.7-2.5,1.1-2.8C214.3,96.9,214.2,96.9,214.1,96.9z"/>
	<path id="XMLID_192_" class="st0" d="M302.1,98.7c0.6-0.5,1.3-0.6,1.9-0.3c0.7,0.3,1.1,0.8,1.3,1.5c0.1,0.7-0.1,1.3-0.6,1.9
		c-3.1,2.6-9.3,7.3-18.5,14c1.1,7.1,1.2,14.5,0.4,22.2c-0.7,6.3-2.3,12.4-4.8,18.3c-2.5,5.8-6.1,11.1-10.8,15.9
		c-4.7,4.7-10,8.1-15.9,10.1c-3.1,1.2-6.1,1.3-8.8,0.3c-2.7-1-4.7-3.2-5.8-6.5c-2.2-6.3-0.4-14.7,5.5-25.1c1.3-2.5,2.8-4.9,4.5-7.2
		c1.7-2.3,3.5-4.6,5.5-6.7c2-2.1,3.9-4.1,5.8-6c1.9-1.9,4-3.8,6.4-5.8c2.4-2,4.5-3.8,6.5-5.3c2-1.5,4.3-3.3,6.8-5.2
		c-1-4.9-2.5-8.8-4.5-11.7c-0.6-0.8-1.2-1.4-1.8-1.8c-0.6-0.4-1.1-0.7-1.5-0.8c-0.4-0.1-1,0-1.6,0.4c-0.6,0.4-1.2,0.7-1.5,1.1
		c-0.4,0.4-1,0.9-1.9,1.8c-0.1,0.1-0.1,0.1-0.2,0.2c-0.1,0.1-0.1,0.1-0.3,0.2c-0.1,0.1-0.2,0.1-0.3,0.2c-1.4,1.3-3.3,3.4-5.6,6.2
		c-2.3,2.8-4,4.7-5.1,5.8c-0.8,0.9-1.5,1.6-2.1,2.1c-0.6,0.5-1.4,1.2-2.5,2c-1.1,0.8-2,1.4-2.8,1.7c-0.8,0.3-1.8,0.4-2.8,0.3
		c-1-0.1-2-0.5-2.8-1.3c-3.4-2.9-3.2-9.6,0.6-20c0.3-0.7,0.8-1.1,1.5-1.3c0.7-0.1,1.4,0.1,1.9,0.7c0.5,0.6,0.6,1.3,0.3,2
		c-1.7,4.8-2.5,8.2-2.3,10.1c0.1,1.4,0.4,2.4,0.8,3.1c0.4,0.7,0.9,1,1.6,1c0.7,0,1.4-0.2,2.1-0.5c0.7-0.4,1.6-0.9,2.6-1.6
		c1.7-1.3,3.8-3.5,6.3-6.6c2.5-3.1,4.2-5.1,5.1-6c1.2-1.2,2.2-2.1,3-2.8c0.8-0.6,1.8-1.3,3-2c1.2-0.7,2.4-1.1,3.6-1.1
		c1.2,0,2.4,0.5,3.5,1.4c3.6,2.6,6.2,7.3,7.7,14.2C293,105.8,298.6,101.5,302.1,98.7z M282.9,128.7c-0.1-3.7-0.4-7-0.7-9.9
		c-3.8,2.8-7.1,5.3-9.8,7.6c-2.7,2.3-5.7,4.9-8.9,8c-3.2,3.1-5.9,6-8.1,9c-2.2,2.9-4.3,6.1-6.3,9.8c-1.9,3.6-3.4,7.3-4.3,11.1
		c-0.9,3.3-1,6.2-0.3,8.8c0.6,2.6,2,4.3,4,5.3c2,0.9,4.8,0.5,8.5-1.2c2-1,4-2.2,6-3.7c2-1.5,3.9-3,5.7-4.8c1.7-1.7,3.3-3.5,4.7-5.4
		C280,154.2,283.2,142.7,282.9,128.7z"/>
	<path id="XMLID_195_" class="st0" d="M313.4,96.9c3.1,0.8,5.3,2.7,6.6,5.8c1.3,3,1.3,6.1,0.2,9.1c-1,2.9-2.5,5.6-4.5,8.1
		c-2,2.5-4.3,3.8-6.8,3.9c-2.6,0.1-4.5-0.8-5.6-2.7c-1.2-1.9-1.5-4.2-1.1-6.7c0.9-5.2,3.6-10.4,8.1-15.6c0.1-0.1,0.3-0.3,0.5-0.4
		C311.2,97.1,312.1,96.6,313.4,96.9z M306.8,119.2c1.3,1.1,3.2,0.4,5.7-2.3c2.9-3.1,4.5-6.3,4.7-9.6c0.2-2.9-1-4.9-3.7-6.1
		c-0.5,0.6-1.1,1.3-1.7,2.2c-0.6,0.8-1.3,1.8-2.1,3c-0.8,1.2-1.5,2.4-2.1,3.6c-0.6,1.2-1.1,2.4-1.5,3.5c-0.4,1.2-0.5,2.3-0.5,3.3
		C305.7,117.8,306.1,118.6,306.8,119.2z"/>
	<path id="XMLID_198_" class="st0" d="M393.8,97.8c0.5-0.6,1.2-0.8,2-0.7c0.8,0.1,1.3,0.5,1.6,1.1c0.3,0.6,0.2,1.3-0.3,1.9
		c-1.7,2.1-3.6,4.2-5.9,6.4c-2.3,2.2-4.9,4.4-8,6.5c-3.1,2.2-6.1,3.9-9,5.1c-2.9,1.2-5.9,1.7-9,1.4c-3.1-0.3-5.7-1.6-7.9-4
		c-1.2-1.3-2.8-3.3-4.8-5.9c-2-2.6-3.5-4.4-4.5-5.5c-0.6-0.6-1.2-1.1-1.7-1.4c-0.5-0.4-1-0.6-1.4-0.8c-0.4-0.1-0.8-0.1-1.3,0.1
		c-0.5,0.2-0.8,0.4-1.1,0.6c-0.3,0.2-0.7,0.5-1.2,1c-0.5,0.5-0.8,1-1,1.3c-0.2,0.3-0.6,0.9-1.1,1.6c-0.5,0.8-0.9,1.3-1.1,1.5
		c-0.3,0.5-1.2,2.2-2.6,5.1c-1.4,2.8-2.9,5.2-4.4,7.2c-1.5,2-2.9,3.1-4.3,3.3c-0.8,0.1-1.4-0.1-1.9-0.7c-0.5-0.7-0.8-1.4-1-2.2
		c-0.2-0.8-0.3-1.7-0.3-2.8c0.1-1.1,0.1-2,0.2-2.5c0.1-0.6,0.2-1.6,0.5-2.9c0.3-1.3,0.4-2.1,0.5-2.3c0.4-2.5,1.2-6.1,2.3-10.9
		c1.1-4.7,1.8-7.5,2-8.4c0.2-0.7,0.7-1.2,1.4-1.5c0.7-0.3,1.4-0.2,2,0.2c0.6,0.4,0.8,1,0.6,1.8c-0.3,1.5-0.9,3.9-1.7,7.3
		c-0.8,3.4-1.4,5.9-1.8,7.8c-0.8,3.9-1.3,6.7-1.5,8.2c0,0.2,0,0.5,0,0.9c0.5-1,1.2-2.1,2-3.2c0.8-1.1,1.7-2.3,2.7-3.6
		c0.9-1.3,1.6-2.2,2-2.9c0.2-0.3,0.5-0.7,0.8-1.2c0.4-0.5,0.7-1,1-1.4c0.3-0.4,0.6-0.9,1-1.4c0.4-0.5,0.7-0.9,1-1.4
		c0.3-0.4,0.7-0.8,1.1-1.2c0.4-0.4,0.8-0.8,1.3-1.1c0.4-0.3,0.8-0.6,1.3-0.8c1.1-0.3,2-0.4,2.8-0.4s1.7,0.3,2.6,0.9
		c0.9,0.6,1.8,1.2,2.5,1.9c0.7,0.7,1.5,1.5,2.3,2.5c0.8,1,1.5,1.9,2.1,2.8c0.6,0.8,1.2,1.7,1.8,2.6c0.6,0.9,1.2,1.7,1.6,2.2
		c2.3,2.9,4.4,4.5,6.3,5c1.9,0.5,4.5,0.1,8-1.1C380.3,111,387.5,105.6,393.8,97.8z"/>
	<path id="XMLID_200_" class="st0" d="M419.2,61.5c-0.8,6.6-1.4,11.8-1.8,15.7c-0.4,3.9-0.8,8.9-1.1,15c-0.3,6.1-0.4,11.4-0.2,15.9
		c0.2,4.4,0.8,9.3,1.6,14.6c0.8,5.3,2,10.3,3.6,15c0.3,0.8,0.2,1.5-0.3,2.1c-0.5,0.6-1.1,0.8-1.9,0.8c-0.7,0-1.2-0.4-1.5-1.3
		c-4.4-12.7-6.2-28.2-5.4-46.4c-3.8,11.1-9,20.1-15.5,27c-1.1,1.3-2.4,2.3-3.9,3.1c-1.4,0.8-2.8,1.3-4.1,1.6
		c-1.3,0.3-2.5-0.1-3.4-1.1c-0.9-1-1.4-2.6-1.5-4.8c-0.1-4.3,1.4-8.8,4.5-13.4c3-4.6,6.5-7.7,10.5-9.1c1.2-0.4,2.1,0,2.6,1.1
		c0.5,1.2,0.2,2.1-0.9,2.6c-4.5,1.6-8,5.5-10.6,11.6c-2.2,5.1-2.5,7.8-1,8.3c0.9,0.2,2.6-0.7,4.9-2.6c4.9-4.1,9.3-11.7,13.1-22.6
		c4.8-14,8.3-32.2,10.6-54.6c0.1-0.8,0.5-1.3,1.2-1.6c0.7-0.3,1.4-0.2,2,0.2c0.6,0.4,0.9,1,0.8,1.8c-0.2,2-0.4,4.3-0.7,7
		C420.3,52.7,419.7,57.5,419.2,61.5z"/>
	<path id="XMLID_202_" class="st0" d="M623.3,85.1c3.2,5.7,4.8,11.4,4.8,17.3c0,5.9-1.2,11.3-3.7,16.3c-2.5,5-5.8,9.7-10,14.3
		c-4.2,4.6-8.8,8.5-13.6,11.9c-4.8,3.4-9.8,6.2-14.9,8.6c-17.7,8.1-36.1,14-55.1,17.7c-19,3.7-37.6,4.6-55.8,2.8
		c-0.5-0.1-1.4-0.1-2.5-0.2c-2.5-0.3-4.5-0.5-6-0.6c-1.4-0.2-3.5-0.4-6.3-0.8c-2.7-0.4-5-0.8-6.8-1.2c-1.8-0.4-4-1-6.4-1.8
		c-2.4-0.7-4.5-1.5-6.2-2.4c-1.7-0.9-3.3-1.9-4.9-3.2c-1.6-1.3-2.9-2.7-3.8-4.2c-1.3-2.1-2.1-4.3-2.2-6.6c-0.1-2.2,0.3-4.3,1.2-6.2
		c0.9-1.9,2.1-3.8,3.8-5.7c1.6-1.9,3.3-3.5,5-4.8c1.7-1.4,3.6-2.6,5.5-3.8c17.9-10.8,38-19.7,60.4-26.8c1.9-8.9,4.3-17.7,7.3-26.5
		c5.7-34.5,9.9-60.3,12.7-77.5c0.1-0.8,0.6-1.3,1.3-1.6c0.7-0.3,1.4-0.2,2,0.2c0.6,0.4,0.9,1,0.8,1.8c-0.9,5.5-2,11.7-3.2,18.8
		c-1.2,7-2.3,14.1-3.5,21.2c-1.2,7.1-2.2,13.3-3,18.8c3.3-7.7,6.9-14.9,10.7-21.6c0.3-0.5,1-1.8,2.1-3.9c1.2-2.1,2-3.6,2.5-4.4
		c0.5-0.8,1.3-2.1,2.5-3.9c1.2-1.9,2.2-3.3,3-4.3c0.8-1,1.8-2.1,3-3.5c1.2-1.4,2.3-2.5,3.5-3.5c1.2-0.9,2.5-1.8,3.8-2.5
		c3.3-1.5,6.3-2.3,9.1-2.4c2.8-0.1,5.2,0.7,7.3,2.2c2,1.5,3.6,3.4,4.7,5.7c1.1,2.2,1.6,4.8,1.6,7.8c0,3-0.8,5.9-2.2,8.8
		c-1.7,3.7-4,7.1-6.7,10.4c-2.7,3.3-5.9,6.4-9.5,9.2c-3.6,2.8-7.2,5.3-10.5,7.4c-3.4,2.2-7.3,4.4-11.6,6.8c18.8-3.9,36.2-5,52.3-3.5
		C604.3,67.5,616.8,73.9,623.3,85.1z M538.4,165.3c5.3-1.3,10.4-2.5,15.1-3.9c4.7-1.3,10.3-3.1,16.7-5.3c6.4-2.3,12.1-4.7,17.2-7.2
		c5.1-2.5,10.2-5.6,15.3-9.3c5.1-3.7,9.3-7.5,12.5-11.6c3.2-4.1,5.6-8.8,7.2-14.2c1.6-5.4,1.8-11.1,0.8-17.1
		c-0.8-4.5-2.3-8.4-4.6-11.8c-2.3-3.4-5.1-6.2-8.3-8.3c-3.2-2.1-7-3.8-11.4-5c-4.4-1.3-8.8-2.1-13.4-2.6c-4.5-0.4-9.4-0.6-14.6-0.4
		c-5.2,0.2-10.2,0.5-14.8,1.1c-4.6,0.5-9.4,1.3-14.3,2.1c-4.9,0.9-9.2,1.8-12.7,2.5c-3.5,0.8-7,1.7-10.4,2.6c-0.1,0-0.1,0-0.2,0
		s-0.1,0-0.2,0c-0.3,1-0.7,2.1-1.1,3.4c-0.3,2.1-0.7,4.6-1.2,7.4c-0.5,2.8-0.9,5.6-1.4,8.5c-0.5,2.8-0.9,5.3-1.3,7.5
		c14.9-4.3,30.2-7.7,46.1-10.2c0.8-0.1,1.4,0.1,1.8,0.8c0.4,0.6,0.5,1.3,0.3,2c-0.2,0.7-0.8,1.1-1.6,1.3
		c-16.3,2.5-32.1,6.1-47.4,10.6c-0.9,5.3-2.2,13.2-3.9,23.7c-1.7,10.5-3,18.4-3.9,23.7c-0.1,0.9-0.5,1.4-1.2,1.6
		c-0.7,0.2-1.3,0.1-1.9-0.3c-0.6-0.4-0.9-1-0.9-1.8c0.1-14.9,1.5-29.8,4.3-44.7c-20.9,6.7-39.7,15.1-56.5,25.2
		c-1.7,0.9-3.1,1.8-4.2,2.5c-1.1,0.8-2.4,1.7-3.9,2.9c-1.5,1.2-2.7,2.4-3.6,3.8c-1,1.4-1.7,2.8-2,4.1c-0.4,1.3-0.6,2.5-0.7,3.6
		c0,1.1,0.1,2.1,0.5,3c0.4,0.9,0.8,1.7,1.3,2.5c0.5,0.7,1.1,1.4,2,2c0.9,0.6,1.7,1.1,2.3,1.6c0.7,0.5,1.6,0.9,2.7,1.3
		c1.1,0.4,2,0.8,2.7,1c0.7,0.2,1.6,0.5,2.7,0.9c8.8,2.7,19,4.6,30.7,5.5C497.8,171.7,517.6,170.1,538.4,165.3z M534.4,41.6
		c-5.4,9.5-10.1,19.6-14.1,30.1c3.5-1.9,6.2-3.3,8.1-4.3c1.9-1,4.5-2.5,7.7-4.3c3.2-1.8,5.9-3.5,8-5c2.1-1.5,4.5-3.2,7-5.1
		c2.6-1.9,4.9-4,7-6.1c2.1-2.1,4.1-4.3,5.9-6.6c3.7-4.7,5.8-9.1,6.3-13.2c0.3-2.9-0.1-5.3-1.3-7.2c-1.2-1.9-2.9-3.1-4.9-3.8
		c-2-0.6-4.3-0.7-6.7-0.3c-2.4,0.4-4.6,1.2-6.5,2.6c-1.2,0.9-2.4,1.9-3.5,3.1c-1.2,1.2-2.2,2.4-3,3.4c-0.8,1-1.8,2.5-3,4.3
		c-1.1,1.8-1.9,3.1-2.4,4c-0.5,0.9-1.3,2.4-2.5,4.5C535.3,39.8,534.6,41.1,534.4,41.6z"/>
	<path id="XMLID_206_" class="st0" d="M680,98.9c0.9-1,1.9-1.1,3-0.2c1.1,0.8,1.2,1.7,0.3,2.6c-1.6,1.7-3.1,3.3-4.6,4.8
		c-1.4,1.4-3.4,3.3-6,5.6s-4.9,4.3-7.1,5.9s-4.7,3.1-7.5,4.5c-2.8,1.4-5.3,2.3-7.5,2.6c-2.3,0.4-4.5,0.1-6.8-0.8
		c-2.2-0.9-4.2-2.5-5.9-4.9c-0.9-1.4-1.7-3.1-2.2-5.1c-0.5-2-0.9-3.9-1-5.6c-0.1-1.8,0-3.9,0.1-6.5c0.2-2.5,0.4-4.6,0.7-6.1
		c0.2-1.5,0.6-3.6,1.1-6.3c0.5-2.6,0.8-4.4,1-5.3c0.5-2.9,1-5.8,1.5-8.8s1.2-6.1,2-9.4c0.8-3.2,1.5-6,2.1-8.4
		c0.6-2.4,1.4-5.5,2.3-9.3c0.9-3.8,1.7-6.7,2.2-8.7c0.3-1,0.9-1.4,2-1.3c1.1,0.2,1.7,0.7,1.8,1.6c0.5,2.2,0.7,4.3,0.8,6.2
		c0.1,1.9-0.1,3.9-0.4,5.9c-0.3,2-0.7,3.8-1.2,5.5c-0.5,1.7-1.1,3.7-2,6.1c-0.2,0.7-0.6,1.1-1.3,1.2c-0.7,0.1-1.2,0-1.7-0.4
		c-3,12.9-4.9,24-5.7,33.3c-0.1,0.5-0.2,1.5-0.4,3.1c-0.2,1.6-0.3,2.9-0.4,3.9c-0.1,1-0.2,2.3-0.2,3.6c0,1.4,0,2.7,0.3,3.8
		c0.2,1.1,0.5,2.1,1,2.8c0.6,1.1,1.3,2.1,2,2.9c0.7,0.8,1.4,1.4,2.1,1.9c0.7,0.5,1.5,0.7,2.5,0.8c1,0.1,1.8,0.1,2.4,0.1
		c0.6,0,1.5-0.2,2.6-0.6c1.1-0.4,2-0.7,2.5-0.9c0.5-0.2,1.3-0.6,2.5-1.4c1.2-0.7,1.9-1.2,2.2-1.3c0.3-0.2,1.6-1.1,4-2.8
		C669.1,109.3,674.8,104.4,680,98.9z"/>
	<path id="XMLID_208_" class="st0" d="M727.1,96.8c0.4-0.7,1-1,1.8-0.9c0.8,0.1,1.3,0.5,1.6,1.1c0.3,0.6,0.3,1.3,0,2.1
		c-2.7,4.4-6.5,8.5-11.3,12.3c-4.8,3.8-9.4,5.9-13.9,6.1c-1.4,0-2.6-0.2-3.6-0.6c-1-0.4-1.8-0.8-2.3-1.3c-0.6-0.5-1.1-1.3-1.5-2.4
		c-0.4-1.1-0.7-2-0.9-2.7c-0.2-0.7-0.4-1.8-0.7-3.1c-5.1,9.7-9.8,14.3-14.1,13.7c-1.7-0.3-3-1.3-3.8-3.2c-0.8-1.8-1.1-4-1-6.6
		c0.1-2.6,0.4-4.9,0.8-6.9c0.4-2,0.8-3.8,1.2-5.3c0.3-0.7,0.8-1.1,1.5-1.3c0.7-0.1,1.3,0.1,1.8,0.7c0.5,0.6,0.7,1.3,0.5,2
		c-1.5,5.2-2,9.2-1.4,12.1c0.5,2.3,1.8,2.9,3.9,2c2.7-1.2,5.8-5.9,9.3-14.1c0.3-0.7,1-1.1,1.9-1.2c0.9-0.1,1.5,0.3,1.8,1.1
		c0.3,0.7,0.5,1.4,0.7,2.3c0.2,0.9,0.3,1.6,0.4,2.4c0.1,0.7,0.3,1.5,0.5,2.3c0.2,0.8,0.4,1.5,0.6,2.1c0.2,0.5,0.6,1.1,1,1.7
		c0.4,0.6,0.9,1,1.4,1.2c0.5,0.2,1.2,0.4,2.1,0.4c0.9,0.1,1.9,0,3-0.4c3.3-0.8,6.8-2.8,10.3-6C722.2,103.3,725,100.1,727.1,96.8z"/>
	<path id="XMLID_210_" class="st0" d="M764.9,97.5c0.6-0.6,1.2-0.8,1.9-0.5c0.7,0.3,1.1,0.8,1.3,1.5c0.2,0.7,0,1.4-0.6,2.1
		c-13.7,14.1-25.6,19.9-35.6,17.5c-3.5-0.8-6.2-2.4-8-4.7c-1.8-2.3-2.5-4.9-2.2-7.7c0.4-2.8,1.7-5.6,4-8.1c1.8-1.9,4.1-3.5,7-4.7
		c4.3-1.7,6.4-0.7,6.3,3.2c0,0.1,0,0.1,0,0.2c-0.1,2.6-1.6,5.1-4.7,7.4c-3.1,2.3-5.8,3.1-8.3,2.3c-0.3,3,1,5.2,3.8,6.7
		c2.8,1.5,5.9,1.9,9.2,1.3c4.7-0.9,9.2-2.7,13.3-5.6C756.3,105.6,760.5,101.9,764.9,97.5z M733.2,96.9c-0.9,0.1-2,0.6-3,1.7
		c-1.1,1.1-2,2.2-2.8,3.5c1.4,0.7,3.1-0.1,5.1-2.4c1.3-1.5,1.7-2.5,1.1-2.8C733.4,96.9,733.3,96.9,733.2,96.9z"/>
</g>
</svg>
