<?xml version="1.0" encoding="utf-8"?>
<!-- Generator: Adobe Illustrator 19.0.0, SVG Export Plug-In . SVG Version: 6.00 Build 0)  -->
<svg version="1.1" id="Layer_1" xmlns="http://www.w3.org/2000/svg" xmlns:xlink="http://www.w3.org/1999/xlink" x="0px" y="0px"
	 viewBox="0 0 992.4 164.1" style="enable-background:new 0 0 992.4 164.1;" xml:space="preserve">
<style type="text/css">
	.st0{fill:#FFFFFF;}
</style>
<g id="XMLID_106_">
	<path id="XMLID_107_" class="st0" d="M113.2,57.8c0.8-0.2,1.4,0,1.9,0.6c0.4,0.6,0.5,1.3,0.3,2c-0.2,0.7-0.8,1.2-1.5,1.3
		c-1.7,0.4-4.1,0.9-7.5,1.6c-3.3,0.7-5.8,1.3-7.4,1.6c0.8,5.4,1.5,9.8,2,13.1c3.5,22.6,7.4,45.8,11.9,69.6c0.1,0.8-0.1,1.4-0.7,1.8
		c-0.6,0.4-1.3,0.5-1.9,0.3c-0.7-0.2-1.1-0.8-1.4-1.5C103.6,120.9,99,93.4,95,65.8c-3.7,0.8-9.2,2-16.5,3.6
		c-7.3,1.6-12.8,2.8-16.5,3.5c4.8,28.7,5.9,57.6,3.4,86.5c-0.1,1-0.7,1.6-1.7,1.7c-1,0.1-1.7-0.2-2.2-1.1c-1.4-2.9-2.9-6.5-4.6-10.8
		c-1.7-4.3-3.2-8.4-4.6-12.3c-1.4-3.8-3-8-4.9-12.5c-1.9-4.5-3.9-8.6-5.8-12.3c-1.9-3.7-4.2-7.3-6.9-10.8c-2.7-3.5-5.6-6.4-8.6-8.7
		c-3-2.3-6.6-4.1-10.7-5.4C11.4,86,7,85.5,2.4,85.8c-0.9,0.1-1.5-0.2-2-0.8c-0.4-0.6-0.5-1.2-0.3-1.9c0.2-0.7,0.8-1.1,1.6-1.3
		c6.1-1.3,15.4-3.3,27.8-6c12.4-2.7,21.7-4.7,27.9-6C54.1,51.3,49.3,33.3,43,15.7c-0.3-0.8-0.2-1.5,0.3-2.1c0.5-0.6,1.1-0.8,1.9-0.8
		c0.7,0,1.2,0.4,1.5,1.1C53.1,31.9,58,50.2,61.4,69c3.7-0.8,9.2-2,16.5-3.6c7.3-1.6,12.8-2.8,16.5-3.6c-0.1-0.4-0.2-1.1-0.4-2.1
		c-0.2-1-0.3-1.8-0.4-2.3c-0.3-2.6-1-7.2-2.1-13.8s-2-12.3-2.5-17.1c-0.6-4.8-1-9.4-1.2-13.8c-0.1-1.7,0-3.1,0.1-4.4
		c0.2-1.2,0.5-2.4,1-3.6c0.5-1.2,1.3-2,2.5-2.5c1.1-0.5,2.5-0.7,4.2-0.4C96.4,1.8,97,2.2,97.2,3c0.2,0.7,0.1,1.4-0.3,2
		c-0.4,0.6-1,0.9-1.8,0.8c-0.8-0.1-1.4,0.4-1.8,1.6c-0.4,1.2-0.6,2.9-0.6,5.2c0,2.3,0,4.6,0.1,7c0.1,2.4,0.3,5.1,0.7,8.1
		c0.4,3,0.7,5.5,1,7.6c0.3,2.1,0.6,4.2,0.9,6.4c0.3,2.2,0.5,3.3,0.5,3.4c0.7,5.2,1.4,10.5,2.2,15.9L113.2,57.8z M62,151
		c1.7-25.9,0.5-51.6-3.8-77.2c-4.8,1-12,2.5-21.6,4.6C27,80.4,19.8,82,15,83.1c3.3,0.9,6.5,2.2,9.5,4c3,1.8,5.6,3.9,7.9,6.1
		c2.3,2.2,4.6,4.9,6.8,8c2.2,3.2,4.1,6.2,5.6,9c1.6,2.9,3.2,6.3,5,10.2c1.7,3.9,3.2,7.3,4.3,10.3c1.1,3,2.5,6.5,4.1,10.5
		C59.7,145.3,61,148.6,62,151z"/>
	<path id="XMLID_110_" class="st0" d="M127.8,89c3.1,0.8,5.3,2.7,6.6,5.8c1.3,3,1.3,6.1,0.2,9.1c-1,2.9-2.5,5.6-4.5,8.1
		c-2,2.5-4.3,3.8-6.8,3.9c-2.6,0.1-4.5-0.8-5.6-2.7c-1.2-1.9-1.5-4.2-1-6.7c0.9-5.2,3.6-10.4,8.1-15.6c0.1-0.1,0.3-0.3,0.5-0.4
		C125.6,89.2,126.5,88.7,127.8,89z M121.2,111.3c1.3,1.1,3.2,0.4,5.7-2.3c2.9-3.1,4.5-6.3,4.7-9.6c0.2-2.9-1-4.9-3.7-6.1
		c-0.5,0.6-1.1,1.3-1.7,2.2c-0.6,0.8-1.3,1.8-2.1,3c-0.8,1.2-1.5,2.4-2.1,3.6c-0.6,1.2-1.1,2.4-1.5,3.5c-0.4,1.2-0.5,2.3-0.5,3.3
		C120.1,109.9,120.5,110.7,121.2,111.3z"/>
	<path id="XMLID_113_" class="st0" d="M182,90.3c0.4-0.3,0.8-0.5,1.3-0.5c0.4,0,0.8,0.1,1.2,0.4c0.3,0.3,0.6,0.6,0.8,0.9
		c0.2,0.4,0.2,0.8,0.1,1.1c-0.1,0.4-0.3,0.8-0.7,1.1c-4.8,3.8-10.2,5.6-16.2,5.4c-6-0.2-11.2-2.3-15.6-6.4
		c-2.4,2.9-4.4,6.3-6.1,10.3c-1.6,4-2.9,8.1-3.8,12.4c-0.1,0.8-0.5,1.3-1.2,1.6c-0.7,0.3-1.3,0.2-1.9-0.2c-0.6-0.4-0.9-1-0.9-1.9
		c0.3-9.1,2-19.5,5.3-31.3c0.2-0.8,0.7-1.2,1.4-1.3c0.7-0.1,1.4,0.2,1.9,0.8c0.5,0.6,0.7,1.2,0.5,2c-1.1,4.1-2.1,8-2.9,11.9
		c1.9-3.4,3.9-6.3,6.2-8.6c0.4-0.4,0.9-0.6,1.4-0.5c0.6,0.1,1,0.3,1.3,0.7c3.7,4,8.2,6.2,13.5,6.6C173,95.2,177.8,93.7,182,90.3z"/>
	<path id="XMLID_115_" class="st0" d="M183.3,87.6c0.3-0.7,0.9-1.1,1.6-1.2c0.7-0.1,1.3,0.2,1.8,0.7c0.5,0.5,0.6,1.2,0.4,2
		c-3.4,8.5-5,17.2-4.9,26c0,1.1-0.6,1.7-1.7,1.7c-1.2,0-1.9-0.5-2.2-1.6c-0.1-0.2-0.1-0.4-0.1-0.6C178,105.6,179.7,96.6,183.3,87.6z
		 M190,76.1c0.5,1.1,0.1,2-1,2.7l-7.1,4.2c-0.5,0.3-1,0.3-1.5,0c-0.5-0.2-0.9-0.6-1.1-1c-0.5-1.1-0.1-2,1-2.7l7.1-4.2
		c0.5-0.3,1-0.3,1.5-0.1C189.4,75.3,189.8,75.6,190,76.1z"/>
	<path id="XMLID_118_" class="st0" d="M227.8,102.1c0.7-0.4,1.3-0.4,1.9,0.1c0.6,0.5,0.8,1.1,0.8,1.8c0,0.8-0.4,1.4-1.1,1.8
		c-0.8,0.4-1.8,0.9-3.1,1.5c-1.3,0.6-2.8,1.2-4.5,1.9c-1.8,0.7-3.6,1.3-5.5,1.9c-1.9,0.6-3.9,1.1-5.9,1.6c-2,0.5-3.9,0.8-5.8,0.9
		c-1.8,0.1-3.5,0-4.9-0.3c-1.5-0.3-2.7-0.9-3.6-1.8c-0.9-0.9-1.4-2.2-1.5-3.7c-0.1-0.9,0-1.9,0.4-3c0.3-1,0.6-1.9,1-2.7
		c0.4-0.8,1-1.7,1.8-2.9c0.8-1.2,1.5-2,1.8-2.5c0.4-0.5,1.1-1.3,2.2-2.5c1-1.2,1.6-1.9,1.8-2c0.1-0.1,0.3-0.2,0.4-0.5
		c0.5-0.6,1-1.1,1.3-1.5c0.3-0.4,0.7-0.9,1.3-1.6c0.6-0.7,1-1.3,1.2-1.8c0.2-0.5,0.5-1,0.8-1.7c0.3-0.7,0.4-1.2,0.3-1.6
		c-0.1-0.4-0.3-0.9-0.5-1.3c-0.3-0.4-0.8-0.8-1.5-1c-0.7-0.2-1.6-0.4-2.7-0.4c-1.9-0.1-4.1,0.3-6.6,1.1s-4.4,2-5.6,3.5
		c-0.5,0.6-1.2,0.8-2,0.6c-0.8-0.2-1.3-0.6-1.6-1.1c-0.3-0.6-0.2-1.2,0.3-1.9c1.1-1.2,3-2.4,5.5-3.6c2.6-1.2,5.2-2.1,8-2.8
		c2.7-0.6,5.2-0.5,7.4,0.3c2.2,0.9,3.4,2.6,3.6,5.1c0.2,2.1-0.2,4.1-1.3,6.1c-1,2-2.7,4.2-5,6.6c-2.3,2.4-3.7,4-4.2,4.8
		c-0.1,0.1-0.2,0.2-0.3,0.4c-0.5,0.7-0.8,1.2-1.1,1.6c-0.3,0.4-0.7,1-1,1.9c-0.4,0.8-0.6,1.5-0.7,2c-0.1,0.6,0,1.2,0.3,1.9
		c0.3,0.7,0.8,1.3,1.5,1.8c0.8,0.5,4.1,0.2,9.9-0.8C216.5,107.1,222,105.1,227.8,102.1z"/>
	<path id="XMLID_120_" class="st0" d="M238.2,89c3.1,0.8,5.3,2.7,6.6,5.8c1.3,3,1.3,6.1,0.2,9.1c-1,2.9-2.5,5.6-4.5,8.1
		c-2,2.5-4.3,3.8-6.8,3.9c-2.6,0.1-4.5-0.8-5.6-2.7c-1.2-1.9-1.5-4.2-1.1-6.7c0.9-5.2,3.6-10.4,8.1-15.6c0.1-0.1,0.3-0.3,0.5-0.4
		C236,89.2,236.9,88.7,238.2,89z M231.6,111.3c1.3,1.1,3.2,0.4,5.7-2.3c2.9-3.1,4.5-6.3,4.7-9.6c0.2-2.9-1-4.9-3.7-6.1
		c-0.5,0.6-1.1,1.3-1.7,2.2c-0.6,0.8-1.3,1.8-2.1,3c-0.8,1.2-1.5,2.4-2.1,3.6c-0.6,1.2-1.1,2.4-1.5,3.5c-0.4,1.2-0.5,2.3-0.5,3.3
		C230.5,109.9,230.9,110.7,231.6,111.3z"/>
	<path id="XMLID_123_" class="st0" d="M318.6,89.9c0.5-0.6,1.2-0.8,2-0.7c0.8,0.1,1.3,0.5,1.6,1.1c0.3,0.6,0.2,1.3-0.3,1.9
		c-1.7,2.1-3.6,4.2-5.9,6.4c-2.3,2.2-4.9,4.4-8,6.5c-3.1,2.2-6.1,3.9-9,5.1c-2.9,1.2-5.9,1.7-9,1.4c-3.1-0.3-5.7-1.6-7.9-4
		c-1.2-1.3-2.8-3.3-4.8-5.9c-2-2.6-3.5-4.4-4.5-5.5c-0.6-0.6-1.2-1.1-1.7-1.4c-0.5-0.4-1-0.6-1.4-0.8c-0.4-0.1-0.8-0.1-1.3,0.1
		c-0.5,0.2-0.8,0.4-1.1,0.6c-0.3,0.2-0.7,0.5-1.2,1c-0.5,0.5-0.8,1-1,1.3c-0.2,0.3-0.6,0.9-1.1,1.6c-0.5,0.8-0.9,1.3-1.1,1.5
		c-0.3,0.5-1.2,2.2-2.6,5.1c-1.4,2.8-2.9,5.2-4.4,7.2c-1.5,2-2.9,3.1-4.3,3.3c-0.8,0.1-1.4-0.1-1.9-0.7c-0.5-0.7-0.8-1.4-1-2.2
		c-0.2-0.8-0.3-1.7-0.3-2.8c0.1-1.1,0.1-2,0.2-2.5c0.1-0.6,0.2-1.6,0.5-2.9c0.3-1.3,0.4-2.1,0.5-2.3c0.4-2.5,1.2-6.1,2.3-10.9
		c1.1-4.7,1.8-7.5,2-8.4c0.2-0.7,0.7-1.2,1.4-1.5c0.7-0.3,1.4-0.2,2,0.2c0.6,0.4,0.8,1,0.6,1.8c-0.3,1.5-0.9,3.9-1.7,7.3
		c-0.8,3.4-1.4,5.9-1.8,7.8c-0.8,3.9-1.3,6.7-1.5,8.2c0,0.2,0,0.5,0,0.9c0.5-1,1.2-2.1,2-3.2c0.8-1.1,1.7-2.3,2.7-3.6
		c0.9-1.3,1.6-2.2,2-2.9c0.2-0.3,0.5-0.7,0.8-1.2c0.4-0.5,0.7-1,1-1.4c0.3-0.4,0.6-0.9,1-1.4c0.4-0.5,0.7-0.9,1-1.4
		c0.3-0.4,0.7-0.8,1.1-1.2c0.4-0.4,0.8-0.8,1.3-1.1c0.4-0.3,0.8-0.6,1.3-0.8c1.1-0.3,2-0.4,2.8-0.4s1.7,0.3,2.6,0.9
		c0.9,0.6,1.8,1.2,2.5,1.9c0.7,0.7,1.5,1.5,2.3,2.5c0.8,1,1.5,1.9,2.1,2.8c0.6,0.8,1.2,1.7,1.8,2.6c0.6,0.9,1.2,1.7,1.6,2.2
		c2.3,2.9,4.4,4.5,6.3,5c1.9,0.5,4.5,0.1,8-1.1C305.1,103.1,312.3,97.7,318.6,89.9z"/>
	<path id="XMLID_125_" class="st0" d="M491.1,0.1c0.7-0.2,1.3,0,1.8,0.5c0.4,0.6,0.5,1.2,0.3,2c-0.2,0.8-0.7,1.2-1.4,1.4
		c-42.5,10.4-85.4,18.7-128.8,24.8c3.9,3.4,7.6,7.9,10.9,13.4c3.3,5.5,6,10.8,7.9,15.7c2.6,6.3,4.7,13.2,6.3,20.7
		c0.1,0,0.3,0,0.4-0.1c0.1-0.1,0.3-0.1,0.5-0.2c0.2-0.1,0.3-0.1,0.5-0.1c-0.3-15.9-0.7-30.8-1.3-44.7c0-0.8,0.3-1.4,1-1.9
		c0.6-0.4,1.3-0.5,2-0.3c0.7,0.2,1,0.7,1,1.5c0.5,13.4,0.9,28,1.2,43.8c14.9-5.5,30.2-9.8,45.7-13.1c0.8-0.2,1.4,0,1.9,0.6
		c0.4,0.6,0.5,1.3,0.3,2c-0.2,0.7-0.8,1.2-1.5,1.4c-15.7,3.3-31.1,7.7-46.2,13.3c0.3,19.8,0.2,38.9-0.1,57.4c0,0.3-0.1,0.6-0.3,0.9
		c-0.2,0.2-0.4,0.4-0.6,0.5c-0.2,0.1-0.5,0.2-0.8,0.3c-0.3,0.1-0.5,0.1-0.8,0c-0.3,0-0.5-0.1-0.8-0.3c-0.2-0.1-0.4-0.3-0.6-0.5
		c-0.2-0.2-0.3-0.5-0.3-0.8c-0.1-7.5-0.3-13.7-0.5-18.6c-0.2-4.8-0.6-10.6-1.3-17.3c-0.6-6.7-1.5-12.8-2.5-18.3
		c-2.5,1-3.9,1.5-4.1,1.6c-0.8,0.3-1.5,0.3-2-0.2c-0.6-0.5-0.8-1.1-0.8-1.9c0-0.8,0.4-1.3,1.2-1.5c0.9-0.4,2.5-1.1,5-2.1
		c-0.4-1.7-1-3.8-1.8-6.4c-0.8-2.6-1.7-5.6-2.9-9c-1.2-3.4-2.5-6.8-4.2-10.3c-1.6-3.5-3.3-6.9-5-10.1c-1.7-3.2-3.7-6.2-5.8-8.9
		c-2.2-2.7-4.3-4.7-6.5-6c-6.2,0.9-11.3,1.5-15.3,2c-1,0.1-1.7-0.3-2.1-1.1c-0.4-0.9-0.2-1.7,0.5-2.4c5.3-4.8,11-5.7,16.9-2.6
		C402.9,19.2,447.3,10.7,491.1,0.1z M389.3,82.4c0,0.1,0,0.1-0.2,0.1c-0.1,0-0.2,0.1-0.3,0.1c0.1,0.7,0.3,1.7,0.5,3c0-0.4,0-1,0-1.6
		C389.3,83.2,389.3,82.7,389.3,82.4z"/>
	<path id="XMLID_128_" class="st0" d="M440.6,89c3.1,0.8,5.3,2.7,6.6,5.8c1.3,3,1.3,6.1,0.2,9.1c-1,2.9-2.5,5.6-4.5,8.1
		c-2,2.5-4.3,3.8-6.8,3.9c-2.6,0.1-4.5-0.8-5.6-2.7c-1.2-1.9-1.5-4.2-1.1-6.7c0.9-5.2,3.6-10.4,8.1-15.6c0.1-0.1,0.3-0.3,0.5-0.4
		C438.4,89.2,439.3,88.7,440.6,89z M434,111.3c1.3,1.1,3.2,0.4,5.7-2.3c2.9-3.1,4.5-6.3,4.7-9.6c0.2-2.9-1-4.9-3.7-6.1
		c-0.5,0.6-1.1,1.3-1.7,2.2c-0.6,0.8-1.3,1.8-2.1,3c-0.8,1.2-1.5,2.4-2.1,3.6c-0.6,1.2-1.1,2.4-1.5,3.5c-0.4,1.2-0.5,2.3-0.5,3.3
		C432.9,109.9,433.3,110.7,434,111.3z"/>
	<path id="XMLID_131_" class="st0" d="M494.8,90.3c0.4-0.3,0.8-0.5,1.3-0.5c0.4,0,0.8,0.1,1.2,0.4c0.3,0.3,0.6,0.6,0.8,0.9
		c0.2,0.4,0.2,0.8,0.1,1.1c-0.1,0.4-0.3,0.8-0.7,1.1c-4.8,3.8-10.2,5.6-16.2,5.4c-6-0.2-11.2-2.3-15.7-6.4c-2.4,2.9-4.4,6.3-6,10.3
		c-1.6,4-2.9,8.1-3.8,12.4c-0.1,0.8-0.5,1.3-1.2,1.6c-0.7,0.3-1.3,0.2-1.9-0.2c-0.6-0.4-0.9-1-0.9-1.9c0.3-9.1,2-19.5,5.3-31.3
		c0.2-0.8,0.7-1.2,1.4-1.3c0.7-0.1,1.4,0.2,1.9,0.8c0.5,0.6,0.7,1.2,0.5,2c-1.1,4.1-2.1,8-2.9,11.9c1.9-3.4,3.9-6.3,6.2-8.6
		c0.4-0.4,0.9-0.6,1.5-0.5c0.6,0.1,1,0.3,1.3,0.7c3.7,4,8.2,6.2,13.5,6.6C485.8,95.2,490.6,93.7,494.8,90.3z"/>
	<path id="XMLID_133_" class="st0" d="M530.1,88.8c0.8-0.3,1.5-0.1,2,0.4s0.8,1.1,0.8,1.9c0,0.7-0.4,1.2-1.2,1.5
		c-3.9,1.4-7.6,3.1-11.1,5.1c-0.7,1.5-1.3,2.8-2,4c-0.1,0.1-0.1,0.2-0.2,0.4c-8,14.7-14.2,20.8-18.5,18.3c-1.5-0.8-2.4-2-2.5-3.7
		c-0.1-1.7,0.1-3.2,0.8-4.5c0.7-1.3,1.5-2.6,2.4-3.7c4.3-5.3,10-9.9,17-13.9c2-5.1,3-9.5,2.9-13.3c-0.1-4.7-2.4-5.4-6.7-2.2
		c-1.3,1-2.6,2.1-3.9,3.4c-1.3,1.2-2.6,2.8-4.1,4.8c-1.5,2-2.5,3.4-3.1,4.2c-0.6,0.8-1.8,2.6-3.5,5.3c-1.8,2.7-2.7,4.1-2.8,4.4
		c-0.6,0.8-1.4,1-2.4,0.6s-1.4-1.1-1.3-2c4.1-28.8,13.4-53.8,27.9-75.1c0.4-0.7,1-1,1.8-0.9c0.8,0.1,1.3,0.5,1.6,1.1
		c0.3,0.6,0.3,1.3-0.2,2c-12.5,18.4-21,39.6-25.5,63.6c9.3-13.9,16.4-20.1,21.5-18.4c6,1.9,7,8.5,3.1,19.8
		C525.4,90.6,527.8,89.6,530.1,88.8z M503.6,115.4c3.5-2.6,7.1-7.1,10.6-13.6c-1.5,1.1-2.9,2.1-4.1,3.2c-1.5,1.3-3.6,3.8-6.3,7.6
		c-2.1,2.9-2.4,4.1-1.1,3.4C502.9,115.8,503.2,115.6,503.6,115.4z"/>
	<path id="XMLID_136_" class="st0" d="M531.8,87.6c0.3-0.7,0.9-1.1,1.6-1.2c0.7-0.1,1.3,0.2,1.8,0.7c0.5,0.5,0.6,1.2,0.4,2
		c-3.4,8.5-5,17.2-4.9,26c0,1.1-0.6,1.7-1.7,1.7c-1.2,0-1.9-0.5-2.2-1.6c-0.1-0.2-0.1-0.4-0.1-0.6
		C526.5,105.6,528.2,96.6,531.8,87.6z M538.5,76.1c0.5,1.1,0.1,2-1,2.7l-7.1,4.2c-0.5,0.3-1,0.3-1.5,0c-0.5-0.2-0.9-0.6-1.1-1
		c-0.5-1.1-0.1-2,1-2.7l7.1-4.2c0.5-0.3,1-0.3,1.5-0.1C537.9,75.3,538.3,75.6,538.5,76.1z"/>
	<path id="XMLID_139_" class="st0" d="M570.3,53.6c-0.8,6.6-1.4,11.8-1.8,15.7c-0.4,3.9-0.8,8.9-1.1,15c-0.3,6.1-0.4,11.4-0.2,15.9
		c0.2,4.4,0.8,9.3,1.6,14.6c0.8,5.3,2,10.3,3.6,15c0.3,0.8,0.2,1.5-0.3,2.1c-0.5,0.6-1.1,0.8-1.9,0.8c-0.7,0-1.2-0.4-1.5-1.3
		c-4.4-12.7-6.2-28.2-5.4-46.4c-3.8,11.1-9,20.1-15.5,27c-1.1,1.3-2.4,2.3-3.9,3.1c-1.4,0.8-2.8,1.3-4.1,1.6
		c-1.3,0.3-2.5-0.1-3.4-1.1c-0.9-1-1.4-2.6-1.5-4.8c-0.1-4.3,1.4-8.8,4.5-13.4c3-4.6,6.5-7.7,10.5-9.1c1.2-0.4,2.1,0,2.6,1.1
		c0.5,1.2,0.2,2.1-0.9,2.6c-4.5,1.6-8,5.5-10.6,11.6c-2.2,5.1-2.5,7.8-1,8.3c0.9,0.2,2.6-0.7,4.9-2.6c4.9-4.1,9.3-11.7,13.1-22.6
		c4.8-14,8.3-32.2,10.6-54.6c0.1-0.8,0.5-1.3,1.2-1.6c0.7-0.3,1.4-0.2,2,0.2c0.6,0.4,0.9,1,0.8,1.8c-0.2,2-0.4,4.3-0.7,7
		C571.4,44.8,570.8,49.6,570.3,53.6z"/>
	<path id="XMLID_141_" class="st0" d="M604.2,53.6c-0.8,6.6-1.4,11.8-1.8,15.7c-0.4,3.9-0.8,8.9-1.1,15c-0.3,6.1-0.4,11.4-0.2,15.9
		c0.2,4.4,0.8,9.3,1.6,14.6c0.8,5.3,2,10.3,3.6,15c0.3,0.8,0.2,1.5-0.3,2.1c-0.5,0.6-1.1,0.8-1.9,0.8c-0.7,0-1.2-0.4-1.5-1.3
		c-4.4-12.7-6.2-28.2-5.4-46.4c-3.8,11.1-9,20.1-15.5,27c-1.1,1.3-2.4,2.3-3.9,3.1c-1.4,0.8-2.8,1.3-4.1,1.6
		c-1.3,0.3-2.5-0.1-3.4-1.1c-0.9-1-1.4-2.6-1.5-4.8c-0.1-4.3,1.4-8.8,4.5-13.4c3-4.6,6.5-7.7,10.5-9.1c1.2-0.4,2.1,0,2.6,1.1
		c0.5,1.2,0.2,2.1-0.9,2.6c-4.5,1.6-8,5.5-10.6,11.6c-2.2,5.1-2.5,7.8-1,8.3c0.9,0.2,2.6-0.7,4.9-2.6c4.9-4.1,9.3-11.7,13.1-22.6
		c4.8-14,8.3-32.2,10.6-54.6c0.1-0.8,0.5-1.3,1.2-1.6c0.7-0.3,1.4-0.2,2,0.2c0.6,0.4,0.9,1,0.8,1.8c-0.2,2-0.4,4.3-0.7,7
		C605.3,44.8,604.7,49.6,604.2,53.6z"/>
	<path id="XMLID_143_" class="st0" d="M649,89.6c0.6-0.6,1.2-0.8,1.9-0.5c0.7,0.3,1.1,0.8,1.3,1.5c0.2,0.7,0,1.4-0.6,2.1
		c-13.7,14.1-25.6,19.9-35.6,17.5c-3.5-0.8-6.2-2.4-8-4.7c-1.8-2.3-2.5-4.9-2.2-7.7c0.4-2.8,1.7-5.6,4-8.1c1.8-1.9,4.1-3.5,7-4.7
		c4.3-1.7,6.4-0.7,6.3,3.2c0,0.1,0,0.1,0,0.2c-0.1,2.6-1.6,5.1-4.7,7.4c-3.1,2.3-5.8,3.1-8.3,2.3c-0.3,3,1,5.2,3.8,6.7
		c2.8,1.5,5.9,1.9,9.2,1.3c4.7-0.9,9.2-2.7,13.3-5.6C640.4,97.7,644.6,94,649,89.6z M617.3,89c-0.9,0.1-2,0.6-3,1.7
		c-1.1,1.1-2,2.2-2.8,3.5c1.4,0.7,3.1-0.1,5.1-2.4c1.3-1.5,1.7-2.5,1.1-2.8C617.5,89,617.4,89,617.3,89z"/>
	<path id="XMLID_146_" class="st0" d="M715.3,89.9c0.5-0.6,1.2-0.8,2-0.7c0.8,0.1,1.3,0.5,1.6,1.1c0.3,0.6,0.2,1.3-0.3,1.9
		c-1.7,2.1-3.6,4.2-5.9,6.4c-2.3,2.2-4.9,4.4-8,6.5c-3.1,2.2-6.1,3.9-9,5.1c-2.9,1.2-5.9,1.7-9,1.4c-3.1-0.3-5.7-1.6-7.9-4
		c-1.2-1.3-2.8-3.3-4.8-5.9c-2-2.6-3.5-4.4-4.5-5.5c-0.6-0.6-1.2-1.1-1.7-1.4c-0.5-0.4-1-0.6-1.4-0.8c-0.4-0.1-0.8-0.1-1.3,0.1
		c-0.5,0.2-0.8,0.4-1.1,0.6c-0.3,0.2-0.7,0.5-1.2,1c-0.5,0.5-0.8,1-1,1.3c-0.2,0.3-0.6,0.9-1.1,1.6c-0.5,0.8-0.9,1.3-1.1,1.5
		c-0.3,0.5-1.2,2.2-2.6,5.1c-1.4,2.8-2.9,5.2-4.4,7.2c-1.5,2-2.9,3.1-4.3,3.3c-0.8,0.1-1.4-0.1-1.9-0.7c-0.5-0.7-0.8-1.4-1-2.2
		c-0.2-0.8-0.3-1.7-0.3-2.8c0.1-1.1,0.1-2,0.2-2.5c0.1-0.6,0.2-1.6,0.5-2.9c0.3-1.3,0.4-2.1,0.5-2.3c0.4-2.5,1.2-6.1,2.3-10.9
		c1.1-4.7,1.8-7.5,2-8.4c0.2-0.7,0.7-1.2,1.4-1.5c0.7-0.3,1.4-0.2,2,0.2c0.6,0.4,0.8,1,0.6,1.8c-0.3,1.5-0.9,3.9-1.7,7.3
		c-0.8,3.4-1.4,5.9-1.8,7.8c-0.8,3.9-1.3,6.7-1.5,8.2c0,0.2,0,0.5,0,0.9c0.5-1,1.2-2.1,2-3.2c0.8-1.1,1.7-2.3,2.7-3.6
		c0.9-1.3,1.6-2.2,2-2.9c0.2-0.3,0.5-0.7,0.8-1.2c0.4-0.5,0.7-1,1-1.4c0.3-0.4,0.6-0.9,1-1.4c0.4-0.5,0.7-0.9,1-1.4
		c0.3-0.4,0.7-0.8,1.1-1.2c0.4-0.4,0.8-0.8,1.3-1.1c0.4-0.3,0.8-0.6,1.3-0.8c1.1-0.3,2-0.4,2.8-0.4s1.7,0.3,2.6,0.9
		c0.9,0.6,1.8,1.2,2.5,1.9c0.7,0.7,1.5,1.5,2.3,2.5c0.8,1,1.5,1.9,2.1,2.8c0.6,0.8,1.2,1.7,1.8,2.6c0.6,0.9,1.2,1.7,1.6,2.2
		c2.3,2.9,4.4,4.5,6.3,5c1.9,0.5,4.5,0.1,8-1.1C701.8,103.1,709,97.7,715.3,89.9z"/>
	<path id="XMLID_148_" class="st0" d="M843.6,82.1c0.6,4.7,1.1,9,1.5,13.1c0.4,4.1,0.6,8.5,0.7,13.4c0.1,4.9-0.1,9.4-0.5,13.6
		c-0.4,4.2-1.1,8.6-2.2,13.2c-1,4.5-2.4,8.7-4,12.5c-1.1,2.4-2.4,4.7-3.9,6.8c-1.5,2.1-3.4,4.1-5.5,5.9c-2.2,1.8-4.5,2.9-6.8,3.4
		c-2.4,0.4-5,0.1-7.8-1c-1.7-0.7-3.3-1.8-4.8-3.1c-1.4-1.3-2.7-3-3.7-4.9c-1-1.9-1.9-3.7-2.7-5.4c-0.8-1.7-1.5-3.8-2.2-6.3
		c-0.7-2.6-1.1-4.5-1.4-6c-0.3-1.4-0.7-3.3-1.2-5.8c-0.1-0.7-0.2-1.3-0.3-1.6c-0.8-3.7-1.5-7.9-2.2-12.4c-0.6-4.5-1.1-8.6-1.5-12.1
		c-0.4-3.5-0.8-7.8-1.3-12.7c-0.5-4.9-1-9-1.3-12.2c-0.4-3.3-0.8-5.9-1.2-7.6v-0.1c-0.5,0.6-0.8,1.2-0.9,1.7
		c-0.5,1.5-1.1,3.2-1.8,5.1c-0.7,1.9-1.4,3.5-2,5c-0.6,1.5-1.3,3.2-2,5.1c-0.7,1.9-1.3,3.6-1.8,5c-0.8,2.4-2,6.2-3.6,11.5
		c-1.6,5.2-3,9.4-4,12.6c-1,3.2-2.5,6.9-4.4,11.1c-1.9,4.2-3.9,7.9-6,11c-2.9,3.9-5.8,5.4-8.6,4.5c-2.8-0.9-4.9-3.7-6.4-8.3
		c-1-3.1-1.7-6.6-2-10.4c-0.4-3.8-0.5-7.3-0.4-10.7c0.1-3.4,0.4-7.1,1-11.3c0.5-4.1,1.1-7.7,1.7-10.7c0.6-3,1.3-6.4,2.2-10.3
		c2.4-10.6,5.4-20.2,9-28.8c3.6-8.6,8.5-16,14.5-22.1c0.9-0.9,1.8-0.9,2.6,0.1c0.9,1,0.9,2,0,3c-11.9,12.3-20.1,32.6-24.5,61
		c-0.9,5.9-1.4,13.4-1.4,22.7c-0.1,15.1,1.9,22.4,6,21.7c0.3,0,0.6-0.1,0.9-0.3c1.1-0.5,2.1-1.5,3.2-3.1c1.1-1.6,1.9-3.1,2.5-4.5
		c0.6-1.4,1.3-3.3,2.1-5.6c0.8-2.3,1.3-3.7,1.5-4.1c1.8-4.6,4.4-12,7.8-22.1c3.7-10.9,6-17.8,7.1-20.6c0.1-0.4,0.5-1.3,1-2.8
		c0.5-1.4,0.9-2.6,1.3-3.5c0.3-0.9,0.8-1.8,1.4-2.9c0.6-1.1,1.2-1.9,1.9-2.4c0.9-0.8,1.7-1.3,2.4-1.6c0.7-0.2,1.3-0.2,1.8,0.2
		c0.5,0.4,0.9,0.8,1.3,1.3c0.3,0.5,0.6,1.2,0.9,2.1c0.3,0.9,0.5,1.7,0.6,2.4c0.1,0.6,0.3,1.4,0.4,2.3c0.7,4.8,1.5,11.8,2.4,21.1
		c0.9,9.3,1.7,16.1,2.4,20.5c0.1,0.7,0.4,2.4,0.8,5.3c0.4,2.9,0.7,4.9,0.9,6.2c0.2,1.3,0.6,3.3,1.1,6c0.5,2.7,1,4.8,1.5,6.4
		c0.5,1.6,1.2,3.5,2,5.6c0.8,2.1,1.7,3.9,2.8,5.5c1.1,1.6,2.2,3,3.5,4.2c2.1,1.9,4.3,3,6.4,3.3c2.1,0.3,4-0.2,5.7-1.5
		c1.7-1.2,3.3-2.8,4.9-4.8c1.5-1.9,2.9-4.1,4-6.5c1.1-2.4,2.1-4.7,2.8-6.8c0.8-2.1,1.4-4,1.8-5.8c4.2-19.9,4.2-41,0-63.3
		c-4.2-22.4-11.6-42.1-22.3-59.3c-0.7-1.2-0.5-2.2,0.6-3c1.1-0.8,1.9-0.7,2.5,0.4C831.9,29.7,839.9,53.7,843.6,82.1z"/>
	<path id="XMLID_150_" class="st0" d="M892.6,89.6c0.6-0.6,1.2-0.8,1.9-0.5c0.7,0.3,1.1,0.8,1.3,1.5c0.2,0.7,0,1.4-0.6,2.1
		c-13.7,14.1-25.6,19.9-35.6,17.5c-3.5-0.8-6.2-2.4-8-4.7c-1.8-2.3-2.5-4.9-2.2-7.7c0.4-2.8,1.7-5.6,4-8.1c1.8-1.9,4.1-3.5,7-4.7
		c4.3-1.7,6.4-0.7,6.3,3.2c0,0.1,0,0.1,0,0.2c-0.1,2.6-1.6,5.1-4.7,7.4c-3.1,2.3-5.8,3.1-8.3,2.3c-0.3,3,1,5.2,3.8,6.7
		c2.8,1.5,5.9,1.9,9.2,1.3c4.7-0.9,9.2-2.7,13.3-5.6C884,97.7,888.2,94,892.6,89.6z M860.9,89c-0.9,0.1-2,0.6-3,1.7
		c-1.1,1.1-2,2.2-2.8,3.5c1.4,0.7,3.1-0.1,5.1-2.4c1.3-1.5,1.7-2.5,1.1-2.8C861.1,89,861,89,860.9,89z"/>
	<path id="XMLID_153_" class="st0" d="M990.1,53.2c0.8-0.1,1.4,0.2,1.9,0.8c0.5,0.6,0.6,1.3,0.4,2c-0.2,0.7-0.8,1.1-1.7,1.1
		c-22.3,1.7-39.2,3.1-50.8,4.4c-6.5,28.2-10.8,60.5-12.7,96.8c-0.1,0.9-0.4,1.4-1.1,1.7c-0.7,0.2-1.3,0.1-2-0.3
		c-0.7-0.4-1-1-0.9-1.8c1.7-31.2,5-59.5,10.1-84.8c-5.2,9.7-11.3,17.8-18.4,24.3c-0.8,0.8-1.8,1.7-2.9,2.6c3.3,2.1,5.6,4.4,6.7,6.8
		c1,2.1,1.1,4.2,0.2,6.4c-0.9,2.2-2.3,4.1-4.3,5.6c-2,1.5-4.2,2.9-6.7,4s-4.9,1.6-7.3,1.5c-2.4-0.1-4.3-0.7-5.8-1.8
		c-1.3-1-2.3-2.1-2.8-3.3c-0.5-1.2-0.7-2.3-0.6-3.4c0.1-1.1,0.5-2.2,1.3-3.5c0.7-1.3,1.5-2.4,2.3-3.3c0.8-0.9,1.9-2,3.3-3.3
		c1.4-1.2,2.5-2.2,3.4-2.9c0.9-0.7,2-1.5,3.4-2.5c-0.5-0.3-1.2-0.6-2.1-1.1c-1.6-0.9-2.8-1.5-3.6-2c-0.8-0.5-1.9-1.1-3.3-2
		c-1.4-0.9-2.3-1.6-2.9-2.3c-0.6-0.7-1.2-1.5-1.8-2.5c-0.7-1-1-1.9-1-2.8c0-0.9,0.3-2,0.7-3.2s1.2-2.5,2.3-3.8
		c0.9-1.1,2.3-2.4,4-3.8c1.8-1.4,3.8-2.7,6-3.8c2.2-1.1,4.3-1.9,6.3-2.4c2-0.5,3.8-0.2,5.4,0.8c1.6,1,2.5,2.7,2.9,5.3
		c0.1,0.5,0,0.9-0.3,1.3c-0.2,0.4-0.5,0.6-0.9,0.8c-0.4,0.1-0.8,0.2-1.2,0.2c-0.4,0-0.8-0.1-1.1-0.4c-0.3-0.3-0.5-0.7-0.6-1.2
		c-0.1-1.1-0.5-1.8-1.2-2.3c-0.7-0.4-1.5-0.6-2.5-0.4c-1,0.2-2,0.5-3,0.9c-1,0.4-2.1,0.9-3.1,1.5c-1,0.6-1.9,1.2-2.6,1.7
		c-0.7,0.5-1.3,0.9-1.7,1.3c-2,1.6-3.4,3-4.2,4.4c-0.8,1.3-0.9,2.6-0.3,4c0.5,1.4,1.8,2.9,3.9,4.4c0.9,0.6,3.9,2.3,9,5
		c10.5-8.6,19.1-20.5,25.8-35.7c-12.3,1.4-23.6,3.1-33.9,5c-0.8,0.1-1.4-0.1-1.8-0.7c-0.4-0.6-0.5-1.3-0.4-2
		c0.2-0.7,0.7-1.2,1.6-1.3c10.8-2,22.9-3.8,36.3-5.3c0.7-1.9,1.5-4,2.3-6.2c1.1-4.5,2.3-8.8,3.5-12.7c0.3-1.3,1.1-1.7,2.4-1.2
		c1.1,0.5,1.6,1.4,1.3,2.6c0,0.1,0,0.2,0,0.3c0,0.1,0,0.2,0,0.3c0.3,0.5,0.3,1,0.1,1.5c-1.1,3.8-2.3,7.4-3.5,10.8
		c-0.3,1.1-0.6,2.4-1,4.1C952.1,56.1,968.5,54.7,990.1,53.2z M913.7,107c-0.9-1.5-2.6-3-5-4.5c-3.9,2.9-6.2,4.7-7,5.4
		c-2.2,1.8-3.7,4-4.6,6.7c-1.1,3.3,0.1,5,3.4,5.1c0.5,0,1-0.1,1.6-0.2c1.6-0.2,3.3-0.6,5-1.3c1.7-0.6,3.3-1.5,4.8-2.6
		c1.5-1.1,2.4-2.4,2.8-3.9C915,110.3,914.7,108.7,913.7,107z"/>
</g>
</svg>
