<?xml version="1.0" encoding="utf-8"?>
<!-- Generator: Adobe Illustrator 19.0.0, SVG Export Plug-In . SVG Version: 6.00 Build 0)  -->
<svg version="1.1" id="Layer_1" xmlns="http://www.w3.org/2000/svg" xmlns:xlink="http://www.w3.org/1999/xlink" x="0px" y="0px"
	 viewBox="0 0 162.9 103" style="enable-background:new 0 0 162.9 103;" xml:space="preserve">
<style type="text/css">
	.st0{fill:#FFFFFF;}
</style>
<g id="XMLID_54_">
	<path id="XMLID_55_" class="st0" d="M58.3,51.8c0.2-0.3,0.5-0.5,0.9-0.4c0.4,0.1,0.6,0.3,0.8,0.6c0.1,0.3,0.1,0.6-0.1,1
		c-1.3,1.8-2.5,3.4-3.5,4.7c-1,1.3-2.3,2.8-3.7,4.5c-1.5,1.7-2.8,3.2-4.1,4.4c-1.3,1.2-2.7,2.5-4.4,3.8c-1.6,1.3-3.3,2.4-4.9,3.3
		c-1.6,0.9-3.4,1.6-5.3,2.3c-1.9,0.6-3.9,1.1-5.9,1.3c-5.4,0.6-10.3-0.5-14.6-3.3C9.3,71,6.3,67,4.5,61.9c-1.4-3.9-2-8.1-2-12.6
		c0.1-4.5,0.6-8.9,1.7-13.1c1.1-4.3,2.5-8.3,4.4-12c1.1-2.3,2.5-4.5,4.2-6.6c1.7-2,3.6-3.9,5.7-5.4c2.1-1.6,4.4-2.7,7-3.4
		c2.6-0.6,5.2-0.7,7.8-0.1c2.1,0.5,3.9,1.5,5.5,2.9c1.6,1.4,2.7,3,3.4,4.8c0.7,1.8,1,3.8,0.9,5.9c-0.1,2.1-0.7,4.1-1.7,5.9
		c-0.2,0.3-0.5,0.5-0.8,0.5c-0.3,0-0.6-0.2-0.8-0.6c-0.2-0.4-0.2-0.7,0-1.1c0.6-1.2,1.1-2.4,1.3-3.7c0.2-1.3,0.2-2.5,0-3.7
		c-0.2-1.2-0.6-2.3-1.2-3.4c-0.6-1.1-1.3-2-2.1-2.9c-0.8-0.8-1.8-1.5-3-2c-1.2-0.6-2.4-0.9-3.8-1c-3.2-0.3-6.3,0.4-9.3,2.1
		c-3,1.7-5.5,3.9-7.8,6.7c-3.5,4.5-6,10.1-7.6,16.8c-1.6,6.7-2,13-1.3,19c0.4,3.4,1.4,6.6,2.9,9.4c1.5,2.8,3.5,5.1,5.9,6.9
		c2.4,1.8,5.1,3,8.1,3.6c3.1,0.6,6.3,0.5,9.8-0.4c1.5-0.4,2.9-0.8,4.3-1.4c1.4-0.6,2.7-1.3,4-2.1c1.3-0.8,2.5-1.6,3.6-2.5
		c1.1-0.8,2.3-1.8,3.4-3s2.2-2.2,3.1-3.2c0.9-1,1.9-2.1,3-3.5c1.1-1.4,2-2.5,2.7-3.5C56.3,54.4,57.2,53.2,58.3,51.8z"/>
	<path id="XMLID_57_" class="st0" d="M63.6,48.8c1.6,0.4,2.7,1.4,3.3,2.9c0.6,1.5,0.7,3,0.1,4.6c-0.5,1.5-1.3,2.8-2.3,4
		c-1,1.2-2.1,1.9-3.4,2c-1.3,0.1-2.2-0.4-2.8-1.4c-0.6-1-0.8-2.1-0.5-3.4c0.5-2.6,1.8-5.2,4.1-7.8c0.1-0.1,0.1-0.1,0.3-0.2
		C62.6,48.9,63,48.6,63.6,48.8z M60.4,59.9c0.6,0.6,1.6,0.2,2.9-1.1c1.5-1.5,2.3-3.1,2.3-4.8c0.1-1.4-0.5-2.5-1.8-3.1
		c-0.3,0.3-0.6,0.7-0.9,1.1c-0.3,0.4-0.6,0.9-1.1,1.5c-0.4,0.6-0.8,1.2-1,1.8c-0.3,0.6-0.5,1.2-0.8,1.8c-0.2,0.6-0.3,1.1-0.2,1.6
		C59.8,59.2,60,59.6,60.4,59.9z"/>
	<path id="XMLID_60_" class="st0" d="M103.9,49.2c0.3-0.3,0.6-0.4,1-0.4c0.4,0.1,0.6,0.3,0.8,0.6c0.1,0.3,0.1,0.6-0.1,1
		c-0.8,1-1.8,2.1-2.9,3.2c-1.1,1.1-2.5,2.2-4,3.3c-1.5,1.1-3,1.9-4.5,2.5c-1.5,0.6-3,0.9-4.5,0.7c-1.5-0.1-2.9-0.8-4-2
		c-0.6-0.7-1.4-1.6-2.4-2.9c-1-1.3-1.8-2.2-2.2-2.8c-0.3-0.3-0.6-0.5-0.9-0.7c-0.3-0.2-0.5-0.3-0.7-0.4c-0.2-0.1-0.4-0.1-0.6,0
		c-0.2,0.1-0.4,0.2-0.6,0.3c-0.2,0.1-0.3,0.3-0.6,0.5c-0.2,0.3-0.4,0.5-0.5,0.6c-0.1,0.2-0.3,0.4-0.5,0.8c-0.3,0.4-0.5,0.6-0.6,0.8
		c-0.2,0.3-0.6,1.1-1.3,2.5c-0.7,1.4-1.5,2.6-2.2,3.6c-0.8,1-1.5,1.5-2.1,1.6c-0.4,0.1-0.7-0.1-1-0.4c-0.2-0.3-0.4-0.7-0.5-1.1
		c-0.1-0.4-0.2-0.9-0.1-1.4c0-0.5,0.1-1,0.1-1.3c0-0.3,0.1-0.8,0.3-1.5c0.1-0.7,0.2-1,0.3-1.1c0.2-1.3,0.6-3.1,1.1-5.4
		c0.6-2.4,0.9-3.8,1-4.2c0.1-0.4,0.3-0.6,0.7-0.8c0.4-0.1,0.7-0.1,1,0.1c0.3,0.2,0.4,0.5,0.3,0.9c-0.2,0.7-0.4,1.9-0.9,3.6
		c-0.4,1.7-0.7,3-0.9,3.9c-0.4,2-0.6,3.3-0.8,4.1c0,0.1,0,0.3,0,0.4c0.3-0.5,0.6-1,1-1.6c0.4-0.6,0.9-1.2,1.3-1.8
		c0.5-0.6,0.8-1.1,1-1.5c0.1-0.1,0.2-0.3,0.4-0.6c0.2-0.3,0.3-0.5,0.5-0.7c0.1-0.2,0.3-0.4,0.5-0.7c0.2-0.3,0.4-0.5,0.5-0.7
		c0.2-0.2,0.4-0.4,0.6-0.6c0.2-0.2,0.4-0.4,0.6-0.5c0.2-0.2,0.4-0.3,0.6-0.4c0.5-0.1,1-0.2,1.4-0.2s0.8,0.1,1.3,0.5
		c0.5,0.3,0.9,0.6,1.2,0.9c0.4,0.3,0.7,0.8,1.1,1.3c0.4,0.5,0.8,1,1.1,1.4c0.3,0.4,0.6,0.9,0.9,1.3c0.3,0.5,0.6,0.8,0.8,1.1
		c1.2,1.4,2.2,2.3,3.2,2.5c0.9,0.3,2.3,0.1,4-0.6C97.1,55.8,100.7,53.1,103.9,49.2z"/>
	<path id="XMLID_62_" class="st0" d="M136.4,34.6c0.4,0,0.7,0.1,0.9,0.4c0.2,0.3,0.3,0.6,0.2,1c-0.1,0.4-0.4,0.6-0.8,0.6
		c-9.3,1.1-18.9,2.5-28.8,4.2c-3.2,13.6-5.2,27.4-6,41.4c0,0.4-0.2,0.7-0.6,0.8c-0.4,0.1-0.7,0.1-1-0.1c-0.3-0.2-0.5-0.5-0.5-0.9
		c0.8-13.8,2.7-27.4,5.9-40.8c-5,0.9-9.5,1.7-13.5,2.4c-0.2,0-0.4,0-0.6-0.1c-0.2-0.1-0.3-0.2-0.4-0.4c-0.1-0.2-0.1-0.4-0.1-0.6
		s0.1-0.4,0.2-0.5c0.1-0.2,0.3-0.3,0.6-0.4c4.1-0.8,8.9-1.6,14.4-2.6c0.9-3.9,1.9-7.5,2.8-10.8c0.1-0.4,0.4-0.6,0.7-0.6
		c0.4,0,0.7,0.1,0.9,0.4c0.3,0.3,0.3,0.6,0.3,1c-0.8,2.8-1.7,6-2.6,9.7C118.1,37.1,127.4,35.8,136.4,34.6z"/>
	<path id="XMLID_64_" class="st0" d="M130.3,49.4c0.2-0.2,0.4-0.3,0.6-0.3c0.2,0,0.4,0.1,0.6,0.2c0.2,0.1,0.3,0.3,0.4,0.5
		c0.1,0.2,0.1,0.4,0.1,0.6c0,0.2-0.1,0.4-0.3,0.6c-2.4,1.9-5.1,2.8-8.1,2.7c-3-0.1-5.6-1.2-7.8-3.2c-1.2,1.4-2.2,3.1-3,5.1
		c-0.8,2-1.4,4.1-1.9,6.2c-0.1,0.4-0.3,0.7-0.6,0.8c-0.3,0.1-0.6,0.1-1-0.1c-0.3-0.2-0.4-0.5-0.4-1c0.1-4.5,1-9.8,2.6-15.6
		c0.1-0.4,0.3-0.6,0.7-0.6c0.4,0,0.7,0.1,1,0.4c0.3,0.3,0.3,0.6,0.3,1c-0.6,2-1,4-1.5,5.9c0.9-1.7,2-3.1,3.1-4.3
		c0.2-0.2,0.4-0.3,0.7-0.3c0.3,0,0.5,0.1,0.7,0.4c1.8,2,4.1,3.1,6.8,3.3C125.8,51.9,128.2,51.1,130.3,49.4z"/>
	<path id="XMLID_66_" class="st0" d="M132,48.8c1.6,0.4,2.7,1.4,3.3,2.9c0.6,1.5,0.7,3,0.1,4.6c-0.5,1.5-1.3,2.8-2.3,4
		c-1,1.2-2.1,1.9-3.4,2c-1.3,0.1-2.2-0.4-2.8-1.4c-0.6-1-0.8-2.1-0.5-3.4c0.5-2.6,1.8-5.2,4-7.8c0.1-0.1,0.2-0.1,0.3-0.2
		C130.9,48.9,131.3,48.6,132,48.8z M128.6,59.9c0.6,0.6,1.6,0.2,2.9-1.1c1.5-1.5,2.3-3.1,2.3-4.8c0.1-1.4-0.5-2.5-1.8-3.1
		c-0.3,0.3-0.5,0.7-0.9,1.1c-0.3,0.4-0.6,0.9-1,1.5c-0.4,0.6-0.8,1.2-1,1.8c-0.3,0.6-0.5,1.2-0.8,1.8c-0.2,0.6-0.3,1.1-0.2,1.6
		C128.1,59.2,128.3,59.6,128.6,59.9z"/>
	<path id="XMLID_69_" class="st0" d="M160.9,49.8c0.5-0.5,1-0.5,1.5-0.1c0.5,0.4,0.6,0.8,0.2,1.3c-0.8,0.9-1.6,1.7-2.3,2.4
		s-1.7,1.6-3,2.8s-2.5,2.1-3.6,2.9c-1.1,0.8-2.3,1.6-3.7,2.3c-1.4,0.7-2.6,1.1-3.8,1.3s-2.3,0.1-3.4-0.4c-1.1-0.4-2.1-1.3-2.9-2.5
		c-0.5-0.7-0.8-1.5-1.1-2.5s-0.4-1.9-0.5-2.8c0-0.9,0-2,0.1-3.2c0.1-1.3,0.2-2.3,0.3-3.1c0.1-0.8,0.3-1.8,0.5-3.1
		c0.3-1.3,0.4-2.2,0.5-2.6c0.2-1.4,0.5-2.9,0.8-4.4s0.6-3.1,1-4.7c0.4-1.6,0.7-3,1-4.2c0.3-1.2,0.7-2.8,1.1-4.6
		c0.5-1.9,0.8-3.4,1.1-4.4c0.1-0.5,0.5-0.7,1-0.6c0.5,0.1,0.8,0.4,0.9,0.8c0.2,1.1,0.4,2.1,0.4,3.1c0,1,0,1.9-0.2,2.9
		c-0.2,1-0.4,1.9-0.6,2.7c-0.2,0.8-0.6,1.9-1,3.1c-0.1,0.3-0.3,0.5-0.7,0.6c-0.3,0.1-0.6,0-0.8-0.2c-1.5,6.5-2.5,12-2.9,16.6
		c0,0.2-0.1,0.7-0.2,1.5c-0.1,0.8-0.1,1.4-0.2,2c0,0.5-0.1,1.1-0.1,1.8c0,0.7,0,1.3,0.1,1.9c0.1,0.6,0.3,1,0.5,1.4
		c0.3,0.6,0.6,1,1,1.4c0.4,0.4,0.7,0.7,1,0.9c0.3,0.2,0.8,0.4,1.3,0.4c0.5,0,0.9,0.1,1.2,0.1c0.3,0,0.7-0.1,1.3-0.3
		c0.6-0.2,1-0.4,1.2-0.4c0.3-0.1,0.7-0.3,1.3-0.7c0.6-0.4,0.9-0.6,1.1-0.7c0.2-0.1,0.8-0.5,2-1.4C155.5,55,158.3,52.5,160.9,49.8z"
		/>
</g>
</svg>
