<?xml version="1.0" encoding="utf-8"?>
<!-- Generator: Adobe Illustrator 19.0.0, SVG Export Plug-In . SVG Version: 6.00 Build 0)  -->
<svg version="1.1" id="Layer_1" xmlns="http://www.w3.org/2000/svg" xmlns:xlink="http://www.w3.org/1999/xlink" x="0px" y="0px"
	 viewBox="0 0 167 85" style="enable-background:new 0 0 167 85;" xml:space="preserve">
<style type="text/css">
	.st0{fill:#FFFFFF;}
</style>
<g id="XMLID_54_">
	<path id="XMLID_55_" class="st0" d="M90,42.2c0.4-0.2,0.7-0.1,1,0.1c0.3,0.3,0.4,0.6,0.4,0.9c0,0.4-0.2,0.6-0.6,0.8
		c-6.7,2.6-13.3,5.6-19.6,8.8c3.4,1.7,5.2,3.9,5.2,6.5c0,1.2-0.3,2.4-1,3.7c-0.6,1.3-1.4,2.4-2.4,3.5s-2.1,2.1-3.4,3.2
		c-1.3,1.1-2.4,2-3.4,2.7c-1,0.7-2.1,1.4-3.1,2c-7.4,4.6-13.5,6.3-18.1,5.2c-1.2-0.3-2.2-0.7-2.8-1.4c-0.6-0.7-1-1.4-1-2.3
		c0-0.9,0.1-1.8,0.4-2.7c0.3-0.9,0.7-1.9,1.3-2.9c0.5-1,1.2-1.9,1.9-2.8c0.7-0.9,1.5-1.7,2.5-2.5c0.9-0.8,1.8-1.5,2.6-2.2
		c0.8-0.6,1.8-1.3,3-2c1.2-0.7,2.2-1.3,2.9-1.8c0.8-0.4,1.8-1,3.2-1.8c1.3-0.7,2.3-1.3,2.9-1.6c1.2-0.7,2.7-1.5,4.4-2.4
		c-0.9-0.3-1.8-0.6-2.6-0.9c-0.9-0.3-1.9-0.5-2.9-0.8c-1-0.2-1.9-0.4-2.7-0.6c-0.8-0.2-1.8-0.3-3-0.5c-1.2-0.2-2.1-0.3-2.7-0.4
		s-1.6-0.2-3-0.4s-2.3-0.3-2.8-0.3c-0.4,0-1.4-0.2-3-0.3c-1.5-0.2-2.5-0.3-2.7-0.3c-3.4-0.4-5.8-0.6-7.1-0.8
		c-1.3-0.1-3.3-0.4-6.1-0.8c-2.8-0.4-5.2-0.9-7.3-1.4c-2.1-0.5-4.2-1.1-6.2-1.8c-6.2-2.2-8.8-5.4-7.9-9.7c0.1-0.5,0.3-1.1,0.6-1.6
		c0.3-0.6,0.6-1,0.8-1.4C8,30.8,8.4,30.4,9,29.8c0.6-0.6,1-1,1.2-1.1c0.2-0.2,0.7-0.6,1.4-1.2c0.8-0.6,1.2-1,1.3-1
		c3.3-2.9,6.9-5.5,10.6-7.9c7.4-4.7,15.2-8.2,23.5-10.6c0.2-0.1,0.7-0.3,1.5-0.5c0.8-0.2,1.4-0.4,1.8-0.5c0.5-0.1,1.1-0.3,1.9-0.5
		C53,6.2,53.7,6,54.3,6c0.6-0.1,1.3-0.1,2-0.2c0.8,0,1.4,0,2,0.1c0.6,0.1,1.1,0.3,1.7,0.5c0.6,0.2,1.1,0.5,1.5,1
		c0.5,0.4,0.8,0.9,1.1,1.5c0.2,0.6,0.4,1.2,0.4,1.8c0,0.6-0.2,1.2-0.6,1.9c-0.4,0.7-0.8,1.3-1.2,1.8c-0.4,0.5-0.9,1.1-1.5,1.6
		c-0.6,0.6-1.1,1-1.6,1.4c-0.5,0.4-1,0.7-1.5,1.1c-0.3,0.2-0.7,0.3-1,0.1c-0.4-0.2-0.6-0.4-0.6-0.8c0-0.3,0.1-0.6,0.4-0.9
		c2.5-1.7,4-3.3,4.6-4.5c0.4-1,0.5-1.8,0.3-2.5c-0.2-0.7-0.7-1.1-1.4-1.4c-0.7-0.2-1.5-0.4-2.4-0.5C55.8,8,54.9,8,54,8.2
		c-4.1,0.6-9.3,2.2-15.5,4.8c-10.8,4.4-20,10.3-27.5,17.6c-5.2,5-3.2,9,5.9,12C21,44,26.8,45.1,34.2,46c1.5,0.2,3.8,0.4,6.8,0.7
		s5.4,0.6,7.3,0.8c1.8,0.2,4,0.5,6.6,1c2.6,0.4,4.9,0.9,7,1.4c3.4,0.8,5.8,1.5,7,2C75.6,48.3,82.7,45.1,90,42.2z M69.5,54.4
		c-0.1,0-0.2-0.1-0.3-0.2c-0.1-0.1-0.2-0.1-0.3-0.2c-3.2,1.7-6.3,3.5-9.2,5.2c-0.4,0.3-1.4,0.8-2.8,1.6c-1.5,0.8-2.5,1.5-3.3,1.9
		c-0.7,0.5-1.7,1.1-2.8,1.9c-1.1,0.8-2.1,1.6-2.9,2.4c-0.8,0.8-1.5,1.7-2.1,2.6c-0.5,0.8-1,1.6-1.3,2.3c-0.3,0.8-0.6,1.5-0.7,2.3
		c-0.1,0.8,0.1,1.5,0.5,2.1c0.5,0.6,1.3,1,2.3,1.3c0.2,0.1,0.5,0.1,0.8,0.1c0.3,0,0.6,0,0.9,0c0.3,0,0.6,0,1-0.1
		c0.4-0.1,0.7-0.1,0.9-0.2c0.2,0,0.5-0.1,1-0.3c0.4-0.1,0.7-0.2,0.9-0.3c0.1-0.1,0.4-0.2,0.9-0.3c0.5-0.1,0.7-0.2,0.8-0.2
		c2.6-0.8,5.8-2.6,9.8-5.2c5.8-3.9,9.1-7.4,10-10.5C74.4,58.1,73,55.9,69.5,54.4z"/>
	<path id="XMLID_58_" class="st0" d="M125.4,25.9c0.4,0,0.7,0.1,0.9,0.4c0.2,0.3,0.3,0.6,0.2,1c-0.1,0.4-0.4,0.6-0.8,0.6
		c-9.3,1.1-18.9,2.5-28.8,4.2c-3.2,13.6-5.2,27.4-6,41.4c0,0.4-0.2,0.7-0.6,0.8c-0.4,0.1-0.7,0.1-1-0.1s-0.5-0.5-0.5-0.9
		c0.8-13.8,2.7-27.4,5.9-40.8c-5,0.9-9.5,1.7-13.5,2.4c-0.2,0-0.4,0-0.6-0.1c-0.2-0.1-0.3-0.2-0.4-0.4c-0.1-0.2-0.1-0.4-0.1-0.6
		s0.1-0.4,0.2-0.5c0.1-0.2,0.3-0.3,0.6-0.4c4.1-0.8,8.9-1.6,14.4-2.6c0.9-3.9,1.9-7.5,2.9-10.8c0.1-0.4,0.4-0.6,0.7-0.6
		c0.4,0,0.7,0.1,0.9,0.4c0.3,0.3,0.4,0.6,0.3,1c-0.8,2.8-1.7,6-2.6,9.7C107.1,28.4,116.4,27,125.4,25.9z"/>
	<path id="XMLID_60_" class="st0" d="M119.2,40.3c0.3-0.3,0.6-0.4,0.9-0.2c0.3,0.1,0.5,0.4,0.6,0.8c0.1,0.3,0,0.7-0.3,1
		c-6.9,7-12.8,9.9-17.8,8.7c-1.8-0.4-3.1-1.2-4-2.3c-0.9-1.2-1.3-2.4-1.1-3.9c0.2-1.4,0.8-2.8,2-4.1c0.9-1,2.1-1.8,3.5-2.4
		c2.1-0.9,3.2-0.3,3.1,1.6c0,0,0,0.1,0,0.1c0,1.3-0.8,2.5-2.3,3.7c-1.5,1.2-2.9,1.6-4.2,1.1c-0.1,1.5,0.5,2.6,1.9,3.4
		c1.4,0.7,2.9,0.9,4.6,0.6c2.4-0.4,4.6-1.4,6.6-2.8C114.9,44.4,117,42.5,119.2,40.3z M103.3,40c-0.5,0-1,0.3-1.5,0.9
		c-0.5,0.5-1,1.1-1.4,1.8c0.7,0.3,1.5-0.1,2.5-1.2c0.7-0.8,0.9-1.2,0.5-1.4C103.5,40,103.4,40,103.3,40z"/>
	<path id="XMLID_63_" class="st0" d="M139.1,40.3c0.3-0.3,0.6-0.4,1-0.2c0.3,0.1,0.5,0.4,0.6,0.8c0.1,0.3,0,0.7-0.3,1
		c-6.9,7-12.8,9.9-17.8,8.7c-1.8-0.4-3.1-1.2-4-2.3c-0.9-1.2-1.3-2.4-1.1-3.9c0.2-1.4,0.8-2.8,2-4.1c0.9-1,2.1-1.8,3.5-2.4
		c2.1-0.9,3.2-0.3,3.1,1.6c0,0,0,0.1,0,0.1c0,1.3-0.8,2.5-2.3,3.7c-1.5,1.2-2.9,1.6-4.2,1.1c-0.1,1.5,0.5,2.6,1.9,3.4
		c1.4,0.7,2.9,0.9,4.6,0.6c2.4-0.4,4.6-1.4,6.6-2.8S136.9,42.5,139.1,40.3z M123.2,40c-0.5,0-1,0.3-1.5,0.9c-0.5,0.5-1,1.1-1.4,1.8
		c0.7,0.3,1.5-0.1,2.5-1.2c0.7-0.8,0.8-1.2,0.5-1.4C123.4,40,123.3,40,123.2,40z"/>
	<path id="XMLID_66_" class="st0" d="M160.8,40.5c0.4-0.1,0.7,0,0.9,0.3c0.2,0.3,0.3,0.6,0.2,1c-0.1,0.4-0.4,0.6-0.8,0.6
		c-2.7,0.5-4.9,1.6-6.8,3.3c-0.2,1.3-0.7,2.5-1.5,3.8s-1.6,2.3-2.6,3.2c-0.4,0.4-0.8,0.4-1.2,0.1c-0.4-0.3-0.5-0.7-0.4-1.2
		c0.7-2.6,1.9-4.9,3.8-6.8c0.2-2-0.5-3.4-2.2-4.3c-2.1-1.1-4.1-0.3-6,2.5c-1.6,2.3-2.5,5.7-2.8,10.2c-0.4,5.2-0.3,9.9,0.1,14.2
		c0.5,3.8,1.3,7.5,2.3,11.3c0.1,0.5-0.1,0.9-0.7,1.1c-0.6,0.2-1,0-1.2-0.5c0,0,0-0.1,0-0.1c0,0,0-0.1,0-0.1v0
		c-0.9-2.8-1.5-5.9-2-9.2c-1.9-12-1.6-24,1-35.9c0.1-0.4,0.3-0.7,0.7-0.8c0.4-0.1,0.7-0.1,1,0.1c0.3,0.2,0.4,0.5,0.3,0.9
		c-0.8,3.5-1.3,7.1-1.7,10.7c0.6-1.6,1.5-3,2.5-4.1c1-1.2,2.1-2,3.2-2.4c1.1-0.5,2.2-0.5,3.3-0.1c1.1,0.4,2.2,1.2,3.1,2.4
		c0.6,0.8,1,1.8,1.2,2.8C156.2,41.7,158.4,40.8,160.8,40.5z"/>
</g>
</svg>
