<?xml version="1.0" encoding="utf-8"?>
<!-- Generator: Adobe Illustrator 19.0.0, SVG Export Plug-In . SVG Version: 6.00 Build 0)  -->
<svg version="1.1" id="Layer_1" xmlns="http://www.w3.org/2000/svg" xmlns:xlink="http://www.w3.org/1999/xlink" x="0px" y="0px"
	 viewBox="0 0 722 86.9" style="enable-background:new 0 0 722 86.9;" xml:space="preserve">
<style type="text/css">
	.st0{fill:#FFFFFF;}
</style>
<g id="XMLID_2_">
	<path id="XMLID_3_" class="st0" d="M47.5,21.4c0.2,3.9,0.1,8.3,0,13.4c-0.2,5-0.5,9.5-0.8,13.4c-0.3,3.9-0.5,8.3-0.5,13.4
		c0,5,0.2,9.5,0.6,13.3c0,0.4-0.1,0.7-0.4,0.9c-0.3,0.2-0.6,0.3-1,0.2c-0.4-0.1-0.5-0.4-0.6-0.8c-0.5-4.1-0.7-8.6-0.6-13.6
		c0.1-5,0.3-9.6,0.6-13.7c0.3-4.1,0.6-8.7,0.8-13.7c0.2-5,0.1-9.6-0.1-13.6c0,0-0.1-0.4-0.1-1.1c0-0.7,0-1.3-0.1-1.9
		c0-0.5-0.1-1.1-0.2-1.8C45,15,44.8,14.4,44.6,14c-0.2-0.4-0.4-0.7-0.7-0.8c-0.2-0.1-0.5,0-0.8,0.1c-0.3,0.2-0.6,0.4-0.9,0.8
		c-0.3,0.4-0.6,0.7-0.9,1.1c-0.3,0.4-0.5,0.8-0.8,1.4c-0.3,0.5-0.5,0.9-0.7,1.3c-0.2,0.3-0.4,0.7-0.6,1.1c-0.2,0.4-0.3,0.6-0.3,0.7
		c-0.5,0.9-1.8,3.8-4,8.6c-2.2,4.8-4,8.4-5.6,10.7c-0.5,0.6-1,1.2-1.5,1.8c-0.5,0.5-1.1,1-1.8,1.5c-0.7,0.4-1.3,0.6-2,0.4
		c-0.7-0.1-1.2-0.7-1.7-1.5c-0.2-0.4-0.4-0.9-0.5-1.5c-0.1-0.6-0.2-1.1-0.2-1.7c0-0.6,0-1.1,0-1.7c0-0.6,0-1.1,0-1.6
		c0-0.4,0-4.2,0-11.3c0.1-5.6-0.1-9.9-0.4-12.8c-0.7-5.9-1.7-8.8-3.1-8.8c-0.4,0-0.9,0.5-1.4,1.4c-0.5,1-1.1,2.2-1.6,3.7
		c-0.5,1.5-1,3-1.4,4.3c-0.4,1.3-0.8,2.7-1.1,4.1c-0.4,1.4-0.5,2.1-0.5,2.2C9.2,27.8,6.8,37.1,5,45.3c-1.8,8.2-2.8,16.2-3,24.1
		c0,0.4-0.2,0.7-0.5,0.8c-0.4,0.1-0.7,0.1-1-0.1C0.2,69.9,0,69.6,0,69.2c0.1-3.2,0.4-6.8,1-10.6c0.5-3.9,1.1-7.1,1.6-9.8
		c0.5-2.7,1.3-6.1,2.3-10.4c2.7-12,5.4-21.8,8.1-29.4c0-0.1,0.2-0.7,0.5-1.7c0.3-1,0.6-1.8,0.9-2.5c0.3-0.7,0.6-1.4,1-2.3
		c0.4-0.9,0.9-1.5,1.4-1.9c0.5-0.4,1.1-0.6,1.7-0.6c0.7,0,1.3,0.3,1.8,0.7c0.5,0.5,1,1,1.3,1.6s0.7,1.4,0.9,2.4
		c0.3,1,0.5,1.8,0.6,2.6C23.2,8,23.3,9,23.4,10c0.1,1.1,0.2,1.9,0.2,2.4c0,0.5,0,1.2,0.1,2c0,0.3,0.1,0.6,0.1,0.7
		c0.1,2.5,0.1,6.9,0,13.1c0,0.5-0.1,1.6-0.2,3.3c-0.1,1.7-0.1,3.2-0.1,4.3c0.1,1.2,0.2,2.2,0.6,3.2c0.7,2.2,2.1,1.6,4.1-1.8
		c0.1-0.2,0.2-0.4,0.4-0.8l0.2-0.3c0.5-0.9,1-1.9,1.6-3c0.6-1.1,1-2,1.4-2.7c0.3-0.7,0.8-1.8,1.4-3.1c0.6-1.4,1.1-2.3,1.3-2.9
		c0.1-0.3,0.5-1.1,1-2.5c0.5-1.4,1.1-2.5,1.5-3.5c0.5-1,1.1-2.1,1.8-3.3c0.7-1.2,1.5-2.2,2.3-2.8c0.8-0.7,1.7-1,2.5-1.1
		c0.6,0,1.1,0.1,1.5,0.4c0.4,0.3,0.8,0.7,1,1.2c0.3,0.5,0.5,1.1,0.6,1.6c0.2,0.5,0.3,1.1,0.4,1.9c0.1,0.8,0.1,1.4,0.2,1.9
		c0,0.5,0.1,1.1,0.1,1.8C47.5,20.8,47.5,21.3,47.5,21.4z"/>
	<path id="XMLID_5_" class="st0" d="M77.5,40.9c0.3-0.3,0.6-0.4,0.9-0.2c0.3,0.1,0.6,0.4,0.6,0.8c0.1,0.4,0,0.7-0.3,1
		c-0.6,0.6-1.4,1.3-2.4,2.1c-1,0.8-2.1,1.6-3.4,2.5c-1.3,0.9-2.6,1.6-3.9,2.1c-1.3,0.5-2.5,0.9-3.6,1.1c-1.2,0.2-2.2,0-3-0.5
		c-0.9-0.6-1.4-1.5-1.7-2.9c-0.3,0.2-0.6,0.5-1,0.8c-0.4,0.3-0.7,0.6-1,0.9c-0.3,0.3-0.6,0.5-1,0.8c-0.4,0.3-0.8,0.5-1.1,0.8
		c-0.3,0.2-0.7,0.4-1.1,0.6c-0.4,0.2-0.8,0.3-1.2,0.4c-0.4,0.1-0.8,0.1-1.2,0.1c-0.4,0-0.8,0-1.2-0.2c-0.8-0.2-1.4-0.6-1.8-1.2
		s-0.6-1.3-0.6-1.9c0-0.7,0.1-1.4,0.3-2.2c0.4-1.4,1.1-2.7,2.2-3.7c1.1-1,2.3-1.8,3.6-2.2c1.3-0.4,2.7-0.6,4.2-0.5
		c1.5,0.1,2.8,0.5,4.1,1.3c0.6,0.3,0.7,0.8,0.3,1.3c-0.4,0.5-0.9,0.6-1.4,0.3c-2.5-1.5-5.1-1.4-7.8,0.1c-0.5,0.3-1,0.7-1.5,1.1
		c-0.4,0.4-0.9,0.9-1.3,1.4c-0.4,0.6-0.6,1.1-0.6,1.6c0,0.5,0.2,1.1,0.7,1.6c0.5,0.5,1,0.8,1.6,0.8s1.2-0.2,1.9-0.6
		c0.6-0.4,1.2-0.8,1.8-1.3c0.6-0.5,1.2-1,1.9-1.5c0.7-0.6,1.2-1,1.6-1.3c0.3-0.2,0.7-0.2,1,0.1c0.3,0.3,0.5,0.6,0.5,0.9
		c0.1,3.7,2.6,4.1,7.5,1.2c2.7-1.6,5.1-3.4,7.2-5.4C77.4,41,77.4,40.9,77.5,40.9z"/>
	<path id="XMLID_7_" class="st0" d="M97.8,41.1c0.2-0.2,0.4-0.3,0.6-0.3c0.2,0,0.4,0.1,0.6,0.2c0.2,0.1,0.3,0.3,0.4,0.5
		c0.1,0.2,0.1,0.4,0.1,0.6c0,0.2-0.1,0.4-0.3,0.6c-2.4,1.9-5.1,2.8-8.1,2.7c-3-0.1-5.6-1.2-7.8-3.2c-1.2,1.4-2.2,3.1-3,5.1
		c-0.8,2-1.4,4.1-1.9,6.2c-0.1,0.4-0.3,0.7-0.6,0.8c-0.3,0.1-0.6,0.1-0.9-0.1c-0.3-0.2-0.5-0.5-0.5-1c0.1-4.5,1-9.8,2.6-15.6
		c0.1-0.4,0.3-0.6,0.7-0.6c0.4,0,0.7,0.1,1,0.4c0.3,0.3,0.3,0.6,0.3,1c-0.6,2-1.1,4-1.5,5.9c0.9-1.7,2-3.1,3.1-4.3
		c0.2-0.2,0.4-0.3,0.7-0.3c0.3,0,0.5,0.1,0.7,0.4c1.8,2,4.1,3.1,6.8,3.3C93.3,43.6,95.7,42.8,97.8,41.1z"/>
	<path id="XMLID_9_" class="st0" d="M103.5,55.3c-0.7,0.3-1.4,0.3-2,0s-1.1-0.7-1.5-1.3c-0.4-0.6-0.7-1.4-1-2.3
		c-0.3-0.9-0.6-1.9-0.7-2.9c-0.1-1-0.3-2.1-0.4-3.1c-0.1-1.1-0.2-2-0.2-3c0-0.9,0-1.8-0.1-2.5c0-0.7,0-1.2,0-1.6
		c0-0.4,0.2-0.7,0.5-0.8c0.3-0.1,0.7-0.1,1,0.1c0.3,0.2,0.5,0.5,0.5,0.9c0,4.2,0.3,7.7,0.9,10.4c0,0.1,0.1,0.3,0.2,0.6
		c0.1,0.4,0.1,0.6,0.2,0.8c0,0.2,0.1,0.4,0.3,0.8c0.1,0.4,0.2,0.6,0.4,0.8c0.1,0.2,0.3,0.3,0.5,0.5c0.2,0.1,0.4,0.2,0.6,0.2
		s0.5-0.1,0.8-0.3c0.2-0.1,0.3-0.3,0.5-0.6c0.2-0.3,0.3-0.6,0.4-0.9s0.2-0.6,0.4-1c0.1-0.4,0.2-0.6,0.3-0.8c0.9-2.3,1.9-5.6,3-10
		c1.1-4.4,2-7.4,2.5-9c0.1-0.4,0.3-0.6,0.7-0.6c0.4,0,0.7,0.1,1,0.4c0.3,0.3,0.3,0.6,0.2,1c-0.5,1.5-1,3.3-1.5,5.2s-1.1,4-1.6,6
		c-0.5,2-1,3.8-1.5,5.2c-0.1,0.2-0.2,0.6-0.4,1.2c-0.2,0.6-0.3,1.2-0.5,1.5c-0.1,0.4-0.3,0.9-0.5,1.5c-0.3,0.6-0.5,1.1-0.8,1.5
		c-0.3,0.4-0.6,0.8-0.9,1.1C104.3,54.9,103.9,55.1,103.5,55.3z"/>
	<path id="XMLID_11_" class="st0" d="M132.9,40.8c0.3-0.3,0.6-0.4,1-0.2c0.3,0.1,0.5,0.4,0.6,0.8c0.1,0.3,0,0.7-0.3,1
		c-6.9,7-12.8,9.9-17.8,8.8c-1.8-0.4-3.1-1.2-4-2.3s-1.3-2.4-1.1-3.9c0.2-1.4,0.8-2.8,2-4.1c0.9-1,2.1-1.8,3.5-2.4
		c2.1-0.9,3.2-0.3,3.1,1.6c0,0,0,0.1,0,0.1c0,1.3-0.8,2.5-2.3,3.7c-1.5,1.2-2.9,1.6-4.2,1.1c-0.1,1.5,0.5,2.6,1.9,3.4
		c1.4,0.7,2.9,1,4.6,0.6c2.4-0.4,4.6-1.4,6.6-2.8C128.6,44.8,130.7,43,132.9,40.8z M117,40.5c-0.5,0-1,0.3-1.5,0.9
		c-0.5,0.5-1,1.1-1.4,1.8c0.7,0.3,1.5-0.1,2.5-1.2c0.7-0.8,0.9-1.2,0.5-1.4C117.2,40.5,117.1,40.5,117,40.5z"/>
	<path id="XMLID_14_" class="st0" d="M154.8,41.5c0.5-0.5,1-0.5,1.5-0.1c0.5,0.4,0.6,0.8,0.2,1.3c-0.8,0.9-1.6,1.7-2.3,2.4
		s-1.7,1.6-3,2.8s-2.5,2.1-3.6,2.9c-1.1,0.8-2.3,1.6-3.7,2.3c-1.4,0.7-2.6,1.1-3.8,1.3c-1.1,0.2-2.3,0.1-3.4-0.4
		c-1.1-0.4-2.1-1.3-2.9-2.5c-0.5-0.7-0.8-1.5-1.1-2.5c-0.3-1-0.4-1.9-0.5-2.8c-0.1-0.9,0-2,0.1-3.2c0.1-1.3,0.2-2.3,0.3-3.1
		c0.1-0.8,0.3-1.8,0.5-3.1c0.3-1.3,0.4-2.2,0.5-2.6c0.2-1.4,0.5-2.9,0.8-4.4s0.6-3.1,1-4.7c0.4-1.6,0.7-3,1-4.2
		c0.3-1.2,0.7-2.8,1.1-4.6c0.5-1.9,0.8-3.4,1.1-4.4c0.1-0.5,0.5-0.7,1-0.6c0.5,0.1,0.8,0.4,0.9,0.8c0.2,1.1,0.4,2.1,0.4,3.1
		c0,1,0,1.9-0.2,2.9c-0.2,1-0.4,1.9-0.6,2.7c-0.2,0.8-0.6,1.9-1,3.1c-0.1,0.3-0.3,0.5-0.7,0.6c-0.3,0.1-0.6,0-0.8-0.2
		c-1.5,6.5-2.5,12-2.9,16.6c0,0.2-0.1,0.7-0.2,1.5c-0.1,0.8-0.1,1.4-0.2,2c-0.1,0.5-0.1,1.1-0.1,1.8c0,0.7,0,1.3,0.1,1.9
		c0.1,0.6,0.3,1,0.5,1.4c0.3,0.6,0.6,1,1,1.4c0.4,0.4,0.7,0.7,1,0.9c0.3,0.2,0.8,0.4,1.3,0.4c0.5,0,0.9,0.1,1.2,0.1
		c0.3,0,0.7-0.1,1.3-0.3c0.6-0.2,1-0.4,1.2-0.4c0.3-0.1,0.7-0.3,1.3-0.7c0.6-0.4,1-0.6,1.1-0.7c0.1-0.1,0.8-0.5,2-1.4
		C149.4,46.7,152.2,44.2,154.8,41.5z"/>
	<path id="XMLID_16_" class="st0" d="M158.8,20.8c0-0.4,0.2-0.7,0.5-0.8c0.3-0.1,0.7-0.1,1,0.1c0.3,0.2,0.5,0.5,0.5,0.9
		c0,2.9-1,4.8-2.9,5.7c-0.4,0.2-0.7,0.1-1-0.1c-0.3-0.2-0.4-0.5-0.4-0.9c0-0.4,0.2-0.7,0.6-0.8C158.3,24.3,158.8,23,158.8,20.8z"/>
	<path id="XMLID_18_" class="st0" d="M178.7,41c0.3-0.2,0.7-0.3,1-0.1c0.4,0.2,0.6,0.4,0.6,0.8c0.1,0.3-0.1,0.6-0.4,0.9
		c-2.4,1.7-4.6,3.4-6.6,4.9c0.9,0.6,1.6,1.1,2.2,1.7c0.6,0.5,1.1,1.2,1.6,1.9c0.4,0.7,0.6,1.5,0.5,2.3c-0.1,0.8-0.6,1.7-1.3,2.5
		c-0.7,0.8-1.6,1.6-2.8,2.3c-1.1,0.7-2.3,1.3-3.6,1.7c-1.3,0.4-2.4,0.4-3.6-0.1c-1.1-0.4-1.9-1.3-2.4-2.6c-0.8-2.1,0.4-4.5,3.4-7.3
		c0.7-0.6,1.6-1.4,2.5-2.1c-0.1,0-0.5-0.3-1.3-0.7c-0.8-0.4-1.3-0.7-1.6-0.9c-0.3-0.2-0.7-0.4-1.3-0.9c-0.6-0.4-1-0.8-1.4-1.1
		c-0.3-0.4-0.6-0.8-0.9-1.2c-1-1.8-0.5-3.8,1.7-6.1c1.9-1.9,4-3.2,6.4-3.8c2.7-0.6,4.4,0,5.1,1.8c0.1,0.3,0.2,0.6,0.3,1
		c0,0.4-0.1,0.7-0.4,0.9c-0.3,0.2-0.6,0.3-1,0.1c-0.4-0.1-0.6-0.4-0.6-0.8c-0.3-1.8-2-1.8-5.1,0c-1.4,0.8-2.4,1.5-3.1,2.3
		c-0.6,0.6-1,1.1-1.3,1.5c-0.3,0.4-0.3,0.9-0.2,1.4c0.1,0.5,0.5,1.1,1.1,1.6c0.3,0.3,0.6,0.5,1.1,0.8c0.4,0.3,0.7,0.5,1,0.7
		c0.3,0.2,0.7,0.4,1.3,0.7c0.5,0.3,0.9,0.5,1.1,0.6c0.1,0,0.2,0.1,0.4,0.2c0.2,0.1,0.3,0.2,0.4,0.2C173.7,44.6,176.1,42.8,178.7,41z
		 M174.2,55.2c0.4-0.5,0.8-0.9,1-1.4c0.2-0.4,0.3-0.8,0.2-1.2c-0.1-0.4-0.2-0.7-0.4-1.1c-0.2-0.3-0.5-0.7-0.9-1
		c-0.4-0.3-0.8-0.6-1.1-0.9c-0.4-0.3-0.8-0.5-1.3-0.8c-0.9,0.8-1.8,1.5-2.5,2.1c-0.1,0.1-0.4,0.3-0.7,0.6c-0.3,0.3-0.6,0.5-0.8,0.6
		c-0.2,0.2-0.4,0.4-0.6,0.7c-0.2,0.3-0.4,0.6-0.5,0.8c-0.7,1.6-0.7,2.8,0.2,3.5c0.9,0.7,2.1,0.8,3.6,0.5
		C171.6,57.4,172.9,56.5,174.2,55.2z"/>
	<path id="XMLID_21_" class="st0" d="M259.1,29.8c0.4,0,0.8,0.1,1,0.4c0.2,0.3,0.3,0.6,0.2,1c-0.1,0.4-0.4,0.5-0.8,0.6
		c-5.7,0.7-11.5,2.6-17.3,5.7c-0.5,9.2-2.4,17.5-5.9,25c-0.6,1.2-1.1,2.2-1.6,3.2c-0.5,1-1.2,2.1-2,3.3c-0.8,1.2-1.7,2.2-2.5,3
		c-0.9,0.8-1.8,1.6-3,2.2c-1.1,0.6-2.3,1-3.5,1.1c-1.8,0.2-3.4-0.2-4.9-1.2c-1.4-0.9-2.5-2.2-3.2-3.8s-1-3.2-0.8-5
		c0.7-6.6,5.7-13.8,15-21.7c3.4-2.9,6.9-5.3,10.5-7.4c0.1-3.2,0-6.3-0.4-9.4c-0.6-5.7-2-10.8-4.1-15.3c-0.3-0.6-0.7-1.3-1.3-2.3
		c-0.6-1-0.9-1.6-1.1-1.8c-0.1-0.2-0.3-0.4-0.4-0.6c-0.2-0.2-0.3-0.3-0.3-0.4c0-0.1-0.1-0.1-0.1-0.1c-0.1,0.1-0.3,0.2-0.4,0.5
		c-0.2,0.2-0.3,0.5-0.4,0.7c-0.1,0.2-0.2,0.5-0.3,0.8c-0.1,0.3-0.2,0.5-0.3,0.5c-0.8,1.6-1.7,3.6-2.7,5.8c-1,2.2-1.9,4.4-2.9,6.6
		c-0.9,2.2-1.9,4.1-2.7,5.7c-0.7,1.4-1.3,2.5-1.8,3.3c-0.5,0.9-1.1,1.9-1.9,3.2c-0.8,1.3-1.6,2.4-2.3,3.2c-0.7,0.9-1.6,1.8-2.6,2.6
		s-2,1.6-3.1,2.2c-2.5,1.3-4.9,1.6-7.4,0.9c-2.4-0.7-4.4-2.3-5.8-4.7c-1.8-3.1-2.9-6.3-3.1-9.6c-0.2-3.3,0.2-6.4,1.4-9.3
		c1.1-2.9,2.8-5.6,5-8.1c2.2-2.5,4.7-4.6,7.5-6.3s5.8-2.8,9.2-3.5c3.3-0.7,6.6-0.8,9.8-0.2c0.4,0.1,0.7,0.3,0.8,0.7
		c0.1,0.4,0.1,0.7-0.1,1c-0.2,0.3-0.5,0.4-0.9,0.3c-2.4-0.4-4.8-0.5-7.3-0.2c-2.5,0.3-4.8,1-7,1.9c-2.2,1-4.3,2.2-6.3,3.6
		c-2,1.5-3.7,3.2-5.1,5.1c-1.4,1.9-2.5,4-3.4,6.2c-0.9,2.2-1.3,4.6-1.3,7c0,2.4,0.5,4.9,1.3,7.4c1,2.6,2.4,4.6,4.3,5.9
		s4.1,1.5,6.6,0.6c1.7-0.7,3.2-1.7,4.5-3.2c1.3-1.5,2.7-3.3,4-5.4c1.3-2,2.5-4.1,3.6-6.3c1.1-2.2,2.4-5,3.9-8.5
		c1.5-3.5,2.5-5.7,2.9-6.6c0.1-0.1,0.3-0.5,0.5-1c0.2-0.5,0.4-1,0.6-1.3c0.2-0.3,0.4-0.8,0.7-1.3c0.3-0.5,0.6-0.9,0.8-1.2
		c0.3-0.3,0.6-0.5,0.9-0.8c0.3-0.2,0.7-0.3,1.1-0.3c0.4,0,0.8,0.2,1.2,0.5c0.8,0.5,1.5,1.3,2.2,2.3c0.7,1,1.3,2.2,1.8,3.7
		s1,2.6,1.2,3.3c0.3,0.8,0.6,1.9,1,3.3c1.4,4.7,2.1,9.8,2.2,15.4c0,0.3,0,1.1,0,2.4C247.9,32.2,253.5,30.4,259.1,29.8z M235.9,58.1
		c2.3-6.2,3.7-12.7,4.2-19.5c-5.2,3.1-10,7-14.3,11.6c-4.6,4.9-7.5,9.3-8.6,13.4c-0.3,1-0.4,2-0.3,3.1c0.1,1.1,0.3,2.1,0.6,3
		c0.4,0.9,0.9,1.7,1.8,2.4c0.8,0.7,1.8,1.1,3,1.2c1,0.1,1.9,0,2.9-0.4s1.8-0.8,2.6-1.4c0.8-0.6,1.5-1.4,2.3-2.3s1.4-1.9,2-2.8
		c0.5-0.9,1.1-1.9,1.7-3c0.5-1.1,1-2.1,1.3-2.9C235.2,59.9,235.6,59,235.9,58.1z"/>
	<path id="XMLID_24_" class="st0" d="M273.5,40.4c0.2-0.4,0.5-0.5,0.9-0.5c0.4,0.1,0.7,0.3,0.8,0.6c0.2,0.3,0.1,0.7,0,1
		c-1.4,2.2-3.3,4.3-5.7,6.2c-2.4,1.9-4.7,2.9-7,3c-0.7,0-1.3-0.1-1.8-0.3c-0.5-0.2-0.9-0.4-1.2-0.7c-0.3-0.3-0.5-0.7-0.8-1.2
		c-0.2-0.5-0.4-1-0.5-1.4c-0.1-0.4-0.2-0.9-0.3-1.5c-2.6,4.9-4.9,7.2-7,6.8c-0.9-0.1-1.5-0.7-1.9-1.6c-0.4-0.9-0.5-2-0.5-3.3
		c0.1-1.3,0.2-2.4,0.4-3.5c0.2-1,0.4-1.9,0.6-2.6c0.1-0.4,0.4-0.6,0.7-0.6c0.3,0,0.7,0.1,0.9,0.4c0.3,0.3,0.3,0.6,0.3,1
		c-0.8,2.6-1,4.6-0.7,6.1c0.2,1.1,0.9,1.5,2,1c1.3-0.6,2.9-3,4.7-7.1c0.2-0.4,0.5-0.6,0.9-0.6c0.5,0,0.8,0.2,0.9,0.6
		c0.1,0.3,0.2,0.7,0.3,1.1c0.1,0.4,0.2,0.8,0.2,1.2c0.1,0.4,0.1,0.7,0.2,1.2c0.1,0.4,0.2,0.8,0.3,1c0.1,0.3,0.3,0.5,0.5,0.9
		c0.2,0.3,0.5,0.5,0.7,0.6c0.3,0.1,0.6,0.2,1,0.2c0.4,0.1,0.9,0,1.5-0.2c1.7-0.4,3.4-1.4,5.2-3C271.1,43.7,272.5,42.1,273.5,40.4z"
		/>
	<path id="XMLID_26_" class="st0" d="M298.8,40.9c0.3-0.3,0.6-0.4,0.9-0.2c0.3,0.1,0.6,0.4,0.6,0.8c0.1,0.4,0,0.7-0.3,1
		c-0.6,0.6-1.4,1.3-2.4,2.1c-1,0.8-2.1,1.6-3.4,2.5c-1.3,0.9-2.6,1.6-3.9,2.1c-1.3,0.5-2.5,0.9-3.6,1.1c-1.2,0.2-2.2,0-3-0.5
		c-0.9-0.6-1.4-1.5-1.7-2.9c-0.3,0.2-0.6,0.5-1,0.8c-0.4,0.3-0.7,0.6-1,0.9c-0.3,0.3-0.7,0.5-1.1,0.8c-0.4,0.3-0.8,0.5-1.1,0.8
		c-0.3,0.2-0.7,0.4-1.1,0.6c-0.4,0.2-0.8,0.3-1.2,0.4c-0.4,0.1-0.8,0.1-1.2,0.1c-0.4,0-0.8,0-1.2-0.2c-0.8-0.2-1.4-0.6-1.8-1.2
		c-0.4-0.6-0.6-1.3-0.6-1.9c0-0.7,0.1-1.4,0.3-2.2c0.4-1.4,1.1-2.7,2.2-3.7c1.1-1,2.3-1.8,3.6-2.2c1.3-0.4,2.7-0.6,4.2-0.5
		c1.5,0.1,2.8,0.5,4.1,1.3c0.6,0.3,0.7,0.8,0.3,1.3c-0.4,0.5-0.9,0.6-1.4,0.3c-2.5-1.5-5.1-1.4-7.8,0.1c-0.5,0.3-1,0.7-1.5,1.1
		s-0.9,0.9-1.3,1.4c-0.4,0.6-0.6,1.1-0.6,1.6c0,0.5,0.2,1.1,0.7,1.6c0.5,0.5,1,0.8,1.6,0.8c0.6,0,1.2-0.2,1.9-0.6
		c0.6-0.4,1.2-0.8,1.8-1.3c0.6-0.5,1.2-1,1.9-1.5c0.7-0.6,1.2-1,1.6-1.3c0.3-0.2,0.7-0.2,1,0.1c0.3,0.3,0.5,0.6,0.5,0.9
		c0.1,3.7,2.6,4.1,7.5,1.2c2.7-1.6,5.1-3.4,7.2-5.4C298.7,41,298.7,40.9,298.8,40.9z"/>
	<path id="XMLID_28_" class="st0" d="M319.1,41.1c0.2-0.2,0.4-0.3,0.6-0.3c0.2,0,0.4,0.1,0.6,0.2c0.2,0.1,0.3,0.3,0.4,0.5
		c0.1,0.2,0.1,0.4,0.1,0.6c0,0.2-0.1,0.4-0.3,0.6c-2.4,1.9-5.1,2.8-8.1,2.7c-3-0.1-5.6-1.2-7.8-3.2c-1.2,1.4-2.2,3.1-3,5.1
		c-0.8,2-1.4,4.1-1.9,6.2c-0.1,0.4-0.3,0.7-0.6,0.8c-0.3,0.1-0.6,0.1-1-0.1c-0.3-0.2-0.4-0.5-0.4-1c0.1-4.5,1-9.8,2.6-15.6
		c0.1-0.4,0.3-0.6,0.7-0.6c0.4,0,0.7,0.1,1,0.4c0.3,0.3,0.3,0.6,0.3,1c-0.6,2-1,4-1.5,5.9c0.9-1.7,2-3.1,3.1-4.3
		c0.2-0.2,0.4-0.3,0.7-0.3c0.3,0,0.5,0.1,0.7,0.4c1.8,2,4.1,3.1,6.8,3.3C314.6,43.6,317,42.8,319.1,41.1z"/>
	<path id="XMLID_30_" class="st0" d="M331.1,22.8c-0.4,3.3-0.7,5.9-0.9,7.9c-0.2,1.9-0.4,4.4-0.6,7.5c-0.2,3.1-0.2,5.7-0.1,7.9
		c0.1,2.2,0.4,4.7,0.8,7.3c0.4,2.7,1,5.2,1.8,7.5c0.1,0.4,0.1,0.7-0.2,1s-0.6,0.4-0.9,0.4c-0.4,0-0.6-0.2-0.8-0.6
		c-2.2-6.4-3.1-14.1-2.7-23.2c-1.9,5.6-4.5,10.1-7.8,13.5c-0.6,0.6-1.2,1.2-1.9,1.5c-0.7,0.4-1.4,0.7-2.1,0.8
		c-0.7,0.1-1.2,0-1.7-0.5s-0.7-1.3-0.8-2.4c0-2.2,0.7-4.4,2.2-6.7c1.5-2.3,3.3-3.8,5.3-4.6c0.6-0.2,1,0,1.3,0.5
		c0.3,0.6,0.1,1-0.5,1.3c-2.2,0.8-4,2.7-5.3,5.8c-1.1,2.5-1.3,3.9-0.5,4.1c0.5,0.1,1.3-0.3,2.5-1.3c2.5-2.1,4.6-5.8,6.5-11.3
		c2.4-7,4.2-16.1,5.3-27.3c0-0.4,0.2-0.7,0.6-0.8c0.3-0.1,0.7-0.1,1,0.1c0.3,0.2,0.5,0.5,0.4,0.9c-0.1,1-0.2,2.2-0.3,3.5
		C331.6,18.4,331.4,20.8,331.1,22.8z"/>
	<path id="XMLID_32_" class="st0" d="M334.7,39.8c0.2-0.4,0.4-0.6,0.8-0.6c0.4,0,0.7,0.1,0.9,0.3c0.3,0.3,0.3,0.6,0.2,1
		c-1.7,4.3-2.5,8.6-2.4,13c0,0.6-0.3,0.9-0.9,0.9c-0.6,0-1-0.3-1.1-0.8c0-0.1,0-0.2,0-0.3C332.1,48.8,332.9,44.3,334.7,39.8z
		 M338,34c0.2,0.6,0.1,1-0.5,1.4l-3.5,2.1c-0.2,0.1-0.5,0.1-0.8,0c-0.3-0.1-0.5-0.3-0.5-0.5c-0.2-0.5-0.1-1,0.5-1.4l3.5-2.1
		c0.2-0.1,0.5-0.1,0.8,0C337.8,33.6,337.9,33.8,338,34z"/>
	<path id="XMLID_35_" class="st0" d="M366.5,40.9c0.3-0.3,0.6-0.4,0.9-0.2c0.3,0.1,0.6,0.4,0.6,0.8c0.1,0.4,0,0.7-0.3,1
		c-0.6,0.6-1.4,1.3-2.4,2.1c-1,0.8-2.1,1.6-3.4,2.5c-1.3,0.9-2.6,1.6-3.9,2.1c-1.3,0.5-2.5,0.9-3.6,1.1c-1.2,0.2-2.2,0-3-0.5
		c-0.9-0.6-1.4-1.5-1.7-2.9c-0.3,0.2-0.6,0.5-1,0.8c-0.4,0.3-0.7,0.6-1,0.9c-0.3,0.3-0.7,0.5-1.1,0.8c-0.4,0.3-0.8,0.5-1.1,0.8
		c-0.3,0.2-0.7,0.4-1.1,0.6c-0.4,0.2-0.8,0.3-1.2,0.4c-0.4,0.1-0.8,0.1-1.2,0.1c-0.4,0-0.8,0-1.2-0.2c-0.8-0.2-1.4-0.6-1.8-1.2
		c-0.4-0.6-0.6-1.3-0.6-1.9c0-0.7,0.1-1.4,0.3-2.2c0.4-1.4,1.1-2.7,2.2-3.7c1.1-1,2.3-1.8,3.6-2.2c1.3-0.4,2.7-0.6,4.2-0.5
		c1.5,0.1,2.8,0.5,4.1,1.3c0.6,0.3,0.7,0.8,0.3,1.3c-0.4,0.5-0.9,0.6-1.4,0.3c-2.5-1.5-5.1-1.4-7.8,0.1c-0.5,0.3-1,0.7-1.5,1.1
		s-0.9,0.9-1.3,1.4c-0.4,0.6-0.6,1.1-0.6,1.6c0,0.5,0.2,1.1,0.7,1.6c0.5,0.5,1,0.8,1.6,0.8c0.6,0,1.2-0.2,1.9-0.6
		c0.6-0.4,1.2-0.8,1.8-1.3c0.6-0.5,1.2-1,1.9-1.5c0.7-0.6,1.2-1,1.6-1.3c0.3-0.2,0.7-0.2,1,0.1c0.3,0.3,0.5,0.6,0.5,0.9
		c0.1,3.7,2.6,4.1,7.5,1.2c2.7-1.6,5.1-3.4,7.2-5.4C366.4,41,366.5,40.9,366.5,40.9z"/>
	<path id="XMLID_37_" class="st0" d="M399.9,40.9c0.3-0.3,0.6-0.4,1-0.4c0.4,0.1,0.7,0.3,0.8,0.6c0.1,0.3,0.1,0.6-0.1,1
		c-0.8,1-1.8,2.1-3,3.2c-1.1,1.1-2.5,2.2-4,3.3c-1.5,1.1-3,1.9-4.5,2.5c-1.5,0.6-3,0.9-4.5,0.7c-1.5-0.1-2.9-0.8-4-2
		c-0.6-0.7-1.4-1.6-2.4-2.9c-1-1.3-1.8-2.2-2.2-2.8c-0.3-0.3-0.6-0.5-0.8-0.7c-0.3-0.2-0.5-0.3-0.7-0.4c-0.2-0.1-0.4-0.1-0.6,0
		c-0.2,0.1-0.4,0.2-0.6,0.3c-0.2,0.1-0.3,0.3-0.6,0.5c-0.2,0.3-0.4,0.5-0.5,0.6c-0.1,0.2-0.3,0.4-0.5,0.8c-0.3,0.4-0.5,0.6-0.5,0.8
		c-0.2,0.3-0.6,1.1-1.3,2.5c-0.7,1.4-1.5,2.6-2.2,3.6c-0.8,1-1.5,1.5-2.1,1.6c-0.4,0.1-0.7,0-1-0.4c-0.2-0.3-0.4-0.7-0.5-1.1
		c-0.1-0.4-0.2-0.9-0.1-1.4s0.1-1,0.1-1.3c0-0.3,0.1-0.8,0.3-1.5c0.1-0.7,0.2-1,0.3-1.1c0.2-1.3,0.6-3.1,1.2-5.4
		c0.6-2.4,0.9-3.8,1-4.2c0.1-0.4,0.3-0.6,0.7-0.8c0.4-0.1,0.7-0.1,1,0.1c0.3,0.2,0.4,0.5,0.3,0.9c-0.2,0.7-0.5,1.9-0.9,3.6
		c-0.4,1.7-0.7,3-0.9,3.9c-0.4,2-0.7,3.3-0.8,4.1c0,0.1,0,0.3,0,0.4c0.3-0.5,0.6-1,1-1.6c0.4-0.6,0.9-1.2,1.3-1.8
		c0.5-0.6,0.8-1.1,1-1.5c0.1-0.1,0.2-0.3,0.4-0.6c0.2-0.3,0.3-0.5,0.5-0.7c0.1-0.2,0.3-0.4,0.5-0.7c0.2-0.3,0.4-0.5,0.5-0.7
		c0.2-0.2,0.3-0.4,0.5-0.6c0.2-0.2,0.4-0.4,0.6-0.5c0.2-0.2,0.4-0.3,0.6-0.4c0.5-0.1,1-0.2,1.4-0.2c0.4,0,0.8,0.1,1.3,0.5
		c0.5,0.3,0.9,0.6,1.2,0.9c0.3,0.3,0.7,0.8,1.2,1.3c0.4,0.5,0.8,1,1,1.4c0.3,0.4,0.6,0.9,0.9,1.3c0.3,0.5,0.6,0.8,0.8,1.1
		c1.2,1.4,2.2,2.3,3.2,2.5c0.9,0.3,2.3,0.1,4-0.6C393.2,47.5,396.8,44.8,399.9,40.9z"/>
	<path id="XMLID_39_" class="st0" d="M415.1,41c0.3-0.2,0.7-0.3,1-0.1c0.4,0.2,0.6,0.4,0.6,0.8c0.1,0.3-0.1,0.6-0.4,0.9
		c-2.4,1.7-4.6,3.4-6.6,4.9c0.9,0.6,1.6,1.1,2.2,1.7c0.6,0.5,1.1,1.2,1.5,1.9c0.5,0.7,0.6,1.5,0.5,2.3c-0.1,0.8-0.5,1.7-1.3,2.5
		c-0.7,0.8-1.6,1.6-2.8,2.3c-1.1,0.7-2.3,1.3-3.6,1.7c-1.3,0.4-2.4,0.4-3.6-0.1c-1.1-0.4-2-1.3-2.5-2.6c-0.8-2.1,0.4-4.5,3.4-7.3
		c0.7-0.6,1.6-1.4,2.5-2.1c-0.1,0-0.5-0.3-1.3-0.7c-0.8-0.4-1.3-0.7-1.6-0.9c-0.3-0.2-0.7-0.4-1.3-0.9c-0.6-0.4-1-0.8-1.4-1.1
		c-0.3-0.4-0.6-0.8-0.9-1.2c-1-1.8-0.5-3.8,1.7-6.1c1.9-1.9,4-3.2,6.5-3.8c2.7-0.6,4.3,0,5,1.8c0.1,0.3,0.2,0.6,0.3,1
		c0,0.4-0.1,0.7-0.4,0.9s-0.6,0.3-1,0.1c-0.4-0.1-0.6-0.4-0.6-0.8c-0.3-1.8-2-1.8-5,0c-1.4,0.8-2.4,1.5-3.1,2.3
		c-0.6,0.6-1,1.1-1.3,1.5c-0.3,0.4-0.3,0.9-0.2,1.4c0.1,0.5,0.5,1.1,1.1,1.6c0.3,0.3,0.6,0.5,1,0.8c0.4,0.3,0.7,0.5,1,0.7
		c0.3,0.2,0.7,0.4,1.3,0.7c0.6,0.3,0.9,0.5,1.1,0.6c0.1,0,0.2,0.1,0.4,0.2c0.2,0.1,0.3,0.2,0.4,0.2C410.2,44.6,412.6,42.8,415.1,41z
		 M410.6,55.2c0.4-0.5,0.8-0.9,1-1.4c0.2-0.4,0.3-0.8,0.2-1.2c-0.1-0.4-0.2-0.7-0.4-1.1c-0.2-0.3-0.5-0.7-0.9-1
		c-0.4-0.3-0.8-0.6-1.1-0.9s-0.8-0.5-1.3-0.8c-0.9,0.8-1.8,1.5-2.5,2.1c-0.1,0.1-0.4,0.3-0.7,0.6c-0.3,0.3-0.6,0.5-0.8,0.6
		c-0.2,0.2-0.4,0.4-0.6,0.7c-0.2,0.3-0.4,0.6-0.5,0.8c-0.7,1.6-0.7,2.8,0.2,3.5c0.9,0.7,2.1,0.8,3.6,0.5
		C408,57.4,409.3,56.5,410.6,55.2z"/>
	<path id="XMLID_42_" class="st0" d="M453.9,45.8c0.4-0.1,0.7,0.1,0.9,0.4c0.2,0.3,0.3,0.7,0.1,1c-0.1,0.4-0.4,0.6-0.8,0.6
		c-3.5,0.5-6.8,1.6-10,3.2c-0.1,4-0.2,8.1-0.2,12.3c0.6,0.4,1,0.8,1.3,1c2.8,2.6,4.5,6.8,5.4,12.8c0.3,2.2,0.3,4.5-0.2,6.7
		c-0.7,3.4-2.2,4.1-4.5,2.3c-0.7-0.6-1.2-1.3-1.7-2.3c-0.5-1-0.8-1.9-1.1-2.9s-0.5-2.2-0.6-3.6c-0.1-1.4-0.2-2.6-0.3-3.5
		c0-0.9-0.1-2.1-0.1-3.4c0-1.4,0-2.3-0.1-2.7c0-0.7-0.1-1.6-0.1-3c-3.4-2.6-7.4-3.6-12-3.3c-0.5,0-0.8-0.2-1-0.6
		c-0.2-0.4-0.1-0.8,0.3-1.2c4.6-4.3,8.9-7.6,13-9.8c0.2-4.2,0.5-8.5,0.9-12.8c0-0.4,0.1-1.2,0.2-2.4c0.1-1.1,0.1-2.2,0.2-3.1
		c0.1-0.9,0.2-2.1,0.4-3.4c0.2-1.3,0.4-2.5,0.6-3.5c0.2-1,0.6-2.1,1-3.1c0.4-1,0.9-1.9,1.5-2.5s1.2-1.1,2.1-1.5
		c0.8-0.3,1.8-0.4,2.8-0.1c0.4,0.1,0.7,0.3,0.8,0.6c0.1,0.4,0.1,0.7-0.1,1c-0.2,0.3-0.5,0.4-0.9,0.4c-0.8-0.2-1.5,0.1-2.2,0.8
		c-0.7,0.7-1.3,1.7-1.8,3.2c-0.5,1.4-0.9,3-1.3,4.9c-0.4,1.8-0.7,3.9-0.9,6.2c-0.3,2.3-0.5,4.7-0.6,7c-0.2,2.3-0.3,4.8-0.4,7.3
		C447.4,47.3,450.6,46.3,453.9,45.8z M434.1,52.9c-1.3,0.1-2.2-0.3-2.8-1.3c-0.6-1-0.8-2.1-0.5-3.3c0.5-2.6,1.8-5.2,4-7.8
		c0.1-0.1,0.2-0.2,0.3-0.3c0.2-0.6,0.7-0.9,1.3-0.7c1.6,0.4,2.7,1.4,3.3,2.9c0.6,1.5,0.7,3,0.1,4.6c-0.5,1.5-1.3,2.8-2.3,4
		C436.5,52.2,435.4,52.8,434.1,52.9z M442,61.8c0-3.3,0-6.5,0.1-9.6c-3.1,1.8-6.3,4.1-9.6,7.1C436,59.4,439.2,60.2,442,61.8z
		 M436.4,41.7c-0.2,0.3-0.5,0.7-0.8,1.1c-0.3,0.4-0.7,0.9-1.1,1.5c-0.4,0.6-0.8,1.2-1,1.8c-0.3,0.6-0.5,1.2-0.8,1.8
		c-0.2,0.6-0.3,1.1-0.2,1.6c0.1,0.5,0.2,0.9,0.6,1.1c0.6,0.6,1.6,0.2,2.9-1.1c1.5-1.5,2.3-3.1,2.4-4.8
		C438.4,43.2,437.8,42.2,436.4,41.7z M449,81.9c0.3-3,0-5.8-0.9-8.5c-0.9-2.7-2.2-5-4-6.9c0.1,2.4,0.1,4.1,0.2,5.1
		c0.3,3.9,0.7,6.9,1.3,9c0.4,1.6,1,2.8,1.7,3.5c0.8,0.7,1.3,0.2,1.5-1.4L449,81.9z"/>
	<path id="XMLID_48_" class="st0" d="M503.3,26.4c0.4,0,0.7,0.1,0.9,0.4c0.2,0.3,0.3,0.6,0.2,1c-0.1,0.4-0.4,0.6-0.8,0.6
		c-9.3,1.1-18.9,2.5-28.8,4.2c-3.2,13.6-5.2,27.4-6,41.4c0,0.4-0.2,0.7-0.6,0.8c-0.3,0.1-0.7,0.1-1-0.1s-0.5-0.5-0.5-0.9
		c0.8-13.8,2.7-27.4,5.8-40.8c-5,0.9-9.5,1.7-13.5,2.4c-0.2,0-0.4,0-0.6-0.1c-0.2-0.1-0.3-0.2-0.4-0.4c-0.1-0.2-0.1-0.4-0.1-0.6
		s0.1-0.4,0.2-0.5c0.2-0.2,0.3-0.3,0.6-0.4c4.1-0.8,8.9-1.6,14.4-2.6c0.9-3.9,1.9-7.5,2.8-10.8c0.1-0.4,0.4-0.6,0.7-0.6
		c0.4,0,0.7,0.1,0.9,0.4c0.3,0.3,0.3,0.6,0.3,1c-0.8,2.8-1.7,6-2.6,9.7C485,28.8,494.3,27.5,503.3,26.4z"/>
	<path id="XMLID_50_" class="st0" d="M503.3,41c0.2-0.3,0.5-0.5,0.9-0.4c0.4,0.1,0.6,0.3,0.8,0.6c0.1,0.3,0.1,0.7,0,1
		c-1.2,1.7-2.9,3.3-5,4.6s-4,2.1-5.9,2c-0.6,0-1.1-0.2-1.6-0.4s-1-0.5-1.3-0.8c-0.3-0.3-0.7-0.7-1.2-1.3c-0.4-0.6-0.8-1-1-1.3
		c-0.2-0.3-0.5-0.9-0.9-1.6c-0.4-0.7-0.7-1.1-0.8-1.4c0,0-0.1-0.3-0.5-0.9c-0.3-0.6-0.6-1.1-0.9-1.6c-0.3-0.4-0.5-0.7-0.7-0.8
		c-0.3,0-0.6,0-0.9,0.1s-0.5,0.2-0.6,0.4c-0.2,0.1-0.3,0.4-0.5,0.7c-0.2,0.3-0.3,0.6-0.4,0.8c-0.1,0.2-0.2,0.5-0.3,0.9
		c-0.1,0.4-0.2,0.6-0.3,0.7c-0.2,0.6-0.4,1.2-0.6,1.9c-0.2,0.7-0.4,1.5-0.6,2.3c-0.2,0.8-0.4,1.4-0.6,2c-0.1,0.3-0.2,0.5-0.3,0.7
		c-0.1,0.2-0.2,0.4-0.3,0.8c-0.1,0.3-0.3,0.6-0.4,0.8c-0.1,0.2-0.3,0.4-0.5,0.6c-0.2,0.2-0.4,0.4-0.6,0.5c-0.2,0.1-0.4,0.1-0.7,0.1
		c-0.3,0-0.5-0.1-0.8-0.3c-0.4-0.2-0.7-0.5-0.7-1c0.1-13.7,2.8-27.7,8-42c0.1-0.4,0.4-0.6,0.8-0.6c0.4-0.1,0.7,0.1,0.9,0.3
		c0.3,0.3,0.3,0.6,0.2,1c-3.7,10.3-6.1,20.7-7.2,31.1c-0.1,1.2-0.3,3.6-0.5,7V49c0,0,0-0.3,0.2-0.8l0.3-1c0-0.2,0.1-0.6,0.3-1.2
		c0.2-0.6,0.3-1,0.3-1.3c0.1-0.3,0.2-0.7,0.3-1.2c0.2-0.5,0.3-1,0.4-1.3c0.1-0.3,0.3-0.7,0.4-1.2c0.2-0.4,0.3-0.8,0.5-1.2
		c0.5-1,1-1.7,1.6-2.3c0.6-0.6,1.3-0.9,2.1-0.9c0.8,0,1.5,0.4,2.3,1.2c0.6,0.7,1.4,1.9,2.3,3.8c0.9,1.8,1.8,3.1,2.5,3.8
		c0.9,0.8,1.9,1.1,3,1.1s2.1-0.3,3.2-0.9c1.1-0.6,2.1-1.3,3-2.1C501.9,42.7,502.7,41.9,503.3,41z"/>
	<path id="XMLID_52_" class="st0" d="M522.8,40.8c0.3-0.3,0.6-0.4,1-0.2c0.3,0.1,0.5,0.4,0.6,0.8c0.1,0.3,0,0.7-0.3,1
		c-6.9,7-12.8,9.9-17.8,8.8c-1.8-0.4-3.1-1.2-4-2.3s-1.3-2.4-1.1-3.9c0.2-1.4,0.8-2.8,2-4.1c0.9-1,2.1-1.8,3.5-2.4
		c2.1-0.9,3.2-0.3,3.1,1.6c0,0,0,0.1,0,0.1c0,1.3-0.8,2.5-2.3,3.7c-1.5,1.2-2.9,1.6-4.2,1.1c-0.1,1.5,0.5,2.6,1.9,3.4
		c1.4,0.7,2.9,1,4.6,0.6c2.4-0.4,4.6-1.4,6.6-2.8C518.6,44.8,520.7,43,522.8,40.8z M507,40.5c-0.5,0-1,0.3-1.5,0.9
		c-0.5,0.5-1,1.1-1.4,1.8c0.7,0.3,1.5-0.1,2.5-1.2c0.7-0.8,0.8-1.2,0.5-1.4C507.1,40.5,507.1,40.5,507,40.5z"/>
	<path id="XMLID_55_" class="st0" d="M603.2,29.8c0.4,0,0.8,0.1,1,0.4c0.2,0.3,0.3,0.6,0.2,1c-0.1,0.4-0.4,0.5-0.8,0.6
		c-5.7,0.7-11.5,2.6-17.3,5.7c-0.5,9.2-2.4,17.5-5.9,25c-0.6,1.2-1.1,2.2-1.6,3.2c-0.5,1-1.2,2.1-2,3.3c-0.8,1.2-1.7,2.2-2.5,3
		c-0.9,0.8-1.8,1.6-3,2.2c-1.1,0.6-2.3,1-3.5,1.1c-1.8,0.2-3.4-0.2-4.9-1.2c-1.4-0.9-2.5-2.2-3.2-3.8s-1-3.2-0.8-5
		c0.7-6.6,5.7-13.8,15-21.7c3.4-2.9,6.9-5.3,10.5-7.4c0.1-3.2,0-6.3-0.4-9.4c-0.6-5.7-2-10.8-4.1-15.3c-0.3-0.6-0.7-1.3-1.3-2.3
		c-0.6-1-0.9-1.6-1.1-1.8c-0.1-0.2-0.3-0.4-0.4-0.6c-0.2-0.2-0.3-0.3-0.3-0.4c0-0.1-0.1-0.1-0.1-0.1c-0.1,0.1-0.3,0.2-0.4,0.5
		c-0.2,0.2-0.3,0.5-0.4,0.7c-0.1,0.2-0.2,0.5-0.3,0.8c-0.1,0.3-0.2,0.5-0.3,0.5c-0.8,1.6-1.7,3.6-2.7,5.8c-1,2.2-1.9,4.4-2.9,6.6
		c-0.9,2.2-1.9,4.1-2.7,5.7c-0.7,1.4-1.3,2.5-1.8,3.3c-0.5,0.9-1.1,1.9-1.9,3.2c-0.8,1.3-1.6,2.4-2.3,3.2c-0.7,0.9-1.6,1.8-2.6,2.6
		s-2,1.6-3.1,2.2c-2.5,1.3-4.9,1.6-7.4,0.9c-2.4-0.7-4.4-2.3-5.8-4.7c-1.8-3.1-2.9-6.3-3.1-9.6c-0.2-3.3,0.2-6.4,1.4-9.3
		c1.1-2.9,2.8-5.6,5-8.1c2.2-2.5,4.7-4.6,7.5-6.3s5.8-2.8,9.2-3.5c3.3-0.7,6.6-0.8,9.8-0.2c0.4,0.1,0.7,0.3,0.8,0.7
		c0.1,0.4,0.1,0.7-0.1,1c-0.2,0.3-0.5,0.4-0.9,0.3c-2.4-0.4-4.8-0.5-7.3-0.2c-2.5,0.3-4.8,1-7,1.9c-2.2,1-4.3,2.2-6.3,3.6
		c-2,1.5-3.7,3.2-5.1,5.1c-1.4,1.9-2.5,4-3.4,6.2c-0.9,2.2-1.3,4.6-1.3,7c0,2.4,0.5,4.9,1.3,7.4c1,2.6,2.4,4.6,4.3,5.9
		s4.1,1.5,6.6,0.6c1.7-0.7,3.2-1.7,4.5-3.2c1.3-1.5,2.7-3.3,4-5.4c1.3-2,2.5-4.1,3.6-6.3c1.1-2.2,2.4-5,3.9-8.5
		c1.5-3.5,2.5-5.7,2.9-6.6c0.1-0.1,0.3-0.5,0.5-1c0.2-0.5,0.4-1,0.6-1.3c0.2-0.3,0.4-0.8,0.7-1.3c0.3-0.5,0.6-0.9,0.8-1.2
		c0.3-0.3,0.6-0.5,0.9-0.8c0.3-0.2,0.7-0.3,1.1-0.3c0.4,0,0.8,0.2,1.2,0.5c0.8,0.5,1.5,1.3,2.2,2.3c0.7,1,1.3,2.2,1.8,3.7
		s1,2.6,1.2,3.3c0.3,0.8,0.6,1.9,1,3.3c1.4,4.7,2.1,9.8,2.2,15.4c0,0.3,0,1.1,0,2.4C592,32.2,597.6,30.4,603.2,29.8z M580,58.1
		c2.3-6.2,3.7-12.7,4.2-19.5c-5.2,3.1-10,7-14.3,11.6c-4.6,4.9-7.5,9.3-8.6,13.4c-0.3,1-0.4,2-0.3,3.1c0.1,1.1,0.3,2.1,0.6,3
		c0.4,0.9,0.9,1.7,1.8,2.4c0.8,0.7,1.8,1.1,3,1.2c1,0.1,1.9,0,2.9-0.4s1.8-0.8,2.6-1.4c0.8-0.6,1.5-1.4,2.3-2.3s1.4-1.9,2-2.8
		c0.5-0.9,1.1-1.9,1.7-3c0.5-1.1,1-2.1,1.3-2.9C579.3,59.9,579.7,59,580,58.1z"/>
	<path id="XMLID_58_" class="st0" d="M620.8,40.9c0.3-0.3,0.6-0.4,0.9-0.2c0.3,0.1,0.6,0.4,0.6,0.8c0.1,0.4,0,0.7-0.3,1
		c-0.6,0.6-1.4,1.3-2.4,2.1c-1,0.8-2.1,1.6-3.4,2.5c-1.3,0.9-2.6,1.6-3.9,2.1c-1.3,0.5-2.5,0.9-3.6,1.1c-1.2,0.2-2.2,0-3-0.5
		c-0.9-0.6-1.4-1.5-1.7-2.9c-0.3,0.2-0.6,0.5-1,0.8c-0.4,0.3-0.7,0.6-1,0.9c-0.3,0.3-0.7,0.5-1.1,0.8c-0.4,0.3-0.8,0.5-1.1,0.8
		c-0.3,0.2-0.7,0.4-1.1,0.6c-0.4,0.2-0.8,0.3-1.2,0.4c-0.4,0.1-0.8,0.1-1.2,0.1c-0.4,0-0.8,0-1.2-0.2c-0.8-0.2-1.4-0.6-1.8-1.2
		c-0.4-0.6-0.6-1.3-0.6-1.9c0-0.7,0.1-1.4,0.3-2.2c0.4-1.4,1.1-2.7,2.2-3.7c1.1-1,2.3-1.8,3.6-2.2c1.3-0.4,2.7-0.6,4.2-0.5
		c1.5,0.1,2.8,0.5,4.1,1.3c0.6,0.3,0.7,0.8,0.3,1.3c-0.4,0.5-0.9,0.6-1.4,0.3c-2.5-1.5-5.1-1.4-7.8,0.1c-0.5,0.3-1,0.7-1.5,1.1
		s-0.9,0.9-1.3,1.4c-0.4,0.6-0.6,1.1-0.6,1.6c0,0.5,0.2,1.1,0.7,1.6c0.5,0.5,1,0.8,1.6,0.8c0.6,0,1.2-0.2,1.9-0.6
		c0.6-0.4,1.2-0.8,1.8-1.3c0.6-0.5,1.2-1,1.9-1.5c0.7-0.6,1.2-1,1.6-1.3c0.3-0.2,0.7-0.2,1,0.1c0.3,0.3,0.5,0.6,0.5,0.9
		c0.1,3.7,2.6,4.1,7.5,1.2c2.7-1.6,5.1-3.4,7.2-5.4C620.7,41,620.7,40.9,620.8,40.9z"/>
	<path id="XMLID_60_" class="st0" d="M643,41.5c0.5-0.5,1-0.5,1.5-0.1c0.5,0.4,0.6,0.8,0.2,1.3c-0.8,0.9-1.6,1.7-2.3,2.4
		s-1.7,1.6-3,2.8s-2.5,2.1-3.6,2.9c-1.1,0.8-2.3,1.6-3.7,2.3c-1.4,0.7-2.6,1.1-3.8,1.3s-2.3,0.1-3.4-0.4c-1.1-0.4-2.1-1.3-2.9-2.5
		c-0.5-0.7-0.8-1.5-1.1-2.5s-0.4-1.9-0.5-2.8c0-0.9,0-2,0.1-3.2c0.1-1.3,0.2-2.3,0.3-3.1c0.1-0.8,0.3-1.8,0.5-3.1
		c0.3-1.3,0.4-2.2,0.5-2.6c0.2-1.4,0.5-2.9,0.8-4.4s0.6-3.1,1-4.7c0.4-1.6,0.7-3,1-4.2c0.3-1.2,0.7-2.8,1.1-4.6
		c0.5-1.9,0.8-3.4,1.1-4.4c0.1-0.5,0.5-0.7,1-0.6c0.5,0.1,0.8,0.4,0.9,0.8c0.2,1.1,0.4,2.1,0.4,3.1c0,1,0,1.9-0.2,2.9
		c-0.2,1-0.4,1.9-0.6,2.7c-0.2,0.8-0.6,1.9-1,3.1c-0.1,0.3-0.3,0.5-0.7,0.6c-0.3,0.1-0.6,0-0.8-0.2c-1.5,6.5-2.5,12-2.9,16.6
		c0,0.2-0.1,0.7-0.2,1.5c-0.1,0.8-0.1,1.4-0.2,2c0,0.5-0.1,1.1-0.1,1.8c0,0.7,0,1.3,0.1,1.9c0.1,0.6,0.3,1,0.5,1.4
		c0.3,0.6,0.6,1,1,1.4c0.4,0.4,0.7,0.7,1,0.9c0.3,0.2,0.8,0.4,1.3,0.4c0.5,0,0.9,0.1,1.2,0.1c0.3,0,0.7-0.1,1.3-0.3
		c0.6-0.2,1-0.4,1.2-0.4c0.3-0.1,0.7-0.3,1.3-0.7c0.6-0.4,0.9-0.6,1.1-0.7c0.2-0.1,0.8-0.5,2-1.4C637.6,46.7,640.4,44.2,643,41.5z"
		/>
	<path id="XMLID_62_" class="st0" d="M668.5,40.9c0.3-0.3,0.6-0.4,0.9-0.2c0.3,0.1,0.6,0.4,0.6,0.8c0.1,0.4,0,0.7-0.3,1
		c-0.6,0.6-1.4,1.3-2.4,2.1c-1,0.8-2.1,1.6-3.4,2.5c-1.3,0.9-2.6,1.6-3.9,2.1c-1.3,0.5-2.5,0.9-3.6,1.1c-1.2,0.2-2.2,0-3-0.5
		c-0.9-0.6-1.4-1.5-1.7-2.9c-0.3,0.2-0.6,0.5-1,0.8c-0.4,0.3-0.7,0.6-1,0.9c-0.3,0.3-0.7,0.5-1.1,0.8c-0.4,0.3-0.8,0.5-1.1,0.8
		c-0.3,0.2-0.7,0.4-1.1,0.6c-0.4,0.2-0.8,0.3-1.2,0.4c-0.4,0.1-0.8,0.1-1.2,0.1c-0.4,0-0.8,0-1.2-0.2c-0.8-0.2-1.4-0.6-1.8-1.2
		c-0.4-0.6-0.6-1.3-0.6-1.9c0-0.7,0.1-1.4,0.3-2.2c0.4-1.4,1.1-2.7,2.2-3.7c1.1-1,2.3-1.8,3.6-2.2c1.3-0.4,2.7-0.6,4.2-0.5
		c1.5,0.1,2.8,0.5,4.1,1.3c0.6,0.3,0.7,0.8,0.3,1.3c-0.4,0.5-0.9,0.6-1.4,0.3c-2.5-1.5-5.1-1.4-7.8,0.1c-0.5,0.3-1,0.7-1.5,1.1
		s-0.9,0.9-1.3,1.4c-0.4,0.6-0.6,1.1-0.6,1.6c0,0.5,0.2,1.1,0.7,1.6c0.5,0.5,1,0.8,1.6,0.8c0.6,0,1.2-0.2,1.9-0.6
		c0.6-0.4,1.2-0.8,1.8-1.3c0.6-0.5,1.2-1,1.9-1.5c0.7-0.6,1.2-1,1.6-1.3c0.3-0.2,0.7-0.2,1,0.1c0.3,0.3,0.5,0.6,0.5,0.9
		c0.1,3.7,2.6,4.1,7.5,1.2c2.7-1.6,5.1-3.4,7.2-5.4C668.4,41,668.4,40.9,668.5,40.9z"/>
	<path id="XMLID_64_" class="st0" d="M692.5,40.4c0.3-0.3,0.6-0.4,1-0.4c0.4,0.1,0.7,0.3,0.8,0.5c0.1,0.3,0.1,0.6-0.2,1
		c-0.3,0.3-1,1.1-2.2,2.5c-1.2,1.4-2.1,2.4-2.7,3c-0.6,0.6-1.5,1.5-2.5,2.5c-1.1,1-2.1,1.8-3.2,2.4c-1,0.6-2,1-3.1,1.3
		c-2.4,0.7-4.7-0.4-7-3.4c-1.4,1.9-2.4,3.5-3.2,4.7c-0.2,0.3-0.5,0.5-0.9,0.4c-0.4-0.1-0.6-0.3-0.8-0.6c-0.1-0.3-0.1-0.7,0-1
		c0.8-1.3,2-3.1,3.7-5.3c-0.4-0.5-1.1-1.7-2.1-3.4c-1-1.7-1.7-2.9-2.2-3.5c-0.3-0.3-0.3-0.7-0.2-1c0.2-0.4,0.4-0.6,0.8-0.6
		c0.3-0.1,0.7,0.1,1,0.4c0.5,0.6,1.2,1.7,2.2,3.4s1.6,2.6,1.8,3c1.8-2.5,3.2-4.6,4.1-6.3c0.2-0.4,0.5-0.5,0.9-0.4
		c0.4,0.1,0.6,0.3,0.8,0.6c0.2,0.3,0.2,0.7,0,1.1c-1,1.7-2.5,4-4.6,6.9c2.4,3,4.8,3.8,7.3,2.2c0.5-0.3,1-0.6,1.5-1
		c0.5-0.4,1-0.7,1.3-1c0.4-0.3,0.9-0.7,1.4-1.3c0.6-0.5,1-0.9,1.3-1.2c0.3-0.3,0.7-0.7,1.3-1.4c0.6-0.6,1-1.1,1.2-1.3
		c0.2-0.2,0.6-0.7,1.3-1.4C692,41,692.4,40.5,692.5,40.4z"/>
	<path id="XMLID_66_" class="st0" d="M720.3,41.4c0.3-0.3,0.6-0.3,1-0.1c0.4,0.2,0.6,0.4,0.6,0.8c0.1,0.3,0,0.6-0.3,1
		c-1.6,1.3-4.7,3.6-9.3,7c0.5,3.5,0.6,7.2,0.2,11.1c-0.3,3.2-1.1,6.2-2.4,9.1s-3.1,5.6-5.4,7.9c-2.3,2.4-5,4.1-8,5.1
		c-1.6,0.6-3,0.6-4.4,0.1c-1.4-0.5-2.3-1.6-2.9-3.3c-1.1-3.2-0.2-7.3,2.8-12.5c0.7-1.2,1.4-2.4,2.3-3.6c0.8-1.2,1.7-2.3,2.7-3.3
		c1-1.1,2-2.1,2.9-3c0.9-0.9,2-1.9,3.2-2.9s2.3-1.9,3.3-2.6s2.1-1.6,3.4-2.6c-0.5-2.5-1.3-4.4-2.3-5.9c-0.3-0.4-0.6-0.7-0.9-0.9
		c-0.3-0.2-0.5-0.3-0.8-0.4c-0.2-0.1-0.5,0-0.8,0.2c-0.3,0.2-0.6,0.4-0.8,0.6c-0.2,0.2-0.5,0.5-1,0.9c0,0-0.1,0.1-0.1,0.1
		c0,0-0.1,0.1-0.1,0.1c-0.1,0-0.1,0.1-0.1,0.1c-0.7,0.7-1.6,1.7-2.8,3.1c-1.2,1.4-2,2.3-2.5,2.9c-0.4,0.4-0.8,0.8-1,1
		c-0.3,0.3-0.7,0.6-1.3,1s-1,0.7-1.4,0.8c-0.4,0.2-0.9,0.2-1.4,0.2s-1-0.3-1.4-0.6c-1.7-1.5-1.6-4.8,0.3-10c0.1-0.4,0.4-0.6,0.8-0.6
		c0.4,0,0.7,0.1,1,0.4c0.3,0.3,0.3,0.6,0.2,1c-0.9,2.4-1.3,4.1-1.2,5c0.1,0.7,0.2,1.2,0.4,1.6c0.2,0.4,0.5,0.5,0.8,0.5
		c0.3,0,0.7-0.1,1-0.3c0.4-0.2,0.8-0.5,1.3-0.8c0.8-0.6,1.9-1.7,3.2-3.3c1.3-1.6,2.1-2.6,2.5-3c0.6-0.6,1.1-1.1,1.5-1.4
		c0.4-0.3,0.9-0.7,1.5-1c0.6-0.4,1.2-0.5,1.8-0.5c0.6,0,1.2,0.2,1.8,0.7c1.8,1.3,3.1,3.7,3.8,7.1C715.8,44.9,718.6,42.8,720.3,41.4z
		 M710.7,56.4c-0.1-1.8-0.2-3.5-0.3-5c-1.9,1.4-3.5,2.7-4.9,3.8s-2.8,2.5-4.4,4c-1.6,1.5-3,3-4.1,4.5c-1.1,1.5-2.2,3.1-3.1,4.9
		c-1,1.8-1.7,3.7-2.2,5.6c-0.4,1.6-0.5,3.1-0.2,4.4c0.3,1.3,1,2.2,2,2.6c1,0.5,2.4,0.3,4.2-0.6c1-0.5,2-1.1,3-1.8
		c1-0.7,2-1.5,2.8-2.4c0.9-0.9,1.6-1.7,2.3-2.7C709.3,69.1,710.9,63.4,710.7,56.4z"/>
</g>
</svg>
